{
classes = (
{
automatic = 1;
code = "A AE AEacute Aacute Abreve Acircumflex Adieresis Agrave Amacron Aogonek Aring Aringacute Atilde B C Cacute Ccaron Ccedilla Ccircumflex Cdotaccent D Dcaron Dcroat E Eacute Ebreve Ecaron Ecircumflex Edieresis Edotaccent Egrave Emacron Eng Eogonek Eth Etilde F G G.alt Gbreve Gcircumflex Gcommaaccent Gdotaccent H Hbar Hcircumflex I IJ J Iacute Ibreve Icircumflex Idieresis Idotaccent Igrave Imacron Iogonek Itilde Jcircumflex K Kcommaaccent L Lacute Lcaron Lcommaaccent Ldot Lslash M N Nacute Ncaron Ncommaaccent Ndotaccent Ntilde O OE Oacute Obreve Ocircumflex Odieresis Ograve Ohungarumlaut Omacron Oogonek Oslash Oslashacute Otilde P Q R Racute Rcaron Rcommaaccent S Sacute Scaron Scircumflex T Tbar Tcaron Thorn U Uacute Ubreve Ucircumflex Udieresis Ugrave Uhungarumlaut Umacron Uogonek Uring Utilde V W Wacute Wcircumflex Wdieresis Wgrave X Y Yacute Ycircumflex Ydieresis Ygrave Ytilde Z Zacute Zcaron Zdotaccent uni015E uni0162 uni0218 uni021A W.ss02";
name = Uppercase;
}
);
copyright = "It is a display face that features both old style and lining numerals, standard and discretionary ligatures, a pretty complete set of diacritics, as well as a stylistic alternate inspired by more geometric sans-serif typefaces than it's neo-grotesque inspired default character set.";
customParameters = (
{
name = description;
value = "It is a display face that features both old style and lining numerals, standard and discretionary ligatures, a pretty complete set of diacritics, as well as a stylistic alternate inspired by more geometric sans-serif typefaces than it's neo-grotesque inspired default character set.";
},
{
name = license;
value = "This Font Software is licensed under the SIL Open Font License, Version 1.1. This license is available with a FAQ at: http://scripts.sil.org/OFL";
},
{
name = licenseURL;
value = "http://scripts.sil.org/OFL";
},
{
name = glyphOrder;
value = (
    ".notdef",
    A,
    "A.sc",
    AE,
    AEacute,
    acute,

glyphs = (
{
glyphname = A;
layers = (
{
layerId = "D8D94703-76C4-4836-9DB2-440344724E35";
name = Regular;
paths = (
{
closed = 1;
nodes = (
"89 0 LINE",
"180 222 LINE",
"499 222 LINE",
"591 0 LINE",
"666 0 LINE",
"369 710 LINE",
"312 710 LINE",
"15 0 LINE"
);
},
{
closed = 1;
nodes = (
"483 277 LINE",
"195 277 LINE",
"341 628 LINE"
);
}
);
width = 679;
}
);
unicode = 0041;
},
{
glyphname = A.sc;
layers = (
{
layerId = "D8D94703-76C4-4836-9DB2-440344724E35";
name = Regular;
paths = (
{
closed = 1;
nodes = (
"85 0 LINE",
"160 165 LINE",
"425 165 LINE",
"501 0 LINE",
"567 0 LINE",
"319 548 LINE",
"267 548 LINE",
"17 0 LINE"
);
},
{
closed = 1;
nodes = (
"409 220 LINE",
"175 220 LINE",
"293 470 LINE"
);
}
);
width = 586;
}
);
},
{
glyphname = AE;
layers = (
{
layerId = "D8D94703-76C4-4836-9DB2-440344724E35";
name = Regular;
paths = (
{
closed = 1;
nodes = (
"-1 0 LINE",
"75 0 LINE",
"216 222 LINE",
"475 222 LINE",
"475 0 LINE",
"946 0 LINE",
"946 62 LINE",
"543 62 LINE",
"543 331 LINE",
"883 331 LINE",
"883 393 LINE",
"543 393 LINE",
"543 648 LINE",
"937 648 LINE",
"937 710 LINE",
"456 710 LINE"
);
},
{
closed = 1;
nodes = (
"248 284 LINE",
"470 626 LINE",
"470 284 LINE"
);
}
);
width = 991;
}
);
unicode = 00C6;
},
{
glyphname = AEacute;
lastChange = "2014-10-26 08:38:02 +0100";
layers = (
{
components = (
{
name = acute;
transform = "{1, 0, 0, 1, 448, 187}";
}
);
layerId = "D8D94703-76C4-4836-9DB2-440344724E35";
name = Regular;
paths = (
{
closed = 1;
nodes = (
"-1 0 LINE",
"75 0 LINE",
"216 222 LINE",
"475 222 LINE",
"475 0 LINE",
"946 0 LINE",
"946 62 LINE",
"543 62 LINE",
"543 331 LINE",
"883 331 LINE",
"883 393 LINE",
"543 393 LINE",
"543 648 LINE",
"937 648 LINE",
"937 710 LINE",
"456 710 LINE"
);
},
{
closed = 1;
nodes = (
"248 284 LINE",
"470 626 LINE",
"470 284 LINE"
);
}
);
width = 991;
}
);
unicode = 01FC;
},
{
glyphname = acute;
lastChange = "2014-10-26 20:27:42 +0100";
layers = (
{
layerId = "D8D94703-76C4-4836-9DB2-440344724E35";
name = Regular;
paths = (
{
closed = 1;
nodes = (
"109 730 LINE",
"49 637 LINE",
"93 620 LINE",
"180 730 LINE"
);
}
);
width = 222;
}
);
unicode = 00B4;
},
{
glyphname = Aacute;
layers = (
{
layerId = "D8D94703-76C4-4836-9DB2-440344724E35";
name = Regular;
paths = (
{
closed = 1;
nodes = (
"89 0 LINE",
"180 222 LINE",
"499 222 LINE",
"591 0 LINE",
"666 0 LINE",
"369 710 LINE",
"312 710 LINE",
"15 0 LINE"
);
},
{
closed = 1;
nodes = (
"483 277 LINE",
"195 277 LINE",
"341 628 LINE"
);
},
{
closed = 1;
nodes = (
"433 917 LINE",
"361 917 LINE",
"302 824 LINE",
"347 807 LINE"
);
}
);
width = 679;
}
);
unicode = 00C1;
},
{
glyphname = Abreve;
layers = (
{
layerId = "D8D94703-76C4-4836-9DB2-440344724E35";
name = Regular;
paths = (
{
closed = 1;
nodes = (
"89 0 LINE",
"180 222 LINE",
"499 222 LINE",
"591 0 LINE",
"666 0 LINE",
"369 710 LINE",
"312 710 LINE",
"15 0 LINE"
);
},
{
closed = 1;
nodes = (
"483 277 LINE",
"195 277 LINE",
"341 628 LINE"
);
},
{
closed = 1;
nodes = (
"312 851 OFFCURVE",
"285 883 OFFCURVE",
"285 917 CURVE",
"243 917 LINE",
"243 860 OFFCURVE",
"286 816 OFFCURVE",
"341 816 CURVE SMOOTH",
"395 816 OFFCURVE",
"439 860 OFFCURVE",
"439 917 CURVE",
"398 917 LINE",
"394 880 OFFCURVE",
"369 851 OFFCURVE",
"341 851 CURVE SMOOTH"
);
}
);
width = 679;
}
);
unicode = 0102;
},
{
glyphname = breve;
layers = (
{
layerId = "D8D94703-76C4-4836-9DB2-440344724E35";
name = Regular;
paths = (
{
closed = 1;
nodes = (
"112 664 OFFCURVE",
"85 696 OFFCURVE",
"85 730 CURVE",
"43 730 LINE",
"43 673 OFFCURVE",
"86 629 OFFCURVE",
"141 629 CURVE SMOOTH",
"195 629 OFFCURVE",
"239 673 OFFCURVE",
"239 730 CURVE",
"198 730 LINE",
"194 693 OFFCURVE",
"169 664 OFFCURVE",
"141 664 CURVE SMOOTH"
);
}
);
width = 282;
}
);
unicode = 02D8;
},
{
glyphname = Acircumflex;
layers = (
{
layerId = "D8D94703-76C4-4836-9DB2-440344724E35";
name = Regular;
paths = (
{
closed = 1;
nodes = (
"89 0 LINE",
"180 222 LINE",
"499 222 LINE",
"591 0 LINE",
"666 0 LINE",
"369 710 LINE",
"312 710 LINE",
"15 0 LINE"
);
},
{
closed = 1;
nodes = (
"483 277 LINE",
"195 277 LINE",
"341 628 LINE"
);
},
{
closed = 1;
nodes = (
"255 811 LINE",
"340 874 LINE",
"425 811 LINE",
"464 832 LINE",
"365 917 LINE",
"315 917 LINE",
"217 832 LINE"
);
}
);
width = 679;
}
);
unicode = 00C2;
},
{
glyphname = circumflex;
layers = (
{
layerId = "D8D94703-76C4-4836-9DB2-440344724E35";
name = Regular;
paths = (
{
closed = 1;
nodes = (
"80 624 LINE",
"165 687 LINE",
"250 624 LINE",
"289 645 LINE",
"190 730 LINE",
"140 730 LINE",
"42 645 LINE"
);
}
);
width = 330;
}
);
unicode = 02C6;
},
{
glyphname = Adieresis;
layers = (
{
layerId = "D8D94703-76C4-4836-9DB2-440344724E35";
name = Regular;
paths = (
{
closed = 1;
nodes = (
"89 0 LINE",
"180 222 LINE",
"499 222 LINE",
"591 0 LINE",
"666 0 LINE",
"369 710 LINE",
"312 710 LINE",
"15 0 LINE"
);
},
{
closed = 1;
nodes = (
"483 277 LINE",
"195 277 LINE",
"341 628 LINE"
);
},
{
closed = 1;
nodes = (
"295 820 LINE",
"295 914 LINE",
"237 914 LINE",
"237 820 LINE"
);
},
{
closed = 1;
nodes = (
"444 820 LINE",
"444 914 LINE",
"386 914 LINE",
"386 820 LINE"
);
}
);
width = 679;
}
);
unicode = 00C4;
},
{
glyphname = dieresis;
layers = (
{
layerId = "D8D94703-76C4-4836-9DB2-440344724E35";
name = Regular;
paths = (
{
closed = 1;
nodes = (
"119 633 LINE",
"119 727 LINE",
"61 727 LINE",
"61 633 LINE"
);
},
{
closed = 1;
nodes = (
"268 633 LINE",
"268 727 LINE",
"210 727 LINE",
"210 633 LINE"
);
}
);
width = 329;
}
);
unicode = 00A8;
},
{
glyphname = Agrave;
layers = (
{
layerId = "D8D94703-76C4-4836-9DB2-440344724E35";
name = Regular;
paths = (
{
closed = 1;
nodes = (
"89 0 LINE",
"180 222 LINE",
"499 222 LINE",
"591 0 LINE",
"666 0 LINE",
"369 710 LINE",
"312 710 LINE",
"15 0 LINE"
);
},
{
closed = 1;
nodes = (
"483 277 LINE",
"195 277 LINE",
"341 628 LINE"
);
},
{
closed = 1;
nodes = (
"335 807 LINE",
"379 824 LINE",
"319 917 LINE",
"248 917 LINE"
);
}
);
width = 679;
}
);
unicode = 00C0;
},
{
glyphname = grave;
lastChange = "2014-10-26 20:23:32 +0100";
layers = (
{
guideLines = (
{
position = "{123, 730}";
},
{
position = "{137, 620}";
}
);
hints = (
{
horizontal = 1;
origin = "{0, 2}";
target = down;
type = TopGhost;
}
);
layerId = "D8D94703-76C4-4836-9DB2-440344724E35";
name = Regular;
paths = (
{
closed = 1;
nodes = (
"136 620 LINE",
"180 637 LINE",
"120 730 LINE",
"49 730 LINE"
);
}
);
width = 222;
}
);
unicode = 0060;
},
{
glyphname = Amacron;
layers = (
{
layerId = "D8D94703-76C4-4836-9DB2-440344724E35";
name = Regular;
paths = (
{
closed = 1;
nodes = (
"89 0 LINE",
"180 222 LINE",
"499 222 LINE",
"591 0 LINE",
"666 0 LINE",
"369 710 LINE",
"312 710 LINE",
"15 0 LINE"
);
},
{
closed = 1;
nodes = (
"483 277 LINE",
"195 277 LINE",
"341 628 LINE"
);
},
{
closed = 1;
nodes = (
"485 850 LINE",
"485 897 LINE",
"196 897 LINE",
"196 850 LINE"
);
}
);
width = 679;
}
);
unicode = 0100;
},
{
glyphname = macron;
layers = (
{
layerId = "D8D94703-76C4-4836-9DB2-440344724E35";
name = Regular;
paths = (
{
closed = 1;
nodes = (
"343 663 LINE",
"343 710 LINE",
"54 710 LINE",
"54 663 LINE"
);
}
);
width = 396;
}
);
unicode = 00AF;
},
{
glyphname = Aogonek;
layers = (
{
layerId = "D8D94703-76C4-4836-9DB2-440344724E35";
name = Regular;
paths = (
{
closed = 1;
nodes = (
"636 -137 LINE",
"601 -132 OFFCURVE",
"584 -117 OFFCURVE",
"584 -93 CURVE SMOOTH",
"584 -64 OFFCURVE",
"607 -37 OFFCURVE",
"666 0 CURVE",
"369 710 LINE",
"312 710 LINE",
"15 0 LINE",
"89 0 LINE",
"180 222 LINE",
"499 222 LINE",
"591 0 LINE",
"617 0 LINE",
"565 -36 OFFCURVE",
"542 -69 OFFCURVE",
"542 -102 CURVE SMOOTH",
"542 -137 OFFCURVE",
"568 -165 OFFCURVE",
"617 -175 CURVE"
);
},
{
closed = 1;
nodes = (
"483 277 LINE",
"195 277 LINE",
"341 628 LINE"
);
}
);
width = 679;
}
);
unicode = 0104;
},
{
glyphname = ogonek;
layers = (
{
layerId = "D8D94703-76C4-4836-9DB2-440344724E35";
name = Regular;
paths = (
{
closed = 1;
nodes = (
"149 -137 LINE",
"114 -132 OFFCURVE",
"97 -117 OFFCURVE",
"97 -93 CURVE SMOOTH",
"97 -64 OFFCURVE",
"120 -37 OFFCURVE",
"179 0 CURVE",
"157 17 LINE",
"86 -26 OFFCURVE",
"55 -64 OFFCURVE",
"55 -102 CURVE SMOOTH",
"55 -137 OFFCURVE",
"81 -165 OFFCURVE",
"130 -175 CURVE"
);
}
);
width = 240;
}
);
unicode = 02DB;
},
{
glyphname = Aring;
layers = (
{
layerId = "D8D94703-76C4-4836-9DB2-440344724E35";
name = Regular;
paths = (
{
closed = 1;
nodes = (
"89 0 LINE",
"180 222 LINE",
"499 222 LINE",
"591 0 LINE",
"666 0 LINE",
"369 710 LINE",
"312 710 LINE",
"15 0 LINE"
);
},
{
closed = 1;
nodes = (
"483 277 LINE",
"195 277 LINE",
"341 628 LINE"
);
},
{
closed = 1;
nodes = (
"266 812 OFFCURVE",
"297 786 OFFCURVE",
"340 786 CURVE SMOOTH",
"383 786 OFFCURVE",
"414 812 OFFCURVE",
"414 852 CURVE SMOOTH",
"414 891 OFFCURVE",
"383 917 OFFCURVE",
"340 917 CURVE SMOOTH",
"297 917 OFFCURVE",
"266 891 OFFCURVE",
"266 852 CURVE SMOOTH"
);
},
{
closed = 1;
nodes = (
"363 890 OFFCURVE",
"381 875 OFFCURVE",
"381 852 CURVE SMOOTH",
"381 829 OFFCURVE",
"361 813 OFFCURVE",
"340 813 CURVE SMOOTH",
"317 813 OFFCURVE",
"300 830 OFFCURVE",
"300 852 CURVE SMOOTH",
"300 875 OFFCURVE",
"318 890 OFFCURVE",
"340 890 CURVE SMOOTH"
);
}
);
width = 679;
}
);
unicode = 00C5;
},
{
glyphname = ring;
layers = (
{
layerId = "D8D94703-76C4-4836-9DB2-440344724E35";
name = Regular;
paths = (
{
closed = 1;
nodes = (
"50 625 OFFCURVE",
"81 599 OFFCURVE",
"124 599 CURVE SMOOTH",
"167 599 OFFCURVE",
"198 625 OFFCURVE",
"198 665 CURVE SMOOTH",
"198 704 OFFCURVE",
"167 730 OFFCURVE",
"124 730 CURVE SMOOTH",
"81 730 OFFCURVE",
"50 704 OFFCURVE",
"50 665 CURVE SMOOTH"
);
},
{
closed = 1;
nodes = (
"147 703 OFFCURVE",
"165 688 OFFCURVE",
"165 665 CURVE SMOOTH",
"165 642 OFFCURVE",
"145 626 OFFCURVE",
"124 626 CURVE SMOOTH",
"101 626 OFFCURVE",
"84 643 OFFCURVE",
"84 665 CURVE SMOOTH",
"84 688 OFFCURVE",
"102 703 OFFCURVE",
"124 703 CURVE SMOOTH"
);
}
);
width = 248;
}
);
unicode = 02DA;
},
{
glyphname = Aringacute;
layers = (
{
layerId = "D8D94703-76C4-4836-9DB2-440344724E35";
name = Regular;
paths = (
{
closed = 1;
nodes = (
"437 918 LINE",
"365 918 LINE",
"328 813 LINE",
"291 809 OFFCURVE",
"266 784 OFFCURVE",
"266 749 CURVE SMOOTH",
"266 721 OFFCURVE",
"280 700 OFFCURVE",
"304 690 CURVE",
"15 0 LINE",
"89 0 LINE",
"180 222 LINE",
"499 222 LINE",
"591 0 LINE",
"666 0 LINE",
"377 690 LINE",
"399 701 OFFCURVE",
"414 722 OFFCURVE",
"414 749 CURVE SMOOTH",
"414 775 OFFCURVE",
"400 795 OFFCURVE",
"378 806 CURVE"
);
},
{
closed = 1;
nodes = (
"483 277 LINE",
"195 277 LINE",
"341 628 LINE"
);
},
{
closed = 1;
nodes = (
"363 787 OFFCURVE",
"381 772 OFFCURVE",
"381 749 CURVE SMOOTH",
"381 726 OFFCURVE",
"361 710 OFFCURVE",
"340 710 CURVE SMOOTH",
"317 710 OFFCURVE",
"300 727 OFFCURVE",
"300 749 CURVE SMOOTH",
"300 772 OFFCURVE",
"318 787 OFFCURVE",
"340 787 CURVE SMOOTH"
);
}
);
width = 679;
}
);
unicode = 01FA;
},
{
glyphname = Atilde;
layers = (
{
layerId = "D8D94703-76C4-4836-9DB2-440344724E35";
name = Regular;
paths = (
{
closed = 1;
nodes = (
"89 0 LINE",
"180 222 LINE",
"499 222 LINE",
"591 0 LINE",
"666 0 LINE",
"369 710 LINE",
"312 710 LINE",
"15 0 LINE"
);
},
{
closed = 1;
nodes = (
"483 277 LINE",
"195 277 LINE",
"341 628 LINE"
);
},
{
closed = 1;
nodes = (
"483 825 OFFCURVE",
"500 904 OFFCURVE",
"500 917 CURVE",
"458 917 LINE",
"458 913 OFFCURVE",
"453 868 OFFCURVE",
"401 868 CURVE SMOOTH",
"351 868 OFFCURVE",
"329 910 OFFCURVE",
"273 910 CURVE SMOOTH",
"198 910 OFFCURVE",
"182 831 OFFCURVE",
"182 817 CURVE",
"224 817 LINE",
"224 822 OFFCURVE",
"230 865 OFFCURVE",
"274 865 CURVE SMOOTH",
"316 865 OFFCURVE",
"342 825 OFFCURVE",
"402 825 CURVE SMOOTH"
);
}
);
width = 679;
}
);
unicode = 00C3;
},
{
glyphname = tilde;
layers = (
{
layerId = "D8D94703-76C4-4836-9DB2-440344724E35";
name = Regular;
paths = (
{
closed = 1;
nodes = (
"345 638 OFFCURVE",
"362 717 OFFCURVE",
"362 730 CURVE",
"320 730 LINE",
"320 726 OFFCURVE",
"315 681 OFFCURVE",
"263 681 CURVE SMOOTH",
"213 681 OFFCURVE",
"191 723 OFFCURVE",
"135 723 CURVE SMOOTH",
"60 723 OFFCURVE",
"44 644 OFFCURVE",
"44 630 CURVE",
"86 630 LINE",
"86 635 OFFCURVE",
"92 678 OFFCURVE",
"136 678 CURVE SMOOTH",
"178 678 OFFCURVE",
"204 638 OFFCURVE",
"264 638 CURVE SMOOTH"
);
}
);
width = 406;
}
);
unicode = 02DC;
},
{
glyphname = B;
layers = (
{
layerId = "D8D94703-76C4-4836-9DB2-440344724E35";
name = Regular;
paths = (
{
closed = 1;
nodes = (
"623 269 OFFCURVE",
"572 340 OFFCURVE",
"491 364 CURVE",
"555 393 OFFCURVE",
"593 458 OFFCURVE",
"593 529 CURVE SMOOTH",
"593 618 OFFCURVE",
"531 710 OFFCURVE",
"431 710 CURVE SMOOTH",
"90 710 LINE",
"90 0 LINE",
"424 0 LINE SMOOTH",
"533 0 OFFCURVE",
"623 77 OFFCURVE",
"623 183 CURVE SMOOTH"
);
},
{
closed = 1;
nodes = (
"553 125 OFFCURVE",
"497 61 OFFCURVE",
"424 61 CURVE SMOOTH",
"159 61 LINE",
"159 330 LINE",
"431 330 LINE SMOOTH",
"501 330 OFFCURVE",
"553 265 OFFCURVE",
"553 195 CURVE SMOOTH"
);
},
{
closed = 1;
nodes = (
"409 649 LINE SMOOTH",
"476 649 OFFCURVE",
"525 590 OFFCURVE",
"525 518 CURVE SMOOTH",
"525 449 OFFCURVE",
"473 387 OFFCURVE",
"403 387 CURVE SMOOTH",
"159 387 LINE",
"159 649 LINE"
);
}
);
width = 668;
}
);
unicode = 0042;
},
{
glyphname = B.sc;
layers = (
{
layerId = "D8D94703-76C4-4836-9DB2-440344724E35";
name = Regular;
paths = (
{
closed = 1;
nodes = (
"531 209 OFFCURVE",
"488 262 OFFCURVE",
"421 281 CURVE",
"474 303 OFFCURVE",
"505 353 OFFCURVE",
"505 408 CURVE SMOOTH",
"505 477 OFFCURVE",
"454 548 OFFCURVE",
"370 548 CURVE SMOOTH",
"81 548 LINE",
"81 0 LINE",
"362 0 LINE SMOOTH",
"455 0 OFFCURVE",
"531 58 OFFCURVE",
"531 141 CURVE SMOOTH"
);
},
{
closed = 1;
nodes = (
"468 101 OFFCURVE",
"421 54 OFFCURVE",
"362 54 CURVE SMOOTH",
"144 54 LINE",
"144 251 LINE",
"368 251 LINE SMOOTH",
"425 251 OFFCURVE",
"468 204 OFFCURVE",
"468 152 CURVE SMOOTH"
);
},
{
closed = 1;
nodes = (
"350 492 LINE SMOOTH",
"405 492 OFFCURVE",
"444 451 OFFCURVE",
"444 397 CURVE SMOOTH",
"444 346 OFFCURVE",
"402 302 OFFCURVE",
"345 302 CURVE SMOOTH",
"144 302 LINE",
"144 492 LINE"
);
}
);
width = 578;
}
);
},
{
glyphname = C;
layers = (
{
layerId = "D8D94703-76C4-4836-9DB2-440344724E35";
name = Regular;
paths = (
{
closed = 1;
nodes = (
"44 180 OFFCURVE",
"181 -6 OFFCURVE",
"376 -6 CURVE SMOOTH",
"485 -6 OFFCURVE",
"611 53 OFFCURVE",
"657 159 CURVE",
"599 189 LINE",
"554 97 OFFCURVE",
"460 57 OFFCURVE",
"380 57 CURVE SMOOTH",
"229 57 OFFCURVE",
"114 199 OFFCURVE",
"114 356 CURVE SMOOTH",
"114 499 OFFCURVE",
"207 651 OFFCURVE",
"377 651 CURVE SMOOTH",
"454 651 OFFCURVE",
"542 619 OFFCURVE",
"587 525 CURVE",
"643 559 LINE",
"599 650 OFFCURVE",
"507 714 OFFCURVE",
"381 714 CURVE SMOOTH",
"167 714 OFFCURVE",
"44 531 OFFCURVE",
"44 360 CURVE SMOOTH"
);
}
);
width = 689;
}
);
unicode = 0043;
},
{
glyphname = C.sc;
layers = (
{
layerId = "D8D94703-76C4-4836-9DB2-440344724E35";
name = Regular;
paths = (
{
closed = 1;
nodes = (
"45 138 OFFCURVE",
"160 -5 OFFCURVE",
"324 -5 CURVE SMOOTH",
"416 -5 OFFCURVE",
"522 41 OFFCURVE",
"562 122 CURVE",
"509 151 LINE",
"472 81 OFFCURVE",
"394 52 OFFCURVE",
"328 52 CURVE SMOOTH",
"202 52 OFFCURVE",
"108 157 OFFCURVE",
"108 275 CURVE SMOOTH",
"108 381 OFFCURVE",
"184 494 OFFCURVE",
"326 494 CURVE SMOOTH",
"390 494 OFFCURVE",
"462 471 OFFCURVE",
"500 399 CURVE",
"550 431 LINE",
"513 501 OFFCURVE",
"435 551 OFFCURVE",
"329 551 CURVE SMOOTH",
"148 551 OFFCURVE",
"45 410 OFFCURVE",
"45 278 CURVE SMOOTH"
);
}
);
width = 598;
}
);
},
{
glyphname = Cacute;
layers = (
{
layerId = "D8D94703-76C4-4836-9DB2-440344724E35";
name = Regular;
paths = (
{
closed = 1;
nodes = (
"472 917 LINE",
"400 917 LINE",
"341 824 LINE",
"386 807 LINE"
);
},
{
closed = 1;
nodes = (
"44 180 OFFCURVE",
"181 -6 OFFCURVE",
"376 -6 CURVE SMOOTH",
"485 -6 OFFCURVE",
"611 53 OFFCURVE",
"657 159 CURVE",
"599 189 LINE",
"554 97 OFFCURVE",
"460 57 OFFCURVE",
"380 57 CURVE SMOOTH",
"229 57 OFFCURVE",
"114 199 OFFCURVE",
"114 356 CURVE SMOOTH",
"114 499 OFFCURVE",
"207 651 OFFCURVE",
"377 651 CURVE SMOOTH",
"454 651 OFFCURVE",
"542 619 OFFCURVE",
"587 525 CURVE",
"643 559 LINE",
"599 650 OFFCURVE",
"507 714 OFFCURVE",
"381 714 CURVE SMOOTH",
"167 714 OFFCURVE",
"44 531 OFFCURVE",
"44 360 CURVE SMOOTH"
);
}
);
width = 689;
}
);
unicode = 0106;
},
{
glyphname = Ccaron;
layers = (
{
layerId = "D8D94703-76C4-4836-9DB2-440344724E35";
name = Regular;
paths = (
{
closed = 1;
nodes = (
"256 897 LINE",
"354 811 LINE",
"404 811 LINE",
"503 897 LINE",
"464 917 LINE",
"379 854 LINE",
"294 917 LINE"
);
},
{
closed = 1;
nodes = (
"44 180 OFFCURVE",
"181 -6 OFFCURVE",
"376 -6 CURVE SMOOTH",
"485 -6 OFFCURVE",
"611 53 OFFCURVE",
"657 159 CURVE",
"599 189 LINE",
"554 97 OFFCURVE",
"460 57 OFFCURVE",
"380 57 CURVE SMOOTH",
"229 57 OFFCURVE",
"114 199 OFFCURVE",
"114 356 CURVE SMOOTH",
"114 499 OFFCURVE",
"207 651 OFFCURVE",
"377 651 CURVE SMOOTH",
"454 651 OFFCURVE",
"542 619 OFFCURVE",
"587 525 CURVE",
"643 559 LINE",
"599 650 OFFCURVE",
"507 714 OFFCURVE",
"381 714 CURVE SMOOTH",
"167 714 OFFCURVE",
"44 531 OFFCURVE",
"44 360 CURVE SMOOTH"
);
}
);
width = 689;
}
);
unicode = 010C;
},
{
glyphname = caron;
layers = (
{
layerId = "D8D94703-76C4-4836-9DB2-440344724E35";
name = Regular;
paths = (
{
closed = 1;
nodes = (
"42 710 LINE",
"140 624 LINE",
"190 624 LINE",
"289 710 LINE",
"250 730 LINE",
"165 667 LINE",
"80 730 LINE"
);
}
);
width = 330;
}
);
unicode = 02C7;
},
{
glyphname = Ccedilla;
layers = (
{
layerId = "D8D94703-76C4-4836-9DB2-440344724E35";
name = Regular;
paths = (
{
closed = 1;
nodes = (
"283 -157 LINE",
"309 -167 OFFCURVE",
"344 -176 OFFCURVE",
"382 -176 CURVE SMOOTH",
"448 -176 OFFCURVE",
"484 -151 OFFCURVE",
"484 -106 CURVE SMOOTH",
"484 -66 OFFCURVE",
"454 -45 OFFCURVE",
"408 -45 CURVE SMOOTH",
"398 -45 OFFCURVE",
"382 -46 OFFCURVE",
"370 -51 CURVE",
"398 -5 LINE",
"502 2 OFFCURVE",
"615 60 OFFCURVE",
"658 159 CURVE",
"600 189 LINE",
"555 97 OFFCURVE",
"461 57 OFFCURVE",
"381 57 CURVE SMOOTH",
"230 57 OFFCURVE",
"115 199 OFFCURVE",
"115 356 CURVE SMOOTH",
"115 499 OFFCURVE",
"208 651 OFFCURVE",
"378 651 CURVE SMOOTH",
"455 651 OFFCURVE",
"543 619 OFFCURVE",
"588 525 CURVE",
"644 559 LINE",
"600 650 OFFCURVE",
"508 714 OFFCURVE",
"382 714 CURVE SMOOTH",
"168 714 OFFCURVE",
"45 531 OFFCURVE",
"45 360 CURVE SMOOTH",
"45 185 OFFCURVE",
"174 5 OFFCURVE",
"359 -5 CURVE",
"315 -87 LINE",
"332 -81 OFFCURVE",
"367 -73 OFFCURVE",
"395 -73 CURVE SMOOTH",
"425 -73 OFFCURVE",
"445 -82 OFFCURVE",
"445 -109 CURVE SMOOTH",
"445 -134 OFFCURVE",
"425 -144 OFFCURVE",
"388 -144 CURVE SMOOTH",
"353 -144 OFFCURVE",
"318 -135 OFFCURVE",
"300 -126 CURVE"
);
}
);
width = 690;
}
);
unicode = 00C7;
},
{
glyphname = cedilla;
layers = (
{
layerId = "D8D94703-76C4-4836-9DB2-440344724E35";
name = Regular;
paths = (
{
closed = 1;
nodes = (
"22 -157 LINE",
"48 -167 OFFCURVE",
"83 -176 OFFCURVE",
"121 -176 CURVE SMOOTH",
"187 -176 OFFCURVE",
"223 -151 OFFCURVE",
"223 -106 CURVE SMOOTH",
"223 -66 OFFCURVE",
"193 -45 OFFCURVE",
"147 -45 CURVE SMOOTH",
"137 -45 OFFCURVE",
"121 -46 OFFCURVE",
"109 -51 CURVE",
"144 5 LINE",
"111 18 LINE",
"54 -87 LINE",
"71 -81 OFFCURVE",
"106 -73 OFFCURVE",
"134 -73 CURVE SMOOTH",
"164 -73 OFFCURVE",
"184 -82 OFFCURVE",
"184 -109 CURVE SMOOTH",
"184 -134 OFFCURVE",
"164 -144 OFFCURVE",
"127 -144 CURVE SMOOTH",
"92 -144 OFFCURVE",
"57 -135 OFFCURVE",
"39 -126 CURVE"
);
}
);
width = 283;
}
);
unicode = 00B8;
},
{
glyphname = Ccircumflex;
layers = (
{
layerId = "D8D94703-76C4-4836-9DB2-440344724E35";
name = Regular;
paths = (
{
closed = 1;
nodes = (
"294 811 LINE",
"379 874 LINE",
"464 811 LINE",
"503 832 LINE",
"404 917 LINE",
"354 917 LINE",
"256 832 LINE"
);
},
{
closed = 1;
nodes = (
"44 180 OFFCURVE",
"181 -6 OFFCURVE",
"376 -6 CURVE SMOOTH",
"485 -6 OFFCURVE",
"611 53 OFFCURVE",
"657 159 CURVE",
"599 189 LINE",
"554 97 OFFCURVE",
"460 57 OFFCURVE",
"380 57 CURVE SMOOTH",
"229 57 OFFCURVE",
"114 199 OFFCURVE",
"114 356 CURVE SMOOTH",
"114 499 OFFCURVE",
"207 651 OFFCURVE",
"377 651 CURVE SMOOTH",
"454 651 OFFCURVE",
"542 619 OFFCURVE",
"587 525 CURVE",
"643 559 LINE",
"599 650 OFFCURVE",
"507 714 OFFCURVE",
"381 714 CURVE SMOOTH",
"167 714 OFFCURVE",
"44 531 OFFCURVE",
"44 360 CURVE SMOOTH"
);
}
);
width = 689;
}
);
unicode = 0108;
},
{
glyphname = Cdotaccent;
layers = (
{
layerId = "D8D94703-76C4-4836-9DB2-440344724E35";
name = Regular;
paths = (
{
closed = 1;
nodes = (
"44 180 OFFCURVE",
"181 -6 OFFCURVE",
"376 -6 CURVE SMOOTH",
"485 -6 OFFCURVE",
"611 53 OFFCURVE",
"657 159 CURVE",
"599 189 LINE",
"554 97 OFFCURVE",
"460 57 OFFCURVE",
"380 57 CURVE SMOOTH",
"229 57 OFFCURVE",
"114 199 OFFCURVE",
"114 356 CURVE SMOOTH",
"114 499 OFFCURVE",
"207 651 OFFCURVE",
"377 651 CURVE SMOOTH",
"454 651 OFFCURVE",
"542 619 OFFCURVE",
"587 525 CURVE",
"643 559 LINE",
"599 650 OFFCURVE",
"507 714 OFFCURVE",
"381 714 CURVE SMOOTH",
"167 714 OFFCURVE",
"44 531 OFFCURVE",
"44 360 CURVE SMOOTH"
);
},
{
closed = 1;
nodes = (
"410 820 LINE",
"410 917 LINE",
"348 917 LINE",
"348 820 LINE"
);
}
);
width = 689;
}
);
unicode = 010A;
},
{
glyphname = dotaccent;
layers = (
{
layerId = "D8D94703-76C4-4836-9DB2-440344724E35";
name = Regular;
paths = (
{
closed = 1;
nodes = (
"112 633 LINE",
"112 730 LINE",
"50 730 LINE",
"50 633 LINE"
);
}
);
width = 162;
}
);
unicode = 02D9;
},
{
glyphname = D;
layers = (
{
layerId = "D8D94703-76C4-4836-9DB2-440344724E35";
name = Regular;
paths = (
{
closed = 1;
nodes = (
"330 0 LINE SMOOTH",
"538 0 OFFCURVE",
"670 141 OFFCURVE",
"670 356 CURVE SMOOTH",
"670 552 OFFCURVE",
"557 710 OFFCURVE",
"330 710 CURVE SMOOTH",
"90 710 LINE",
"90 0 LINE"
);
},
{
closed = 1;
nodes = (
"600 189 OFFCURVE",
"507 62 OFFCURVE",
"330 62 CURVE SMOOTH",
"159 62 LINE",
"159 648 LINE",
"330 648 LINE SMOOTH",
"503 648 OFFCURVE",
"600 526 OFFCURVE",
"600 356 CURVE SMOOTH"
);
}
);
width = 718;
}
);
unicode = 0044;
},
{
glyphname = D.sc;
layers = (
{
layerId = "D8D94703-76C4-4836-9DB2-440344724E35";
name = Regular;
paths = (
{
closed = 1;
nodes = (
"286 0 LINE SMOOTH",
"460 0 OFFCURVE",
"573 108 OFFCURVE",
"573 275 CURVE SMOOTH",
"573 426 OFFCURVE",
"476 548 OFFCURVE",
"286 548 CURVE SMOOTH",
"81 548 LINE",
"81 0 LINE"
);
},
{
closed = 1;
nodes = (
"509 150 OFFCURVE",
"432 56 OFFCURVE",
"286 56 CURVE SMOOTH",
"144 56 LINE",
"144 492 LINE",
"286 492 LINE SMOOTH",
"429 492 OFFCURVE",
"509 402 OFFCURVE",
"509 275 CURVE SMOOTH"
);
}
);
width = 619;
}
);
},
{
glyphname = Dcaron;
layers = (
{
layerId = "D8D94703-76C4-4836-9DB2-440344724E35";
name = Regular;
paths = (
{
closed = 1;
nodes = (
"221 897 LINE",
"319 811 LINE",
"369 811 LINE",
"468 897 LINE",
"429 917 LINE",
"344 854 LINE",
"259 917 LINE"
);
},
{
closed = 1;
nodes = (
"330 0 LINE SMOOTH",
"538 0 OFFCURVE",
"670 141 OFFCURVE",
"670 356 CURVE SMOOTH",
"670 552 OFFCURVE",
"557 710 OFFCURVE",
"330 710 CURVE SMOOTH",
"90 710 LINE",
"90 0 LINE"
);
},
{
closed = 1;
nodes = (
"600 189 OFFCURVE",
"507 62 OFFCURVE",
"330 62 CURVE SMOOTH",
"159 62 LINE",
"159 648 LINE",
"330 648 LINE SMOOTH",
"503 648 OFFCURVE",
"600 526 OFFCURVE",
"600 356 CURVE SMOOTH"
);
}
);
width = 718;
}
);
unicode = 010E;
},
{
glyphname = Dcroat;
layers = (
{
layerId = "D8D94703-76C4-4836-9DB2-440344724E35";
name = Regular;
paths = (
{
closed = 1;
nodes = (
"335 0 LINE SMOOTH",
"543 0 OFFCURVE",
"675 141 OFFCURVE",
"675 356 CURVE SMOOTH",
"675 552 OFFCURVE",
"562 710 OFFCURVE",
"335 710 CURVE SMOOTH",
"95 710 LINE",
"95 384 LINE",
"34 384 LINE",
"34 330 LINE",
"95 330 LINE",
"95 0 LINE"
);
},
{
closed = 1;
nodes = (
"605 189 OFFCURVE",
"512 62 OFFCURVE",
"335 62 CURVE SMOOTH",
"164 62 LINE",
"164 330 LINE",
"335 330 LINE",
"335 384 LINE",
"164 384 LINE",
"164 648 LINE",
"335 648 LINE SMOOTH",
"508 648 OFFCURVE",
"605 526 OFFCURVE",
"605 356 CURVE SMOOTH"
);
}
);
width = 723;
}
);
unicode = 0110;
},
{
glyphname = E;
layers = (
{
layerId = "D8D94703-76C4-4836-9DB2-440344724E35";
name = Regular;
paths = (
{
closed = 1;
nodes = (
"159 62 LINE",
"159 333 LINE",
"507 333 LINE",
"507 392 LINE",
"159 392 LINE",
"159 648 LINE",
"558 648 LINE",
"558 710 LINE",
"90 710 LINE",
"90 0 LINE",
"567 0 LINE",
"567 62 LINE"
);
}
);
width = 613;
}
);
unicode = 0045;
},
{
glyphname = E.sc;
layers = (
{
layerId = "D8D94703-76C4-4836-9DB2-440344724E35";
name = Regular;
paths = (
{
closed = 1;
nodes = (
"144 56 LINE",
"144 253 LINE",
"435 253 LINE",
"435 305 LINE",
"144 305 LINE",
"144 492 LINE",
"477 492 LINE",
"477 548 LINE",
"81 548 LINE",
"81 0 LINE",
"485 0 LINE",
"485 56 LINE"
);
}
);
width = 533;
}
);
},
{
glyphname = Eacute;
layers = (
{
layerId = "D8D94703-76C4-4836-9DB2-440344724E35";
name = Regular;
paths = (
{
closed = 1;
nodes = (
"430 917 LINE",
"358 917 LINE",
"299 824 LINE",
"344 807 LINE"
);
},
{
closed = 1;
nodes = (
"159 62 LINE",
"159 333 LINE",
"507 333 LINE",
"507 392 LINE",
"159 392 LINE",
"159 648 LINE",
"558 648 LINE",
"558 710 LINE",
"90 710 LINE",
"90 0 LINE",
"567 0 LINE",
"567 62 LINE"
);
}
);
width = 613;
}
);
unicode = 00C9;
},
{
glyphname = Ebreve;
layers = (
{
layerId = "D8D94703-76C4-4836-9DB2-440344724E35";
name = Regular;
paths = (
{
closed = 1;
nodes = (
"159 62 LINE",
"159 333 LINE",
"507 333 LINE",
"507 392 LINE",
"159 392 LINE",
"159 648 LINE",
"558 648 LINE",
"558 710 LINE",
"90 710 LINE",
"90 0 LINE",
"567 0 LINE",
"567 62 LINE"
);
},
{
closed = 1;
nodes = (
"309 851 OFFCURVE",
"282 883 OFFCURVE",
"282 917 CURVE",
"240 917 LINE",
"240 860 OFFCURVE",
"283 816 OFFCURVE",
"338 816 CURVE SMOOTH",
"392 816 OFFCURVE",
"436 860 OFFCURVE",
"436 917 CURVE",
"395 917 LINE",
"391 880 OFFCURVE",
"366 851 OFFCURVE",
"338 851 CURVE SMOOTH"
);
}
);
width = 613;
}
);
unicode = 0114;
},
{
glyphname = Ecaron;
layers = (
{
layerId = "D8D94703-76C4-4836-9DB2-440344724E35";
name = Regular;
paths = (
{
closed = 1;
nodes = (
"214 897 LINE",
"312 811 LINE",
"362 811 LINE",
"461 897 LINE",
"422 917 LINE",
"337 854 LINE",
"252 917 LINE"
);
},
{
closed = 1;
nodes = (
"159 62 LINE",
"159 333 LINE",
"507 333 LINE",
"507 392 LINE",
"159 392 LINE",
"159 648 LINE",
"558 648 LINE",
"558 710 LINE",
"90 710 LINE",
"90 0 LINE",
"567 0 LINE",
"567 62 LINE"
);
}
);
width = 613;
}
);
unicode = 011A;
},
{
glyphname = Ecircumflex;
layers = (
{
layerId = "D8D94703-76C4-4836-9DB2-440344724E35";
name = Regular;
paths = (
{
closed = 1;
nodes = (
"252 811 LINE",
"337 874 LINE",
"422 811 LINE",
"461 832 LINE",
"362 917 LINE",
"312 917 LINE",
"214 832 LINE"
);
},
{
closed = 1;
nodes = (
"159 62 LINE",
"159 333 LINE",
"507 333 LINE",
"507 392 LINE",
"159 392 LINE",
"159 648 LINE",
"558 648 LINE",
"558 710 LINE",
"90 710 LINE",
"90 0 LINE",
"567 0 LINE",
"567 62 LINE"
);
}
);
width = 613;
}
);
unicode = 00CA;
},
{
glyphname = Edieresis;
layers = (
{
layerId = "D8D94703-76C4-4836-9DB2-440344724E35";
name = Regular;
paths = (
{
closed = 1;
nodes = (
"292 820 LINE",
"292 914 LINE",
"234 914 LINE",
"234 820 LINE"
);
},
{
closed = 1;
nodes = (
"441 820 LINE",
"441 914 LINE",
"383 914 LINE",
"383 820 LINE"
);
},
{
closed = 1;
nodes = (
"159 62 LINE",
"159 333 LINE",
"507 333 LINE",
"507 392 LINE",
"159 392 LINE",
"159 648 LINE",
"558 648 LINE",
"558 710 LINE",
"90 710 LINE",
"90 0 LINE",
"567 0 LINE",
"567 62 LINE"
);
}
);
width = 613;
}
);
unicode = 00CB;
},
{
glyphname = Edotaccent;
layers = (
{
layerId = "D8D94703-76C4-4836-9DB2-440344724E35";
name = Regular;
paths = (
{
closed = 1;
nodes = (
"159 62 LINE",
"159 333 LINE",
"507 333 LINE",
"507 392 LINE",
"159 392 LINE",
"159 648 LINE",
"558 648 LINE",
"558 710 LINE",
"90 710 LINE",
"90 0 LINE",
"567 0 LINE",
"567 62 LINE"
);
},
{
closed = 1;
nodes = (
"368 820 LINE",
"368 917 LINE",
"306 917 LINE",
"306 820 LINE"
);
}
);
width = 613;
}
);
unicode = 0116;
},
{
glyphname = Egrave;
layers = (
{
layerId = "D8D94703-76C4-4836-9DB2-440344724E35";
name = Regular;
paths = (
{
closed = 1;
nodes = (
"159 62 LINE",
"159 333 LINE",
"507 333 LINE",
"507 392 LINE",
"159 392 LINE",
"159 648 LINE",
"558 648 LINE",
"558 710 LINE",
"90 710 LINE",
"90 0 LINE",
"567 0 LINE",
"567 62 LINE"
);
},
{
closed = 1;
nodes = (
"332 807 LINE",
"376 824 LINE",
"316 917 LINE",
"245 917 LINE"
);
}
);
width = 613;
}
);
unicode = 00C8;
},
{
glyphname = Emacron;
layers = (
{
layerId = "D8D94703-76C4-4836-9DB2-440344724E35";
name = Regular;
paths = (
{
closed = 1;
nodes = (
"159 62 LINE",
"159 333 LINE",
"507 333 LINE",
"507 392 LINE",
"159 392 LINE",
"159 648 LINE",
"558 648 LINE",
"558 710 LINE",
"90 710 LINE",
"90 0 LINE",
"567 0 LINE",
"567 62 LINE"
);
},
{
closed = 1;
nodes = (
"483 850 LINE",
"483 897 LINE",
"194 897 LINE",
"194 850 LINE"
);
}
);
width = 613;
}
);
unicode = 0112;
},
{
glyphname = Eng;
layers = (
{
layerId = "D8D94703-76C4-4836-9DB2-440344724E35";
name = Regular;
paths = (
{
closed = 1;
nodes = (
"610 9 LINE",
"610 -27 LINE SMOOTH",
"610 -80 OFFCURVE",
"563 -120 OFFCURVE",
"516 -120 CURVE SMOOTH",
"491 -120 OFFCURVE",
"463 -115 OFFCURVE",
"444 -96 CURVE",
"410 -142 LINE",
"440 -170 OFFCURVE",
"480 -181 OFFCURVE",
"523 -181 CURVE SMOOTH",
"601 -181 OFFCURVE",
"678 -117 OFFCURVE",
"678 -25 CURVE SMOOTH",
"678 709 LINE",
"608 709 LINE",
"608 122 LINE",
"143 710 LINE",
"90 710 LINE",
"90 0 LINE",
"159 0 LINE",
"159 579 LINE"
);
}
);
width = 767;
}
);
unicode = 014A;
},
{
glyphname = Eogonek;
layers = (
{
layerId = "D8D94703-76C4-4836-9DB2-440344724E35";
name = Regular;
paths = (
{
closed = 1;
nodes = (
"159 62 LINE",
"159 333 LINE",
"507 333 LINE",
"507 392 LINE",
"159 392 LINE",
"159 648 LINE",
"558 648 LINE",
"558 710 LINE",
"90 710 LINE",
"90 0 LINE",
"309 0 LINE",
"257 -36 OFFCURVE",
"234 -69 OFFCURVE",
"234 -102 CURVE SMOOTH",
"234 -137 OFFCURVE",
"260 -165 OFFCURVE",
"309 -175 CURVE",
"328 -137 LINE",
"293 -132 OFFCURVE",
"276 -117 OFFCURVE",
"276 -93 CURVE SMOOTH",
"276 -64 OFFCURVE",
"299 -37 OFFCURVE",
"358 0 CURVE",
"567 0 LINE",
"567 62 LINE"
);
}
);
width = 613;
}
);
unicode = 0118;
},
{
glyphname = Eth;
layers = (
{
layerId = "D8D94703-76C4-4836-9DB2-440344724E35";
name = Regular;
paths = (
{
closed = 1;
nodes = (
"335 0 LINE SMOOTH",
"543 0 OFFCURVE",
"675 141 OFFCURVE",
"675 356 CURVE SMOOTH",
"675 552 OFFCURVE",
"562 710 OFFCURVE",
"335 710 CURVE SMOOTH",
"95 710 LINE",
"95 384 LINE",
"34 384 LINE",
"34 330 LINE",
"95 330 LINE",
"95 0 LINE"
);
},
{
closed = 1;
nodes = (
"605 189 OFFCURVE",
"512 62 OFFCURVE",
"335 62 CURVE SMOOTH",
"164 62 LINE",
"164 330 LINE",
"335 330 LINE",
"335 384 LINE",
"164 384 LINE",
"164 648 LINE",
"335 648 LINE SMOOTH",
"508 648 OFFCURVE",
"605 526 OFFCURVE",
"605 356 CURVE SMOOTH"
);
}
);
width = 723;
}
);
unicode = 00D0;
},
{
glyphname = Etilde;
layers = (
{
layerId = "D8D94703-76C4-4836-9DB2-440344724E35";
name = Regular;
paths = (
{
closed = 1;
nodes = (
"159 62 LINE",
"159 333 LINE",
"507 333 LINE",
"507 392 LINE",
"159 392 LINE",
"159 648 LINE",
"558 648 LINE",
"558 710 LINE",
"90 710 LINE",
"90 0 LINE",
"567 0 LINE",
"567 62 LINE"
);
},
{
closed = 1;
nodes = (
"480 825 OFFCURVE",
"497 904 OFFCURVE",
"497 917 CURVE",
"455 917 LINE",
"455 913 OFFCURVE",
"450 868 OFFCURVE",
"398 868 CURVE SMOOTH",
"348 868 OFFCURVE",
"326 910 OFFCURVE",
"270 910 CURVE SMOOTH",
"195 910 OFFCURVE",
"179 831 OFFCURVE",
"179 817 CURVE",
"221 817 LINE",
"221 822 OFFCURVE",
"227 865 OFFCURVE",
"271 865 CURVE SMOOTH",
"313 865 OFFCURVE",
"339 825 OFFCURVE",
"399 825 CURVE SMOOTH"
);
}
);
width = 613;
}
);
unicode = 1EBC;
},
{
glyphname = Euro;
layers = (
{
layerId = "D8D94703-76C4-4836-9DB2-440344724E35";
name = Regular;
paths = (
{
closed = 1;
nodes = (
"81 416 LINE",
"63 373 LINE",
"137 373 LINE",
"137 343 OFFCURVE",
"138 327 OFFCURVE",
"140 311 CURVE",
"52 311 LINE",
"34 268 LINE",
"148 268 LINE",
"185 122 OFFCURVE",
"307 -6 OFFCURVE",
"469 -6 CURVE SMOOTH",
"578 -6 OFFCURVE",
"704 53 OFFCURVE",
"750 159 CURVE",
"692 189 LINE",
"647 97 OFFCURVE",
"553 57 OFFCURVE",
"473 57 CURVE SMOOTH",
"351 57 OFFCURVE",
"252 149 OFFCURVE",
"219 268 CURVE",
"495 268 LINE",
"514 311 LINE",
"210 311 LINE",
"208 326 OFFCURVE",
"207 341 OFFCURVE",
"207 373 CURVE",
"532 373 LINE",
"550 416 LINE",
"212 416 LINE",
"234 538 OFFCURVE",
"323 651 OFFCURVE",
"470 651 CURVE SMOOTH",
"547 651 OFFCURVE",
"635 619 OFFCURVE",
"680 525 CURVE",
"736 559 LINE",
"692 650 OFFCURVE",
"600 714 OFFCURVE",
"474 714 CURVE SMOOTH",
"283 714 OFFCURVE",
"164 568 OFFCURVE",
"141 416 CURVE"
);
}
);
width = 803;
}
);
unicode = 20AC;
},
{
glyphname = F;
layers = (
{
layerId = "D8D94703-76C4-4836-9DB2-440344724E35";
name = Regular;
paths = (
{
closed = 1;
nodes = (
"159 0 LINE",
"159 329 LINE",
"494 329 LINE",
"494 387 LINE",
"159 387 LINE",
"159 648 LINE",
"555 648 LINE",
"555 710 LINE",
"90 710 LINE",
"90 0 LINE"
);
}
);
width = 585;
}
);
unicode = 0046;
},
{
glyphname = F.sc;
layers = (
{
layerId = "D8D94703-76C4-4836-9DB2-440344724E35";
name = Regular;
paths = (
{
closed = 1;
nodes = (
"144 0 LINE",
"144 248 LINE",
"423 248 LINE",
"423 302 LINE",
"144 302 LINE",
"144 492 LINE",
"474 492 LINE",
"474 548 LINE",
"81 548 LINE",
"81 0 LINE"
);
}
);
width = 507;
}
);
},
{
glyphname = G;
layers = (
{
layerId = "D8D94703-76C4-4836-9DB2-440344724E35";
name = Regular;
paths = (
{
closed = 1;
nodes = (
"604 0 LINE",
"664 0 LINE",
"664 349 LINE",
"447 349 LINE",
"447 295 LINE",
"604 295 LINE",
"604 176 LINE",
"536 95 OFFCURVE",
"463 58 OFFCURVE",
"382 58 CURVE SMOOTH",
"231 58 OFFCURVE",
"115 195 OFFCURVE",
"115 355 CURVE SMOOTH",
"115 506 OFFCURVE",
"214 652 OFFCURVE",
"372 652 CURVE SMOOTH",
"466 652 OFFCURVE",
"544 612 OFFCURVE",
"590 524 CURVE",
"644 560 LINE",
"598 651 OFFCURVE",
"513 715 OFFCURVE",
"373 715 CURVE SMOOTH",
"183 715 OFFCURVE",
"45 546 OFFCURVE",
"45 356 CURVE SMOOTH",
"45 176 OFFCURVE",
"186 -5 OFFCURVE",
"377 -5 CURVE SMOOTH",
"462 -5 OFFCURVE",
"538 31 OFFCURVE",
"604 103 CURVE"
);
}
);
width = 722;
}
);
unicode = 0047;
},
{
glyphname = G.alt;
layers = (
{
layerId = "D8D94703-76C4-4836-9DB2-440344724E35";
name = Regular;
paths = (
{
closed = 1;
nodes = (
"561 -5 OFFCURVE",
"690 142 OFFCURVE",
"706 308 CURVE",
"706 315 OFFCURVE",
"707 344 OFFCURVE",
"707 349 CURVE",
"424 349 LINE",
"424 286 LINE",
"632 286 LINE",
"612 169 OFFCURVE",
"514 58 OFFCURVE",
"378 58 CURVE SMOOTH",
"219 58 OFFCURVE",
"115 206 OFFCURVE",
"115 354 CURVE SMOOTH",
"115 502 OFFCURVE",
"217 652 OFFCURVE",
"377 652 CURVE SMOOTH",
"481 652 OFFCURVE",
"557 585 OFFCURVE",
"598 517 CURVE",
"652 562 LINE",
"596 653 OFFCURVE",
"500 715 OFFCURVE",
"381 715 CURVE SMOOTH",
"184 715 OFFCURVE",
"45 543 OFFCURVE",
"45 357 CURVE SMOOTH",
"45 172 OFFCURVE",
"185 -5 OFFCURVE",
"382 -5 CURVE SMOOTH"
);
}
);
width = 735;
}
);
},
{
glyphname = G.sc;
layers = (
{
layerId = "D8D94703-76C4-4836-9DB2-440344724E35";
name = Regular;
paths = (
{
closed = 1;
nodes = (
"511 0 LINE",
"565 0 LINE",
"565 271 LINE",
"380 271 LINE",
"380 223 LINE",
"511 223 LINE",
"511 141 LINE",
"455 81 OFFCURVE",
"394 53 OFFCURVE",
"327 53 CURVE SMOOTH",
"204 53 OFFCURVE",
"108 154 OFFCURVE",
"108 274 CURVE SMOOTH",
"108 387 OFFCURVE",
"190 495 OFFCURVE",
"319 495 CURVE SMOOTH",
"396 495 OFFCURVE",
"462 465 OFFCURVE",
"499 399 CURVE",
"548 432 LINE",
"510 502 OFFCURVE",
"437 551 OFFCURVE",
"321 551 CURVE SMOOTH",
"161 551 OFFCURVE",
"45 422 OFFCURVE",
"45 276 CURVE SMOOTH",
"45 135 OFFCURVE",
"163 -4 OFFCURVE",
"323 -4 CURVE SMOOTH",
"394 -4 OFFCURVE",
"456 22 OFFCURVE",
"511 76 CURVE"
);
}
);
width = 620;
}
);
},
{
glyphname = Gbreve;
layers = (
{
layerId = "D8D94703-76C4-4836-9DB2-440344724E35";
name = Regular;
paths = (
{
closed = 1;
nodes = (
"604 0 LINE",
"664 0 LINE",
"664 349 LINE",
"447 349 LINE",
"447 295 LINE",
"604 295 LINE",
"604 176 LINE",
"536 95 OFFCURVE",
"463 58 OFFCURVE",
"382 58 CURVE SMOOTH",
"231 58 OFFCURVE",
"115 195 OFFCURVE",
"115 355 CURVE SMOOTH",
"115 506 OFFCURVE",
"214 652 OFFCURVE",
"372 652 CURVE SMOOTH",
"466 652 OFFCURVE",
"544 612 OFFCURVE",
"590 524 CURVE",
"644 560 LINE",
"598 651 OFFCURVE",
"513 715 OFFCURVE",
"373 715 CURVE SMOOTH",
"183 715 OFFCURVE",
"45 546 OFFCURVE",
"45 356 CURVE SMOOTH",
"45 176 OFFCURVE",
"186 -5 OFFCURVE",
"377 -5 CURVE SMOOTH",
"462 -5 OFFCURVE",
"538 31 OFFCURVE",
"604 103 CURVE"
);
},
{
closed = 1;
nodes = (
"343 851 OFFCURVE",
"316 883 OFFCURVE",
"316 917 CURVE",
"274 917 LINE",
"274 860 OFFCURVE",
"317 816 OFFCURVE",
"372 816 CURVE SMOOTH",
"426 816 OFFCURVE",
"470 860 OFFCURVE",
"470 917 CURVE",
"429 917 LINE",
"425 880 OFFCURVE",
"400 851 OFFCURVE",
"372 851 CURVE SMOOTH"
);
}
);
width = 722;
}
);
unicode = 011E;
},
{
glyphname = Gcircumflex;
layers = (
{
layerId = "D8D94703-76C4-4836-9DB2-440344724E35";
name = Regular;
paths = (
{
closed = 1;
nodes = (
"287 811 LINE",
"372 874 LINE",
"457 811 LINE",
"496 832 LINE",
"397 917 LINE",
"347 917 LINE",
"249 832 LINE"
);
},
{
closed = 1;
nodes = (
"604 0 LINE",
"664 0 LINE",
"664 349 LINE",
"447 349 LINE",
"447 295 LINE",
"604 295 LINE",
"604 176 LINE",
"536 95 OFFCURVE",
"463 58 OFFCURVE",
"382 58 CURVE SMOOTH",
"231 58 OFFCURVE",
"115 195 OFFCURVE",
"115 355 CURVE SMOOTH",
"115 506 OFFCURVE",
"214 652 OFFCURVE",
"372 652 CURVE SMOOTH",
"466 652 OFFCURVE",
"544 612 OFFCURVE",
"590 524 CURVE",
"644 560 LINE",
"598 651 OFFCURVE",
"513 715 OFFCURVE",
"373 715 CURVE SMOOTH",
"183 715 OFFCURVE",
"45 546 OFFCURVE",
"45 356 CURVE SMOOTH",
"45 176 OFFCURVE",
"186 -5 OFFCURVE",
"377 -5 CURVE SMOOTH",
"462 -5 OFFCURVE",
"538 31 OFFCURVE",
"604 103 CURVE"
);
}
);
width = 722;
}
);
unicode = 011C;
},
{
glyphname = Gcommaaccent;
layers = (
{
layerId = "D8D94703-76C4-4836-9DB2-440344724E35";
name = Regular;
paths = (
{
closed = 1;
nodes = (
"329 -165 LINE",
"375 -165 OFFCURVE",
"408 -154 OFFCURVE",
"408 -113 CURVE SMOOTH",
"408 -49 LINE",
"350 -49 LINE",
"350 -113 LINE SMOOTH",
"350 -126 OFFCURVE",
"344 -131 OFFCURVE",
"329 -131 CURVE"
);
},
{
closed = 1;
nodes = (
"604 0 LINE",
"664 0 LINE",
"664 349 LINE",
"447 349 LINE",
"447 295 LINE",
"604 295 LINE",
"604 176 LINE",
"536 95 OFFCURVE",
"463 58 OFFCURVE",
"382 58 CURVE SMOOTH",
"231 58 OFFCURVE",
"115 195 OFFCURVE",
"115 355 CURVE SMOOTH",
"115 506 OFFCURVE",
"214 652 OFFCURVE",
"372 652 CURVE SMOOTH",
"466 652 OFFCURVE",
"544 612 OFFCURVE",
"590 524 CURVE",
"644 560 LINE",
"598 651 OFFCURVE",
"513 715 OFFCURVE",
"373 715 CURVE SMOOTH",
"183 715 OFFCURVE",
"45 546 OFFCURVE",
"45 356 CURVE SMOOTH",
"45 176 OFFCURVE",
"186 -5 OFFCURVE",
"377 -5 CURVE SMOOTH",
"462 -5 OFFCURVE",
"538 31 OFFCURVE",
"604 103 CURVE"
);
}
);
width = 722;
}
);
unicode = 0122;
},
{
glyphname = commaaccent;
layers = (
{
layerId = "D8D94703-76C4-4836-9DB2-440344724E35";
name = Regular;
paths = (
{
closed = 1;
nodes = (
"41 -165 LINE",
"87 -165 OFFCURVE",
"120 -154 OFFCURVE",
"120 -113 CURVE SMOOTH",
"120 -49 LINE",
"62 -49 LINE",
"62 -113 LINE SMOOTH",
"62 -126 OFFCURVE",
"56 -131 OFFCURVE",
"41 -131 CURVE"
);
}
);
width = 154;
}
);
unicode = F6C3;
},
{
glyphname = Gdotaccent;
layers = (
{
layerId = "D8D94703-76C4-4836-9DB2-440344724E35";
name = Regular;
paths = (
{
closed = 1;
nodes = (
"604 0 LINE",
"664 0 LINE",
"664 349 LINE",
"447 349 LINE",
"447 295 LINE",
"604 295 LINE",
"604 176 LINE",
"536 95 OFFCURVE",
"463 58 OFFCURVE",
"382 58 CURVE SMOOTH",
"231 58 OFFCURVE",
"115 195 OFFCURVE",
"115 355 CURVE SMOOTH",
"115 506 OFFCURVE",
"214 652 OFFCURVE",
"372 652 CURVE SMOOTH",
"466 652 OFFCURVE",
"544 612 OFFCURVE",
"590 524 CURVE",
"644 560 LINE",
"598 651 OFFCURVE",
"513 715 OFFCURVE",
"373 715 CURVE SMOOTH",
"183 715 OFFCURVE",
"45 546 OFFCURVE",
"45 356 CURVE SMOOTH",
"45 176 OFFCURVE",
"186 -5 OFFCURVE",
"377 -5 CURVE SMOOTH",
"462 -5 OFFCURVE",
"538 31 OFFCURVE",
"604 103 CURVE"
);
},
{
closed = 1;
nodes = (
"403 820 LINE",
"403 917 LINE",
"341 917 LINE",
"341 820 LINE"
);
}
);
width = 722;
}
);
unicode = 0120;
},
{
glyphname = H;
layers = (
{
layerId = "D8D94703-76C4-4836-9DB2-440344724E35";
name = Regular;
paths = (
{
closed = 1;
nodes = (
"580 710 LINE",
"580 394 LINE",
"159 394 LINE",
"159 710 LINE",
"90 710 LINE",
"90 0 LINE",
"159 0 LINE",
"159 332 LINE",
"580 332 LINE",
"580 0 LINE",
"650 0 LINE",
"650 710 LINE"
);
}
);
width = 739;
}
);
unicode = 0048;
},
{
glyphname = H.sc;
layers = (
{
layerId = "D8D94703-76C4-4836-9DB2-440344724E35";
name = Regular;
paths = (
{
closed = 1;
nodes = (
"493 548 LINE",
"493 309 LINE",
"144 309 LINE",
"144 548 LINE",
"81 548 LINE",
"81 0 LINE",
"144 0 LINE",
"144 252 LINE",
"493 252 LINE",
"493 0 LINE",
"555 0 LINE",
"555 548 LINE"
);
}
);
width = 637;
}
);
},
{
glyphname = Hbar;
layers = (
{
layerId = "D8D94703-76C4-4836-9DB2-440344724E35";
name = Regular;
paths = (
{
closed = 1;
nodes = (
"584 710 LINE",
"584 589 LINE",
"163 589 LINE",
"163 710 LINE",
"94 710 LINE",
"94 589 LINE",
"44 589 LINE",
"44 550 LINE",
"94 550 LINE",
"94 0 LINE",
"163 0 LINE",
"163 332 LINE",
"584 332 LINE",
"584 0 LINE",
"654 0 LINE",
"654 550 LINE",
"704 550 LINE",
"704 589 LINE",
"654 589 LINE",
"654 710 LINE"
);
},
{
closed = 1;
nodes = (
"163 394 LINE",
"163 550 LINE",
"584 550 LINE",
"584 394 LINE"
);
}
);
width = 747;
}
);
unicode = 0126;
},
{
glyphname = Hcircumflex;
layers = (
{
layerId = "D8D94703-76C4-4836-9DB2-440344724E35";
name = Regular;
paths = (
{
closed = 1;
nodes = (
"287 811 LINE",
"372 874 LINE",
"457 811 LINE",
"496 832 LINE",
"397 917 LINE",
"347 917 LINE",
"249 832 LINE"
);
},
{
closed = 1;
nodes = (
"580 710 LINE",
"580 394 LINE",
"159 394 LINE",
"159 710 LINE",
"90 710 LINE",
"90 0 LINE",
"159 0 LINE",
"159 332 LINE",
"580 332 LINE",
"580 0 LINE",
"650 0 LINE",
"650 710 LINE"
);
}
);
width = 739;
}
);
unicode = 0124;
},
{
glyphname = I;
layers = (
{
layerId = "D8D94703-76C4-4836-9DB2-440344724E35";
name = Regular;
paths = (
{
closed = 1;
nodes = (
"159 0 LINE",
"159 709 LINE",
"90 709 LINE",
"90 0 LINE"
);
}
);
width = 249;
}
);
unicode = 0049;
},
{
glyphname = I.sc;
layers = (
{
layerId = "D8D94703-76C4-4836-9DB2-440344724E35";
name = Regular;
paths = (
{
closed = 1;
nodes = (
"144 0 LINE",
"144 547 LINE",
"81 547 LINE",
"81 0 LINE"
);
}
);
width = 225;
}
);
},
{
glyphname = IJ;
layers = (
{
layerId = "D8D94703-76C4-4836-9DB2-440344724E35";
name = Regular;
paths = (
{
closed = 1;
nodes = (
"159 0 LINE",
"159 709 LINE",
"90 709 LINE",
"90 0 LINE"
);
},
{
closed = 1;
nodes = (
"267 33 LINE",
"309 4 OFFCURVE",
"360 -11 OFFCURVE",
"421 -11 CURVE SMOOTH",
"628 -11 OFFCURVE",
"654 133 OFFCURVE",
"654 349 CURVE SMOOTH",
"654 709 LINE",
"584 709 LINE",
"584 349 LINE SMOOTH",
"584 159 OFFCURVE",
"566 52 OFFCURVE",
"421 52 CURVE SMOOTH",
"364 52 OFFCURVE",
"316 69 OFFCURVE",
"287 89 CURVE"
);
}
);
width = 735;
}
);
unicode = 0132;
},
{
glyphname = J;
layers = (
{
layerId = "D8D94703-76C4-4836-9DB2-440344724E35";
name = Regular;
paths = (
{
closed = 1;
nodes = (
"18 33 LINE",
"60 4 OFFCURVE",
"111 -11 OFFCURVE",
"172 -11 CURVE SMOOTH",
"379 -11 OFFCURVE",
"405 133 OFFCURVE",
"405 349 CURVE SMOOTH",
"405 709 LINE",
"335 709 LINE",
"335 349 LINE SMOOTH",
"335 159 OFFCURVE",
"317 52 OFFCURVE",
"172 52 CURVE SMOOTH",
"115 52 OFFCURVE",
"67 69 OFFCURVE",
"38 89 CURVE"
);
}
);
width = 486;
}
);
unicode = 004A;
},
{
glyphname = Iacute;
layers = (
{
layerId = "D8D94703-76C4-4836-9DB2-440344724E35";
name = Regular;
paths = (
{
closed = 1;
nodes = (
"159 0 LINE",
"159 709 LINE",
"90 709 LINE",
"90 0 LINE"
);
},
{
closed = 1;
nodes = (
"217 917 LINE",
"145 917 LINE",
"86 824 LINE",
"131 807 LINE"
);
}
);
width = 249;
}
);
unicode = 00CD;
},
{
glyphname = Ibreve;
layers = (
{
layerId = "D8D94703-76C4-4836-9DB2-440344724E35";
name = Regular;
paths = (
{
closed = 1;
nodes = (
"159 0 LINE",
"159 709 LINE",
"90 709 LINE",
"90 0 LINE"
);
},
{
closed = 1;
nodes = (
"95 851 OFFCURVE",
"68 883 OFFCURVE",
"68 917 CURVE",
"26 917 LINE",
"26 860 OFFCURVE",
"69 816 OFFCURVE",
"124 816 CURVE SMOOTH",
"178 816 OFFCURVE",
"222 860 OFFCURVE",
"222 917 CURVE",
"181 917 LINE",
"177 880 OFFCURVE",
"152 851 OFFCURVE",
"124 851 CURVE SMOOTH"
);
}
);
width = 249;
}
);
unicode = 012C;
},
{
glyphname = Icircumflex;
layers = (
{
layerId = "D8D94703-76C4-4836-9DB2-440344724E35";
name = Regular;
paths = (
{
closed = 1;
nodes = (
"159 0 LINE",
"159 709 LINE",
"90 709 LINE",
"90 0 LINE"
);
},
{
closed = 1;
nodes = (
"39 811 LINE",
"124 874 LINE",
"209 811 LINE",
"248 832 LINE",
"149 917 LINE",
"99 917 LINE",
"1 832 LINE"
);
}
);
width = 249;
}
);
unicode = 00CE;
},
{
glyphname = Idieresis;
layers = (
{
layerId = "D8D94703-76C4-4836-9DB2-440344724E35";
name = Regular;
paths = (
{
closed = 1;
nodes = (
"159 0 LINE",
"159 709 LINE",
"90 709 LINE",
"90 0 LINE"
);
},
{
closed = 1;
nodes = (
"79 820 LINE",
"79 914 LINE",
"21 914 LINE",
"21 820 LINE"
);
},
{
closed = 1;
nodes = (
"228 820 LINE",
"228 914 LINE",
"170 914 LINE",
"170 820 LINE"
);
}
);
width = 249;
}
);
unicode = 00CF;
},
{
glyphname = Idotaccent;
layers = (
{
layerId = "D8D94703-76C4-4836-9DB2-440344724E35";
name = Regular;
paths = (
{
closed = 1;
nodes = (
"159 0 LINE",
"159 709 LINE",
"90 709 LINE",
"90 0 LINE"
);
},
{
closed = 1;
nodes = (
"155 820 LINE",
"155 917 LINE",
"93 917 LINE",
"93 820 LINE"
);
}
);
width = 249;
}
);
unicode = 0130;
},
{
glyphname = Igrave;
layers = (
{
layerId = "D8D94703-76C4-4836-9DB2-440344724E35";
name = Regular;
paths = (
{
closed = 1;
nodes = (
"159 0 LINE",
"159 709 LINE",
"90 709 LINE",
"90 0 LINE"
);
},
{
closed = 1;
nodes = (
"118 807 LINE",
"162 824 LINE",
"102 917 LINE",
"31 917 LINE"
);
}
);
width = 249;
}
);
unicode = 00CC;
},
{
glyphname = Imacron;
layers = (
{
layerId = "D8D94703-76C4-4836-9DB2-440344724E35";
name = Regular;
paths = (
{
closed = 1;
nodes = (
"159 0 LINE",
"159 709 LINE",
"90 709 LINE",
"90 0 LINE"
);
},
{
closed = 1;
nodes = (
"270 850 LINE",
"270 897 LINE",
"-19 897 LINE",
"-19 850 LINE"
);
}
);
width = 249;
}
);
unicode = 012A;
},
{
glyphname = Iogonek;
layers = (
{
layerId = "D8D94703-76C4-4836-9DB2-440344724E35";
name = Regular;
paths = (
{
closed = 1;
nodes = (
"129 -137 LINE",
"94 -132 OFFCURVE",
"77 -117 OFFCURVE",
"77 -93 CURVE SMOOTH",
"77 -64 OFFCURVE",
"100 -37 OFFCURVE",
"159 0 CURVE",
"159 709 LINE",
"90 709 LINE",
"90 0 LINE",
"110 0 LINE",
"58 -36 OFFCURVE",
"35 -69 OFFCURVE",
"35 -102 CURVE SMOOTH",
"35 -137 OFFCURVE",
"61 -165 OFFCURVE",
"110 -175 CURVE"
);
}
);
width = 249;
}
);
unicode = 012E;
},
{
glyphname = Itilde;
layers = (
{
layerId = "D8D94703-76C4-4836-9DB2-440344724E35";
name = Regular;
paths = (
{
closed = 1;
nodes = (
"159 0 LINE",
"159 709 LINE",
"90 709 LINE",
"90 0 LINE"
);
},
{
closed = 1;
nodes = (
"267 825 OFFCURVE",
"284 904 OFFCURVE",
"284 917 CURVE",
"242 917 LINE",
"242 913 OFFCURVE",
"237 868 OFFCURVE",
"185 868 CURVE SMOOTH",
"135 868 OFFCURVE",
"113 910 OFFCURVE",
"57 910 CURVE SMOOTH",
"-18 910 OFFCURVE",
"-34 831 OFFCURVE",
"-34 817 CURVE",
"8 817 LINE",
"8 822 OFFCURVE",
"14 865 OFFCURVE",
"58 865 CURVE SMOOTH",
"100 865 OFFCURVE",
"126 825 OFFCURVE",
"186 825 CURVE SMOOTH"
);
}
);
width = 249;
}
);
unicode = 0128;
},
{
glyphname = J.sc;
layers = (
{
layerId = "D8D94703-76C4-4836-9DB2-440344724E35";
name = Regular;
paths = (
{
closed = 1;
nodes = (
"23 25 LINE",
"58 3 OFFCURVE",
"102 -8 OFFCURVE",
"153 -8 CURVE SMOOTH",
"329 -8 OFFCURVE",
"350 102 OFFCURVE",
"350 269 CURVE SMOOTH",
"350 547 LINE",
"288 547 LINE",
"288 269 LINE SMOOTH",
"288 126 OFFCURVE",
"274 48 OFFCURVE",
"153 48 CURVE SMOOTH",
"105 48 OFFCURVE",
"64 62 OFFCURVE",
"41 76 CURVE"
);
}
);
width = 426;
}
);
},
{
glyphname = Jcircumflex;
layers = (
{
layerId = "D8D94703-76C4-4836-9DB2-440344724E35";
name = Regular;
paths = (
{
closed = 1;
nodes = (
"286 811 LINE",
"371 874 LINE",
"456 811 LINE",
"495 832 LINE",
"396 917 LINE",
"346 917 LINE",
"248 832 LINE"
);
},
{
closed = 1;
nodes = (
"18 33 LINE",
"60 4 OFFCURVE",
"111 -11 OFFCURVE",
"172 -11 CURVE SMOOTH",
"379 -11 OFFCURVE",
"405 133 OFFCURVE",
"405 349 CURVE SMOOTH",
"405 709 LINE",
"335 709 LINE",
"335 349 LINE SMOOTH",
"335 159 OFFCURVE",
"317 52 OFFCURVE",
"172 52 CURVE SMOOTH",
"115 52 OFFCURVE",
"67 69 OFFCURVE",
"38 89 CURVE"
);
}
);
width = 486;
}
);
unicode = 0134;
},
{
glyphname = K;
layers = (
{
layerId = "D8D94703-76C4-4836-9DB2-440344724E35";
name = Regular;
paths = (
{
closed = 1;
nodes = (
"159 0 LINE",
"159 218 LINE",
"294 357 LINE",
"566 0 LINE",
"643 0 LINE",
"337 398 LINE",
"627 710 LINE",
"550 710 LINE",
"159 297 LINE",
"159 709 LINE",
"90 709 LINE",
"90 0 LINE"
);
}
);
width = 641;
}
);
unicode = 004B;
},
{
glyphname = K.sc;
layers = (
{
layerId = "D8D94703-76C4-4836-9DB2-440344724E35";
name = Regular;
paths = (
{
closed = 1;
nodes = (
"144 0 LINE",
"144 168 LINE",
"255 270 LINE",
"482 0 LINE",
"550 0 LINE",
"294 307 LINE",
"538 548 LINE",
"468 548 LINE",
"144 238 LINE",
"144 547 LINE",
"81 547 LINE",
"81 0 LINE"
);
}
);
width = 560;
}
);
},
{
glyphname = Kcommaaccent;
layers = (
{
layerId = "D8D94703-76C4-4836-9DB2-440344724E35";
name = Regular;
paths = (
{
closed = 1;
nodes = (
"281 -165 LINE",
"327 -165 OFFCURVE",
"360 -154 OFFCURVE",
"360 -113 CURVE SMOOTH",
"360 -49 LINE",
"302 -49 LINE",
"302 -113 LINE SMOOTH",
"302 -126 OFFCURVE",
"296 -131 OFFCURVE",
"281 -131 CURVE"
);
},
{
closed = 1;
nodes = (
"159 0 LINE",
"159 218 LINE",
"294 357 LINE",
"566 0 LINE",
"643 0 LINE",
"337 398 LINE",
"627 710 LINE",
"550 710 LINE",
"159 297 LINE",
"159 709 LINE",
"90 709 LINE",
"90 0 LINE"
);
}
);
width = 641;
}
);
unicode = 0136;
},
{
glyphname = L;
layers = (
{
layerId = "D8D94703-76C4-4836-9DB2-440344724E35";
name = Regular;
paths = (
{
closed = 1;
nodes = (
"570 0 LINE",
"570 62 LINE",
"159 62 LINE",
"159 710 LINE",
"90 710 LINE",
"90 0 LINE"
);
}
);
width = 590;
}
);
unicode = 004C;
},
{
glyphname = L.sc;
layers = (
{
layerId = "D8D94703-76C4-4836-9DB2-440344724E35";
name = Regular;
paths = (
{
closed = 1;
nodes = (
"474 0 LINE",
"474 56 LINE",
"144 56 LINE",
"144 548 LINE",
"81 548 LINE",
"81 0 LINE"
);
}
);
width = 500;
}
);
},
{
glyphname = Lacute;
layers = (
{
layerId = "D8D94703-76C4-4836-9DB2-440344724E35";
name = Regular;
paths = (
{
closed = 1;
nodes = (
"436 917 LINE",
"364 917 LINE",
"305 824 LINE",
"350 807 LINE"
);
},
{
closed = 1;
nodes = (
"570 0 LINE",
"570 62 LINE",
"159 62 LINE",
"159 710 LINE",
"90 710 LINE",
"90 0 LINE"
);
}
);
width = 590;
}
);
unicode = 0139;
},
{
glyphname = Lcaron;
layers = (
{
layerId = "D8D94703-76C4-4836-9DB2-440344724E35";
name = Regular;
paths = (
{
closed = 1;
nodes = (
"467 730 LINE",
"395 730 LINE",
"336 637 LINE",
"381 620 LINE"
);
},
{
closed = 1;
nodes = (
"570 0 LINE",
"570 62 LINE",
"159 62 LINE",
"159 710 LINE",
"90 710 LINE",
"90 0 LINE"
);
}
);
width = 590;
}
);
unicode = 013D;
},
{
glyphname = caron.alt;
layers = (
{
layerId = "D8D94703-76C4-4836-9DB2-440344724E35";
name = Regular;
paths = (
{
closed = 1;
nodes = (
"180 730 LINE",
"108 730 LINE",
"49 637 LINE",
"94 620 LINE"
);
}
);
width = 222;
}
);
},
{
glyphname = Lcommaaccent;
layers = (
{
layerId = "D8D94703-76C4-4836-9DB2-440344724E35";
name = Regular;
paths = (
{
closed = 1;
nodes = (
"284 -165 LINE",
"330 -165 OFFCURVE",
"363 -154 OFFCURVE",
"363 -113 CURVE SMOOTH",
"363 -49 LINE",
"305 -49 LINE",
"305 -113 LINE SMOOTH",
"305 -126 OFFCURVE",
"299 -131 OFFCURVE",
"284 -131 CURVE"
);
},
{
closed = 1;
nodes = (
"570 0 LINE",
"570 62 LINE",
"159 62 LINE",
"159 710 LINE",
"90 710 LINE",
"90 0 LINE"
);
}
);
width = 590;
}
);
unicode = 013B;
},
{
glyphname = Ldot;
layers = (
{
layerId = "D8D94703-76C4-4836-9DB2-440344724E35";
name = Regular;
paths = (
{
closed = 1;
nodes = (
"570 0 LINE",
"570 62 LINE",
"159 62 LINE",
"159 710 LINE",
"90 710 LINE",
"90 0 LINE"
);
},
{
closed = 1;
nodes = (
"425 348 LINE",
"425 460 LINE",
"367 460 LINE",
"367 348 LINE"
);
}
);
width = 590;
}
);
unicode = 013F;
},
{
glyphname = periodcentered;
layers = (
{
layerId = "D8D94703-76C4-4836-9DB2-440344724E35";
name = Regular;
paths = (
{
closed = 1;
nodes = (
"124 246 LINE",
"124 358 LINE",
"66 358 LINE",
"66 246 LINE"
);
}
);
width = 189;
}
);
unicode = 00B7;
},
{
glyphname = Lslash;
layers = (
{
layerId = "D8D94703-76C4-4836-9DB2-440344724E35";
name = Regular;
paths = (
{
closed = 1;
nodes = (
"577 0 LINE",
"577 62 LINE",
"166 62 LINE",
"166 335 LINE",
"344 483 LINE",
"322 522 LINE",
"166 392 LINE",
"166 710 LINE",
"97 710 LINE",
"97 335 LINE",
"17 269 LINE",
"39 229 LINE",
"97 277 LINE",
"97 0 LINE"
);
}
);
width = 598;
}
);
unicode = 0141;
},
{
glyphname = M;
layers = (
{
layerId = "D8D94703-76C4-4836-9DB2-440344724E35";
name = Regular;
paths = (
{
closed = 1;
nodes = (
"788 0 LINE",
"788 710 LINE",
"717 710 LINE",
"439 224 LINE",
"161 710 LINE",
"90 710 LINE",
"90 0 LINE",
"159 0 LINE",
"159 583 LINE",
"419 132 LINE",
"460 132 LINE",
"719 583 LINE",
"719 0 LINE"
);
}
);
width = 878;
}
);
unicode = 004D;
},
{
glyphname = M.sc;
layers = (
{
layerId = "D8D94703-76C4-4836-9DB2-440344724E35";
name = Regular;
paths = (
{
closed = 1;
nodes = (
"671 0 LINE",
"671 548 LINE",
"607 548 LINE",
"377 184 LINE",
"146 548 LINE",
"81 548 LINE",
"81 0 LINE",
"144 0 LINE",
"144 435 LINE",
"358 100 LINE",
"394 100 LINE",
"609 435 LINE",
"609 0 LINE"
);
}
);
width = 753;
}
);
},
{
glyphname = N;
layers = (
{
layerId = "D8D94703-76C4-4836-9DB2-440344724E35";
name = Regular;
paths = (
{
closed = 1;
nodes = (
"623 0 LINE",
"683 0 LINE",
"683 709 LINE",
"614 709 LINE",
"614 119 LINE",
"144 710 LINE",
"90 710 LINE",
"90 0 LINE",
"159 0 LINE",
"159 580 LINE"
);
}
);
width = 773;
}
);
unicode = 004E;
},
{
glyphname = N.sc;
layers = (
{
layerId = "D8D94703-76C4-4836-9DB2-440344724E35";
name = Regular;
paths = (
{
closed = 1;
nodes = (
"529 0 LINE",
"583 0 LINE",
"583 547 LINE",
"520 547 LINE",
"520 109 LINE",
"130 548 LINE",
"81 548 LINE",
"81 0 LINE",
"144 0 LINE",
"144 431 LINE"
);
}
);
width = 664;
}
);
},
{
glyphname = Nacute;
layers = (
{
layerId = "D8D94703-76C4-4836-9DB2-440344724E35";
name = Regular;
paths = (
{
closed = 1;
nodes = (
"482 917 LINE",
"410 917 LINE",
"351 824 LINE",
"396 807 LINE"
);
},
{
closed = 1;
nodes = (
"623 0 LINE",
"683 0 LINE",
"683 709 LINE",
"614 709 LINE",
"614 119 LINE",
"144 710 LINE",
"90 710 LINE",
"90 0 LINE",
"159 0 LINE",
"159 580 LINE"
);
}
);
width = 773;
}
);
unicode = 0143;
},
{
glyphname = Ncaron;
layers = (
{
layerId = "D8D94703-76C4-4836-9DB2-440344724E35";
name = Regular;
paths = (
{
closed = 1;
nodes = (
"266 897 LINE",
"364 811 LINE",
"414 811 LINE",
"513 897 LINE",
"474 917 LINE",
"389 854 LINE",
"304 917 LINE"
);
},
{
closed = 1;
nodes = (
"623 0 LINE",
"683 0 LINE",
"683 709 LINE",
"614 709 LINE",
"614 119 LINE",
"144 710 LINE",
"90 710 LINE",
"90 0 LINE",
"159 0 LINE",
"159 580 LINE"
);
}
);
width = 773;
}
);
unicode = 0147;
},
{
glyphname = Ncommaaccent;
layers = (
{
layerId = "D8D94703-76C4-4836-9DB2-440344724E35";
name = Regular;
paths = (
{
closed = 1;
nodes = (
"339 -165 LINE",
"385 -165 OFFCURVE",
"418 -154 OFFCURVE",
"418 -113 CURVE SMOOTH",
"418 -49 LINE",
"360 -49 LINE",
"360 -113 LINE SMOOTH",
"360 -126 OFFCURVE",
"354 -131 OFFCURVE",
"339 -131 CURVE"
);
},
{
closed = 1;
nodes = (
"623 0 LINE",
"683 0 LINE",
"683 709 LINE",
"614 709 LINE",
"614 119 LINE",
"144 710 LINE",
"90 710 LINE",
"90 0 LINE",
"159 0 LINE",
"159 580 LINE"
);
}
);
width = 773;
}
);
unicode = 0145;
},
{
glyphname = Ndotaccent;
layers = (
{
layerId = "D8D94703-76C4-4836-9DB2-440344724E35";
name = Regular;
paths = (
{
closed = 1;
nodes = (
"420 820 LINE",
"420 917 LINE",
"358 917 LINE",
"358 820 LINE"
);
},
{
closed = 1;
nodes = (
"623 0 LINE",
"683 0 LINE",
"683 709 LINE",
"614 709 LINE",
"614 119 LINE",
"144 710 LINE",
"90 710 LINE",
"90 0 LINE",
"159 0 LINE",
"159 580 LINE"
);
}
);
width = 773;
}
);
unicode = 1E44;
},
{
glyphname = Ntilde;
layers = (
{
layerId = "D8D94703-76C4-4836-9DB2-440344724E35";
name = Regular;
paths = (
{
closed = 1;
nodes = (
"623 0 LINE",
"683 0 LINE",
"683 709 LINE",
"614 709 LINE",
"614 119 LINE",
"144 710 LINE",
"90 710 LINE",
"90 0 LINE",
"159 0 LINE",
"159 580 LINE"
);
},
{
closed = 1;
nodes = (
"532 825 OFFCURVE",
"549 904 OFFCURVE",
"549 917 CURVE",
"507 917 LINE",
"507 913 OFFCURVE",
"502 868 OFFCURVE",
"450 868 CURVE SMOOTH",
"400 868 OFFCURVE",
"378 910 OFFCURVE",
"322 910 CURVE SMOOTH",
"247 910 OFFCURVE",
"231 831 OFFCURVE",
"231 817 CURVE",
"273 817 LINE",
"273 822 OFFCURVE",
"279 865 OFFCURVE",
"323 865 CURVE SMOOTH",
"365 865 OFFCURVE",
"391 825 OFFCURVE",
"451 825 CURVE SMOOTH"
);
}
);
width = 773;
}
);
unicode = 00D1;
},
{
glyphname = O;
layers = (
{
layerId = "D8D94703-76C4-4836-9DB2-440344724E35";
name = Regular;
paths = (
{
closed = 1;
nodes = (
"568 -5 OFFCURVE",
"711 165 OFFCURVE",
"711 354 CURVE SMOOTH",
"711 532 OFFCURVE",
"577 715 OFFCURVE",
"379 715 CURVE SMOOTH",
"189 715 OFFCURVE",
"45 544 OFFCURVE",
"45 355 CURVE SMOOTH",
"45 173 OFFCURVE",
"180 -5 OFFCURVE",
"378 -5 CURVE SMOOTH"
);
},
{
closed = 1;
nodes = (
"115 502 OFFCURVE",
"217 651 OFFCURVE",
"378 651 CURVE SMOOTH",
"532 651 OFFCURVE",
"641 509 OFFCURVE",
"641 355 CURVE SMOOTH",
"641 209 OFFCURVE",
"539 58 OFFCURVE",
"378 58 CURVE SMOOTH",
"222 58 OFFCURVE",
"115 201 OFFCURVE",
"115 355 CURVE SMOOTH"
);
}
);
width = 756;
}
);
unicode = 004F;
},
{
glyphname = O.sc;
layers = (
{
layerId = "D8D94703-76C4-4836-9DB2-440344724E35";
name = Regular;
paths = (
{
closed = 1;
nodes = (
"486 -4 OFFCURVE",
"606 127 OFFCURVE",
"606 273 CURVE SMOOTH",
"606 410 OFFCURVE",
"494 551 OFFCURVE",
"326 551 CURVE SMOOTH",
"165 551 OFFCURVE",
"45 419 OFFCURVE",
"45 274 CURVE SMOOTH",
"45 133 OFFCURVE",
"158 -4 OFFCURVE",
"326 -4 CURVE SMOOTH"
);
},
{
closed = 1;
nodes = (
"108 382 OFFCURVE",
"193 494 OFFCURVE",
"326 494 CURVE SMOOTH",
"453 494 OFFCURVE",
"543 389 OFFCURVE",
"543 274 CURVE SMOOTH",
"543 165 OFFCURVE",
"459 53 OFFCURVE",
"326 53 CURVE SMOOTH",
"196 53 OFFCURVE",
"108 159 OFFCURVE",
"108 274 CURVE SMOOTH"
);
}
);
width = 650;
}
);
},
{
glyphname = OE;
layers = (
{
layerId = "D8D94703-76C4-4836-9DB2-440344724E35";
name = Regular;
paths = (
{
closed = 1;
nodes = (
"713 62 LINE",
"713 331 LINE",
"1052 331 LINE",
"1052 393 LINE",
"713 393 LINE",
"713 648 LINE",
"1106 648 LINE",
"1106 710 LINE",
"643 710 LINE",
"643 530 LINE",
"599 632 OFFCURVE",
"503 715 OFFCURVE",
"379 715 CURVE SMOOTH",
"189 715 OFFCURVE",
"45 544 OFFCURVE",
"45 355 CURVE SMOOTH",
"45 173 OFFCURVE",
"181 -5 OFFCURVE",
"379 -5 CURVE SMOOTH",
"498 -5 OFFCURVE",
"598 75 OFFCURVE",
"643 180 CURVE",
"643 0 LINE",
"1115 0 LINE",
"1115 62 LINE"
);
},
{
closed = 1;
nodes = (
"222 58 OFFCURVE",
"115 201 OFFCURVE",
"115 355 CURVE SMOOTH",
"115 502 OFFCURVE",
"217 652 OFFCURVE",
"378 652 CURVE SMOOTH",
"532 652 OFFCURVE",
"641 509 OFFCURVE",
"641 356 CURVE SMOOTH",
"641 208 OFFCURVE",
"539 58 OFFCURVE",
"378 58 CURVE SMOOTH"
);
}
);
width = 1160;
}
);
unicode = 0152;
},
{
glyphname = Oacute;
layers = (
{
layerId = "D8D94703-76C4-4836-9DB2-440344724E35";
name = Regular;
paths = (
{
closed = 1;
nodes = (
"471 917 LINE",
"399 917 LINE",
"340 824 LINE",
"385 807 LINE"
);
},
{
closed = 1;
nodes = (
"568 -5 OFFCURVE",
"711 165 OFFCURVE",
"711 354 CURVE SMOOTH",
"711 532 OFFCURVE",
"577 715 OFFCURVE",
"379 715 CURVE SMOOTH",
"189 715 OFFCURVE",
"45 544 OFFCURVE",
"45 355 CURVE SMOOTH",
"45 173 OFFCURVE",
"180 -5 OFFCURVE",
"378 -5 CURVE SMOOTH"
);
},
{
closed = 1;
nodes = (
"115 502 OFFCURVE",
"217 651 OFFCURVE",
"378 651 CURVE SMOOTH",
"532 651 OFFCURVE",
"641 509 OFFCURVE",
"641 355 CURVE SMOOTH",
"641 209 OFFCURVE",
"539 58 OFFCURVE",
"378 58 CURVE SMOOTH",
"222 58 OFFCURVE",
"115 201 OFFCURVE",
"115 355 CURVE SMOOTH"
);
}
);
width = 756;
}
);
unicode = 00D3;
},
{
glyphname = Obreve;
layers = (
{
layerId = "D8D94703-76C4-4836-9DB2-440344724E35";
name = Regular;
paths = (
{
closed = 1;
nodes = (
"568 -5 OFFCURVE",
"711 165 OFFCURVE",
"711 354 CURVE SMOOTH",
"711 532 OFFCURVE",
"577 715 OFFCURVE",
"379 715 CURVE SMOOTH",
"189 715 OFFCURVE",
"45 544 OFFCURVE",
"45 355 CURVE SMOOTH",
"45 173 OFFCURVE",
"180 -5 OFFCURVE",
"378 -5 CURVE SMOOTH"
);
},
{
closed = 1;
nodes = (
"115 502 OFFCURVE",
"217 651 OFFCURVE",
"378 651 CURVE SMOOTH",
"532 651 OFFCURVE",
"641 509 OFFCURVE",
"641 355 CURVE SMOOTH",
"641 209 OFFCURVE",
"539 58 OFFCURVE",
"378 58 CURVE SMOOTH",
"222 58 OFFCURVE",
"115 201 OFFCURVE",
"115 355 CURVE SMOOTH"
);
},
{
closed = 1;
nodes = (
"350 851 OFFCURVE",
"323 883 OFFCURVE",
"323 917 CURVE",
"281 917 LINE",
"281 860 OFFCURVE",
"324 816 OFFCURVE",
"379 816 CURVE SMOOTH",
"433 816 OFFCURVE",
"477 860 OFFCURVE",
"477 917 CURVE",
"436 917 LINE",
"432 880 OFFCURVE",
"407 851 OFFCURVE",
"379 851 CURVE SMOOTH"
);
}
);
width = 756;
}
);
unicode = 014E;
},
{
glyphname = Ocircumflex;
layers = (
{
layerId = "D8D94703-76C4-4836-9DB2-440344724E35";
name = Regular;
paths = (
{
closed = 1;
nodes = (
"294 811 LINE",
"379 874 LINE",
"464 811 LINE",
"503 832 LINE",
"404 917 LINE",
"354 917 LINE",
"256 832 LINE"
);
},
{
closed = 1;
nodes = (
"568 -5 OFFCURVE",
"711 165 OFFCURVE",
"711 354 CURVE SMOOTH",
"711 532 OFFCURVE",
"577 715 OFFCURVE",
"379 715 CURVE SMOOTH",
"189 715 OFFCURVE",
"45 544 OFFCURVE",
"45 355 CURVE SMOOTH",
"45 173 OFFCURVE",
"180 -5 OFFCURVE",
"378 -5 CURVE SMOOTH"
);
},
{
closed = 1;
nodes = (
"115 502 OFFCURVE",
"217 651 OFFCURVE",
"378 651 CURVE SMOOTH",
"532 651 OFFCURVE",
"641 509 OFFCURVE",
"641 355 CURVE SMOOTH",
"641 209 OFFCURVE",
"539 58 OFFCURVE",
"378 58 CURVE SMOOTH",
"222 58 OFFCURVE",
"115 201 OFFCURVE",
"115 355 CURVE SMOOTH"
);
}
);
width = 756;
}
);
unicode = 00D4;
},
{
glyphname = Odieresis;
layers = (
{
layerId = "D8D94703-76C4-4836-9DB2-440344724E35";
name = Regular;
paths = (
{
closed = 1;
nodes = (
"333 820 LINE",
"333 914 LINE",
"275 914 LINE",
"275 820 LINE"
);
},
{
closed = 1;
nodes = (
"482 820 LINE",
"482 914 LINE",
"424 914 LINE",
"424 820 LINE"
);
},
{
closed = 1;
nodes = (
"568 -5 OFFCURVE",
"711 165 OFFCURVE",
"711 354 CURVE SMOOTH",
"711 532 OFFCURVE",
"577 715 OFFCURVE",
"379 715 CURVE SMOOTH",
"189 715 OFFCURVE",
"45 544 OFFCURVE",
"45 355 CURVE SMOOTH",
"45 173 OFFCURVE",
"180 -5 OFFCURVE",
"378 -5 CURVE SMOOTH"
);
},
{
closed = 1;
nodes = (
"115 502 OFFCURVE",
"217 651 OFFCURVE",
"378 651 CURVE SMOOTH",
"532 651 OFFCURVE",
"641 509 OFFCURVE",
"641 355 CURVE SMOOTH",
"641 209 OFFCURVE",
"539 58 OFFCURVE",
"378 58 CURVE SMOOTH",
"222 58 OFFCURVE",
"115 201 OFFCURVE",
"115 355 CURVE SMOOTH"
);
}
);
width = 756;
}
);
unicode = 00D6;
},
{
glyphname = Ograve;
layers = (
{
layerId = "D8D94703-76C4-4836-9DB2-440344724E35";
name = Regular;
paths = (
{
closed = 1;
nodes = (
"568 -5 OFFCURVE",
"711 165 OFFCURVE",
"711 354 CURVE SMOOTH",
"711 532 OFFCURVE",
"577 715 OFFCURVE",
"379 715 CURVE SMOOTH",
"189 715 OFFCURVE",
"45 544 OFFCURVE",
"45 355 CURVE SMOOTH",
"45 173 OFFCURVE",
"180 -5 OFFCURVE",
"378 -5 CURVE SMOOTH"
);
},
{
closed = 1;
nodes = (
"115 502 OFFCURVE",
"217 651 OFFCURVE",
"378 651 CURVE SMOOTH",
"532 651 OFFCURVE",
"641 509 OFFCURVE",
"641 355 CURVE SMOOTH",
"641 209 OFFCURVE",
"539 58 OFFCURVE",
"378 58 CURVE SMOOTH",
"222 58 OFFCURVE",
"115 201 OFFCURVE",
"115 355 CURVE SMOOTH"
);
},
{
closed = 1;
nodes = (
"373 807 LINE",
"417 824 LINE",
"357 917 LINE",
"286 917 LINE"
);
}
);
width = 756;
}
);
unicode = 00D2;
},
{
glyphname = Ohungarumlaut;
layers = (
{
layerId = "D8D94703-76C4-4836-9DB2-440344724E35";
name = Regular;
paths = (
{
closed = 1;
nodes = (
"400 917 LINE",
"336 917 LINE",
"279 824 LINE",
"316 807 LINE"
);
},
{
closed = 1;
nodes = (
"525 917 LINE",
"461 917 LINE",
"404 824 LINE",
"442 807 LINE"
);
},
{
closed = 1;
nodes = (
"568 -5 OFFCURVE",
"711 165 OFFCURVE",
"711 354 CURVE SMOOTH",
"711 532 OFFCURVE",
"577 715 OFFCURVE",
"379 715 CURVE SMOOTH",
"189 715 OFFCURVE",
"45 544 OFFCURVE",
"45 355 CURVE SMOOTH",
"45 173 OFFCURVE",
"180 -5 OFFCURVE",
"378 -5 CURVE SMOOTH"
);
},
{
closed = 1;
nodes = (
"115 502 OFFCURVE",
"217 651 OFFCURVE",
"378 651 CURVE SMOOTH",
"532 651 OFFCURVE",
"641 509 OFFCURVE",
"641 355 CURVE SMOOTH",
"641 209 OFFCURVE",
"539 58 OFFCURVE",
"378 58 CURVE SMOOTH",
"222 58 OFFCURVE",
"115 201 OFFCURVE",
"115 355 CURVE SMOOTH"
);
}
);
width = 756;
}
);
unicode = 0150;
},
{
glyphname = hungarumlaut;
layers = (
{
layerId = "D8D94703-76C4-4836-9DB2-440344724E35";
name = Regular;
paths = (
{
closed = 1;
nodes = (
"164 730 LINE",
"100 730 LINE",
"43 637 LINE",
"80 620 LINE"
);
},
{
closed = 1;
nodes = (
"289 730 LINE",
"225 730 LINE",
"168 637 LINE",
"206 620 LINE"
);
}
);
width = 326;
}
);
unicode = 02DD;
},
{
glyphname = Omacron;
layers = (
{
layerId = "D8D94703-76C4-4836-9DB2-440344724E35";
name = Regular;
paths = (
{
closed = 1;
nodes = (
"524 850 LINE",
"524 897 LINE",
"235 897 LINE",
"235 850 LINE"
);
},
{
closed = 1;
nodes = (
"568 -5 OFFCURVE",
"711 165 OFFCURVE",
"711 354 CURVE SMOOTH",
"711 532 OFFCURVE",
"577 715 OFFCURVE",
"379 715 CURVE SMOOTH",
"189 715 OFFCURVE",
"45 544 OFFCURVE",
"45 355 CURVE SMOOTH",
"45 173 OFFCURVE",
"180 -5 OFFCURVE",
"378 -5 CURVE SMOOTH"
);
},
{
closed = 1;
nodes = (
"115 502 OFFCURVE",
"217 651 OFFCURVE",
"378 651 CURVE SMOOTH",
"532 651 OFFCURVE",
"641 509 OFFCURVE",
"641 355 CURVE SMOOTH",
"641 209 OFFCURVE",
"539 58 OFFCURVE",
"378 58 CURVE SMOOTH",
"222 58 OFFCURVE",
"115 201 OFFCURVE",
"115 355 CURVE SMOOTH"
);
}
);
width = 756;
}
);
unicode = 014C;
},
{
glyphname = Oogonek;
layers = (
{
layerId = "D8D94703-76C4-4836-9DB2-440344724E35";
name = Regular;
paths = (
{
closed = 1;
nodes = (
"370 -140 LINE",
"335 -135 OFFCURVE",
"318 -120 OFFCURVE",
"318 -96 CURVE SMOOTH",
"318 -67 OFFCURVE",
"340 -40 OFFCURVE",
"398 -4 CURVE",
"578 8 OFFCURVE",
"711 172 OFFCURVE",
"711 354 CURVE SMOOTH",
"711 532 OFFCURVE",
"577 715 OFFCURVE",
"379 715 CURVE SMOOTH",
"189 715 OFFCURVE",
"45 544 OFFCURVE",
"45 355 CURVE SMOOTH",
"45 181 OFFCURVE",
"167 12 OFFCURVE",
"350 -3 CURVE",
"299 -39 OFFCURVE",
"276 -72 OFFCURVE",
"276 -105 CURVE SMOOTH",
"276 -140 OFFCURVE",
"302 -168 OFFCURVE",
"351 -178 CURVE"
);
},
{
closed = 1;
nodes = (
"115 502 OFFCURVE",
"217 651 OFFCURVE",
"378 651 CURVE SMOOTH",
"532 651 OFFCURVE",
"641 509 OFFCURVE",
"641 355 CURVE SMOOTH",
"641 209 OFFCURVE",
"539 58 OFFCURVE",
"378 58 CURVE SMOOTH",
"222 58 OFFCURVE",
"115 201 OFFCURVE",
"115 355 CURVE SMOOTH"
);
}
);
width = 756;
}
);
unicode = 01EA;
},
{
glyphname = Oslash;
layers = (
{
layerId = "D8D94703-76C4-4836-9DB2-440344724E35";
name = Regular;
paths = (
{
closed = 1;
nodes = (
"575 710 LINE",
"545 666 LINE",
"498 696 OFFCURVE",
"441 715 OFFCURVE",
"379 715 CURVE SMOOTH",
"189 715 OFFCURVE",
"45 544 OFFCURVE",
"45 355 CURVE SMOOTH",
"45 253 OFFCURVE",
"87 153 OFFCURVE",
"159 84 CURVE",
"103 0 LINE",
"180 0 LINE",
"209 44 LINE",
"257 13 OFFCURVE",
"314 -5 OFFCURVE",
"378 -5 CURVE SMOOTH",
"568 -5 OFFCURVE",
"711 165 OFFCURVE",
"711 354 CURVE SMOOTH",
"711 454 OFFCURVE",
"668 555 OFFCURVE",
"596 625 CURVE",
"653 710 LINE"
);
},
{
closed = 1;
nodes = (
"641 209 OFFCURVE",
"539 58 OFFCURVE",
"378 58 CURVE SMOOTH",
"328 58 OFFCURVE",
"283 73 OFFCURVE",
"245 98 CURVE",
"559 569 LINE",
"610 514 OFFCURVE",
"641 436 OFFCURVE",
"641 355 CURVE SMOOTH"
);
},
{
closed = 1;
nodes = (
"115 502 OFFCURVE",
"217 651 OFFCURVE",
"378 651 CURVE SMOOTH",
"427 651 OFFCURVE",
"471 636 OFFCURVE",
"509 611 CURVE",
"196 139 LINE",
"145 195 OFFCURVE",
"115 273 OFFCURVE",
"115 355 CURVE SMOOTH"
);
}
);
width = 756;
}
);
unicode = 00D8;
},
{
glyphname = slash;
layers = (
{
layerId = "D8D94703-76C4-4836-9DB2-440344724E35";
name = Regular;
paths = (
{
closed = 1;
nodes = (
"501 710 LINE",
"29 0 LINE",
"106 0 LINE",
"579 710 LINE"
);
}
);
width = 606;
}
);
unicode = 002F;
},
{
glyphname = Oslashacute;
layers = (
{
layerId = "D8D94703-76C4-4836-9DB2-440344724E35";
name = Regular;
paths = (
{
closed = 1;
nodes = (
"575 710 LINE",
"545 666 LINE",
"498 696 OFFCURVE",
"441 715 OFFCURVE",
"379 715 CURVE SMOOTH",
"189 715 OFFCURVE",
"45 544 OFFCURVE",
"45 355 CURVE SMOOTH",
"45 253 OFFCURVE",
"87 153 OFFCURVE",
"159 84 CURVE",
"103 0 LINE",
"180 0 LINE",
"209 44 LINE",
"257 13 OFFCURVE",
"314 -5 OFFCURVE",
"378 -5 CURVE SMOOTH",
"568 -5 OFFCURVE",
"711 165 OFFCURVE",
"711 354 CURVE SMOOTH",
"711 454 OFFCURVE",
"668 555 OFFCURVE",
"596 625 CURVE",
"653 710 LINE"
);
},
{
closed = 1;
nodes = (
"641 209 OFFCURVE",
"539 58 OFFCURVE",
"378 58 CURVE SMOOTH",
"328 58 OFFCURVE",
"283 73 OFFCURVE",
"245 98 CURVE",
"559 569 LINE",
"610 514 OFFCURVE",
"641 436 OFFCURVE",
"641 355 CURVE SMOOTH"
);
},
{
closed = 1;
nodes = (
"115 502 OFFCURVE",
"217 651 OFFCURVE",
"378 651 CURVE SMOOTH",
"427 651 OFFCURVE",
"471 636 OFFCURVE",
"509 611 CURVE",
"196 139 LINE",
"145 195 OFFCURVE",
"115 273 OFFCURVE",
"115 355 CURVE SMOOTH"
);
},
{
closed = 1;
nodes = (
"471 917 LINE",
"399 917 LINE",
"340 824 LINE",
"385 807 LINE"
);
}
);
width = 756;
}
);
unicode = 01FE;
},
{
glyphname = Otilde;
layers = (
{
layerId = "D8D94703-76C4-4836-9DB2-440344724E35";
name = Regular;
paths = (
{
closed = 1;
nodes = (
"568 -5 OFFCURVE",
"711 165 OFFCURVE",
"711 354 CURVE SMOOTH",
"711 532 OFFCURVE",
"577 715 OFFCURVE",
"379 715 CURVE SMOOTH",
"189 715 OFFCURVE",
"45 544 OFFCURVE",
"45 355 CURVE SMOOTH",
"45 173 OFFCURVE",
"180 -5 OFFCURVE",
"378 -5 CURVE SMOOTH"
);
},
{
closed = 1;
nodes = (
"115 502 OFFCURVE",
"217 651 OFFCURVE",
"378 651 CURVE SMOOTH",
"532 651 OFFCURVE",
"641 509 OFFCURVE",
"641 355 CURVE SMOOTH",
"641 209 OFFCURVE",
"539 58 OFFCURVE",
"378 58 CURVE SMOOTH",
"222 58 OFFCURVE",
"115 201 OFFCURVE",
"115 355 CURVE SMOOTH"
);
},
{
closed = 1;
nodes = (
"522 825 OFFCURVE",
"539 904 OFFCURVE",
"539 917 CURVE",
"497 917 LINE",
"497 913 OFFCURVE",
"492 868 OFFCURVE",
"440 868 CURVE SMOOTH",
"390 868 OFFCURVE",
"368 910 OFFCURVE",
"312 910 CURVE SMOOTH",
"237 910 OFFCURVE",
"221 831 OFFCURVE",
"221 817 CURVE",
"263 817 LINE",
"263 822 OFFCURVE",
"269 865 OFFCURVE",
"313 865 CURVE SMOOTH",
"355 865 OFFCURVE",
"381 825 OFFCURVE",
"441 825 CURVE SMOOTH"
);
}
);
width = 756;
}
);
unicode = 00D5;
},
{
glyphname = P;
layers = (
{
layerId = "D8D94703-76C4-4836-9DB2-440344724E35";
name = Regular;
paths = (
{
closed = 1;
nodes = (
"159 0 LINE",
"159 262 LINE",
"390 262 LINE SMOOTH",
"512 262 OFFCURVE",
"594 371 OFFCURVE",
"594 487 CURVE SMOOTH",
"594 597 OFFCURVE",
"506 710 OFFCURVE",
"384 710 CURVE SMOOTH",
"90 710 LINE",
"90 0 LINE"
);
},
{
closed = 1;
nodes = (
"159 648 LINE",
"380 648 LINE SMOOTH",
"458 648 OFFCURVE",
"524 576 OFFCURVE",
"524 487 CURVE SMOOTH",
"524 401 OFFCURVE",
"470 324 OFFCURVE",
"386 324 CURVE SMOOTH",
"159 324 LINE"
);
}
);
width = 621;
}
);
unicode = 0050;
},
{
glyphname = P.sc;
layers = (
{
layerId = "D8D94703-76C4-4836-9DB2-440344724E35";
name = Regular;
paths = (
{
closed = 1;
nodes = (
"144 0 LINE",
"144 199 LINE",
"335 199 LINE SMOOTH",
"438 199 OFFCURVE",
"508 284 OFFCURVE",
"508 374 CURVE SMOOTH",
"508 459 OFFCURVE",
"433 548 OFFCURVE",
"329 548 CURVE SMOOTH",
"81 548 LINE",
"81 0 LINE"
);
},
{
closed = 1;
nodes = (
"144 492 LINE",
"326 492 LINE SMOOTH",
"391 492 OFFCURVE",
"445 439 OFFCURVE",
"445 374 CURVE SMOOTH",
"445 309 OFFCURVE",
"401 255 OFFCURVE",
"331 255 CURVE SMOOTH",
"144 255 LINE"
);
}
);
width = 539;
}
);
},
{
glyphname = Q;
layers = (
{
layerId = "D8D94703-76C4-4836-9DB2-440344724E35";
name = Regular;
paths = (
{
closed = 1;
nodes = (
"626 0 LINE",
"695 0 LINE",
"611 99 LINE",
"673 165 OFFCURVE",
"711 257 OFFCURVE",
"711 354 CURVE SMOOTH",
"711 532 OFFCURVE",
"577 715 OFFCURVE",
"379 715 CURVE SMOOTH",
"189 715 OFFCURVE",
"45 544 OFFCURVE",
"45 355 CURVE SMOOTH",
"45 173 OFFCURVE",
"180 -4 OFFCURVE",
"378 -5 CURVE SMOOTH",
"452 -5 OFFCURVE",
"518 21 OFFCURVE",
"572 63 CURVE"
);
},
{
closed = 1;
nodes = (
"222 58 OFFCURVE",
"115 201 OFFCURVE",
"115 355 CURVE SMOOTH",
"115 502 OFFCURVE",
"217 652 OFFCURVE",
"378 652 CURVE SMOOTH",
"532 652 OFFCURVE",
"641 509 OFFCURVE",
"641 355 CURVE SMOOTH",
"641 281 OFFCURVE",
"615 206 OFFCURVE",
"568 150 CURVE",
"511 218 LINE",
"442 218 LINE",
"531 112 LINE",
"489 79 OFFCURVE",
"438 58 OFFCURVE",
"378 58 CURVE SMOOTH"
);
}
);
width = 756;
}
);
unicode = 0051;
},
{
glyphname = Q.sc;
layers = (
{
layerId = "D8D94703-76C4-4836-9DB2-440344724E35";
name = Regular;
paths = (
{
closed = 1;
nodes = (
"533 0 LINE",
"595 0 LINE",
"524 78 LINE",
"575 129 OFFCURVE",
"606 199 OFFCURVE",
"606 273 CURVE SMOOTH",
"606 410 OFFCURVE",
"494 551 OFFCURVE",
"326 551 CURVE SMOOTH",
"165 551 OFFCURVE",
"45 419 OFFCURVE",
"45 274 CURVE SMOOTH",
"45 133 OFFCURVE",
"158 -4 OFFCURVE",
"326 -4 CURVE SMOOTH",
"388 -4 OFFCURVE",
"444 16 OFFCURVE",
"489 48 CURVE"
);
},
{
closed = 1;
nodes = (
"196 53 OFFCURVE",
"108 159 OFFCURVE",
"108 274 CURVE SMOOTH",
"108 382 OFFCURVE",
"193 495 OFFCURVE",
"326 495 CURVE SMOOTH",
"453 495 OFFCURVE",
"543 389 OFFCURVE",
"543 274 CURVE SMOOTH",
"543 219 OFFCURVE",
"522 164 OFFCURVE",
"484 122 CURVE",
"437 175 LINE",
"375 175 LINE",
"450 92 LINE",
"416 68 OFFCURVE",
"374 53 OFFCURVE",
"326 53 CURVE SMOOTH"
);
}
);
width = 651;
}
);
},
{
glyphname = R;
layers = (
{
layerId = "D8D94703-76C4-4836-9DB2-440344724E35";
name = Regular;
paths = (
{
closed = 1;
nodes = (
"159 0 LINE",
"159 262 LINE",
"369 262 LINE",
"537 0 LINE",
"616 0 LINE",
"441 274 LINE",
"536 293 OFFCURVE",
"600 384 OFFCURVE",
"600 487 CURVE SMOOTH",
"600 597 OFFCURVE",
"512 710 OFFCURVE",
"389 710 CURVE SMOOTH",
"90 710 LINE",
"90 0 LINE"
);
},
{
closed = 1;
nodes = (
"159 648 LINE",
"386 648 LINE SMOOTH",
"464 648 OFFCURVE",
"530 573 OFFCURVE",
"530 487 CURVE SMOOTH",
"530 403 OFFCURVE",
"476 324 OFFCURVE",
"392 324 CURVE SMOOTH",
"159 324 LINE"
);
}
);
width = 660;
}
);
unicode = 0052;
},
{
glyphname = R.sc;
layers = (
{
layerId = "D8D94703-76C4-4836-9DB2-440344724E35";
name = Regular;
paths = (
{
closed = 1;
nodes = (
"144 0 LINE",
"144 199 LINE",
"317 199 LINE",
"456 0 LINE",
"528 0 LINE",
"382 211 LINE",
"460 227 OFFCURVE",
"513 297 OFFCURVE",
"513 374 CURVE SMOOTH",
"513 459 OFFCURVE",
"438 548 OFFCURVE",
"335 548 CURVE SMOOTH",
"81 548 LINE",
"81 0 LINE"
);
},
{
closed = 1;
nodes = (
"144 492 LINE",
"331 492 LINE SMOOTH",
"397 492 OFFCURVE",
"450 437 OFFCURVE",
"450 374 CURVE SMOOTH",
"450 311 OFFCURVE",
"404 255 OFFCURVE",
"336 255 CURVE SMOOTH",
"144 255 LINE"
);
}
);
width = 571;
}
);
},
{
glyphname = Racute;
layers = (
{
layerId = "D8D94703-76C4-4836-9DB2-440344724E35";
name = Regular;
paths = (
{
closed = 1;
nodes = (
"411 919 LINE",
"339 919 LINE",
"280 826 LINE",
"325 809 LINE"
);
},
{
closed = 1;
nodes = (
"159 0 LINE",
"159 262 LINE",
"369 262 LINE",
"537 0 LINE",
"616 0 LINE",
"441 274 LINE",
"536 293 OFFCURVE",
"600 384 OFFCURVE",
"600 487 CURVE SMOOTH",
"600 597 OFFCURVE",
"512 710 OFFCURVE",
"389 710 CURVE SMOOTH",
"90 710 LINE",
"90 0 LINE"
);
},
{
closed = 1;
nodes = (
"159 648 LINE",
"386 648 LINE SMOOTH",
"464 648 OFFCURVE",
"530 573 OFFCURVE",
"530 487 CURVE SMOOTH",
"530 403 OFFCURVE",
"476 324 OFFCURVE",
"392 324 CURVE SMOOTH",
"159 324 LINE"
);
}
);
width = 660;
}
);
unicode = 0154;
},
{
glyphname = Rcaron;
layers = (
{
layerId = "D8D94703-76C4-4836-9DB2-440344724E35";
name = Regular;
paths = (
{
closed = 1;
nodes = (
"195 899 LINE",
"293 813 LINE",
"343 813 LINE",
"442 899 LINE",
"403 919 LINE",
"318 856 LINE",
"233 919 LINE"
);
},
{
closed = 1;
nodes = (
"159 0 LINE",
"159 262 LINE",
"369 262 LINE",
"537 0 LINE",
"616 0 LINE",
"441 274 LINE",
"536 293 OFFCURVE",
"600 384 OFFCURVE",
"600 487 CURVE SMOOTH",
"600 597 OFFCURVE",
"512 710 OFFCURVE",
"389 710 CURVE SMOOTH",
"90 710 LINE",
"90 0 LINE"
);
},
{
closed = 1;
nodes = (
"159 648 LINE",
"386 648 LINE SMOOTH",
"464 648 OFFCURVE",
"530 573 OFFCURVE",
"530 487 CURVE SMOOTH",
"530 403 OFFCURVE",
"476 324 OFFCURVE",
"392 324 CURVE SMOOTH",
"159 324 LINE"
);
}
);
width = 660;
}
);
unicode = 0158;
},
{
glyphname = Rcommaaccent;
layers = (
{
layerId = "D8D94703-76C4-4836-9DB2-440344724E35";
name = Regular;
paths = (
{
closed = 1;
nodes = (
"278 -165 LINE",
"324 -165 OFFCURVE",
"357 -154 OFFCURVE",
"357 -113 CURVE SMOOTH",
"357 -49 LINE",
"299 -49 LINE",
"299 -113 LINE SMOOTH",
"299 -126 OFFCURVE",
"293 -131 OFFCURVE",
"278 -131 CURVE"
);
},
{
closed = 1;
nodes = (
"159 0 LINE",
"159 262 LINE",
"369 262 LINE",
"537 0 LINE",
"616 0 LINE",
"441 274 LINE",
"536 293 OFFCURVE",
"600 384 OFFCURVE",
"600 487 CURVE SMOOTH",
"600 597 OFFCURVE",
"512 710 OFFCURVE",
"389 710 CURVE SMOOTH",
"90 710 LINE",
"90 0 LINE"
);
},
{
closed = 1;
nodes = (
"159 648 LINE",
"386 648 LINE SMOOTH",
"464 648 OFFCURVE",
"530 573 OFFCURVE",
"530 487 CURVE SMOOTH",
"530 403 OFFCURVE",
"476 324 OFFCURVE",
"392 324 CURVE SMOOTH",
"159 324 LINE"
);
}
);
width = 660;
}
);
unicode = 0156;
},
{
glyphname = S;
layers = (
{
layerId = "D8D94703-76C4-4836-9DB2-440344724E35";
name = Regular;
paths = (
{
closed = 1;
nodes = (
"540 633 LINE",
"481 685 OFFCURVE",
"407 715 OFFCURVE",
"314 715 CURVE SMOOTH",
"165 715 OFFCURVE",
"61 643 OFFCURVE",
"61 511 CURVE SMOOTH",
"61 396 OFFCURVE",
"139 360 OFFCURVE",
"287 326 CURVE SMOOTH",
"429 294 OFFCURVE",
"502 266 OFFCURVE",
"502 179 CURVE SMOOTH",
"502 97 OFFCURVE",
"434 56 OFFCURVE",
"321 56 CURVE SMOOTH",
"213 56 OFFCURVE",
"121 100 OFFCURVE",
"69 154 CURVE",
"35 97 LINE",
"113 29 OFFCURVE",
"209 -6 OFFCURVE",
"320 -6 CURVE SMOOTH",
"468 -6 OFFCURVE",
"575 55 OFFCURVE",
"575 186 CURVE SMOOTH",
"575 313 OFFCURVE",
"481 353 OFFCURVE",
"330 385 CURVE SMOOTH",
"193 415 OFFCURVE",
"132 437 OFFCURVE",
"132 521 CURVE SMOOTH",
"132 602 OFFCURVE",
"187 653 OFFCURVE",
"313 653 CURVE SMOOTH",
"397 653 OFFCURVE",
"467 622 OFFCURVE",
"507 577 CURVE"
);
}
);
width = 612;
}
);
unicode = 0053;
},
{
glyphname = S.sc;
layers = (
{
layerId = "D8D94703-76C4-4836-9DB2-440344724E35";
name = Regular;
paths = (
{
closed = 1;
nodes = (
"461 488 LINE",
"412 529 OFFCURVE",
"349 551 OFFCURVE",
"271 551 CURVE SMOOTH",
"149 551 OFFCURVE",
"60 496 OFFCURVE",
"60 394 CURVE SMOOTH",
"60 304 OFFCURVE",
"124 274 OFFCURVE",
"246 248 CURVE SMOOTH",
"362 224 OFFCURVE",
"423 203 OFFCURVE",
"423 139 CURVE SMOOTH",
"423 80 OFFCURVE",
"367 50 OFFCURVE",
"278 50 CURVE SMOOTH",
"187 50 OFFCURVE",
"113 83 OFFCURVE",
"69 125 CURVE",
"38 73 LINE",
"104 22 OFFCURVE",
"185 -5 OFFCURVE",
"276 -5 CURVE SMOOTH",
"400 -5 OFFCURVE",
"490 42 OFFCURVE",
"490 146 CURVE SMOOTH",
"490 245 OFFCURVE",
"411 274 OFFCURVE",
"287 300 CURVE SMOOTH",
"175 323 OFFCURVE",
"124 340 OFFCURVE",
"124 400 CURVE SMOOTH",
"124 460 OFFCURVE",
"169 496 OFFCURVE",
"271 496 CURVE SMOOTH",
"340 496 OFFCURVE",
"396 473 OFFCURVE",
"432 438 CURVE"
);
}
);
width = 529;
}
);
},
{
glyphname = Sacute;
layers = (
{
layerId = "D8D94703-76C4-4836-9DB2-440344724E35";
name = Regular;
paths = (
{
closed = 1;
nodes = (
"408 933 LINE",
"336 933 LINE",
"277 840 LINE",
"322 823 LINE"
);
},
{
closed = 1;
nodes = (
"540 633 LINE",
"481 685 OFFCURVE",
"407 715 OFFCURVE",
"314 715 CURVE SMOOTH",
"165 715 OFFCURVE",
"61 643 OFFCURVE",
"61 511 CURVE SMOOTH",
"61 396 OFFCURVE",
"139 360 OFFCURVE",
"287 326 CURVE SMOOTH",
"429 294 OFFCURVE",
"502 266 OFFCURVE",
"502 179 CURVE SMOOTH",
"502 97 OFFCURVE",
"434 56 OFFCURVE",
"321 56 CURVE SMOOTH",
"213 56 OFFCURVE",
"121 100 OFFCURVE",
"69 154 CURVE",
"35 97 LINE",
"113 29 OFFCURVE",
"209 -6 OFFCURVE",
"320 -6 CURVE SMOOTH",
"468 -6 OFFCURVE",
"575 55 OFFCURVE",
"575 186 CURVE SMOOTH",
"575 313 OFFCURVE",
"481 353 OFFCURVE",
"330 385 CURVE SMOOTH",
"193 415 OFFCURVE",
"132 437 OFFCURVE",
"132 521 CURVE SMOOTH",
"132 602 OFFCURVE",
"187 653 OFFCURVE",
"313 653 CURVE SMOOTH",
"397 653 OFFCURVE",
"467 622 OFFCURVE",
"507 577 CURVE"
);
}
);
width = 612;
}
);
unicode = 015A;
},
{
glyphname = Scaron;
layers = (
{
layerId = "D8D94703-76C4-4836-9DB2-440344724E35";
name = Regular;
paths = (
{
closed = 1;
nodes = (
"193 913 LINE",
"291 827 LINE",
"341 827 LINE",
"440 913 LINE",
"401 933 LINE",
"316 870 LINE",
"231 933 LINE"
);
},
{
closed = 1;
nodes = (
"540 633 LINE",
"481 685 OFFCURVE",
"407 715 OFFCURVE",
"314 715 CURVE SMOOTH",
"165 715 OFFCURVE",
"61 643 OFFCURVE",
"61 511 CURVE SMOOTH",
"61 396 OFFCURVE",
"139 360 OFFCURVE",
"287 326 CURVE SMOOTH",
"429 294 OFFCURVE",
"502 266 OFFCURVE",
"502 179 CURVE SMOOTH",
"502 97 OFFCURVE",
"434 56 OFFCURVE",
"321 56 CURVE SMOOTH",
"213 56 OFFCURVE",
"121 100 OFFCURVE",
"69 154 CURVE",
"35 97 LINE",
"113 29 OFFCURVE",
"209 -6 OFFCURVE",
"320 -6 CURVE SMOOTH",
"468 -6 OFFCURVE",
"575 55 OFFCURVE",
"575 186 CURVE SMOOTH",
"575 313 OFFCURVE",
"481 353 OFFCURVE",
"330 385 CURVE SMOOTH",
"193 415 OFFCURVE",
"132 437 OFFCURVE",
"132 521 CURVE SMOOTH",
"132 602 OFFCURVE",
"187 653 OFFCURVE",
"313 653 CURVE SMOOTH",
"397 653 OFFCURVE",
"467 622 OFFCURVE",
"507 577 CURVE"
);
}
);
width = 612;
}
);
unicode = 0160;
},
{
glyphname = Scircumflex;
layers = (
{
layerId = "D8D94703-76C4-4836-9DB2-440344724E35";
name = Regular;
paths = (
{
closed = 1;
nodes = (
"231 827 LINE",
"316 890 LINE",
"401 827 LINE",
"440 848 LINE",
"341 933 LINE",
"291 933 LINE",
"193 848 LINE"
);
},
{
closed = 1;
nodes = (
"540 633 LINE",
"481 685 OFFCURVE",
"407 715 OFFCURVE",
"314 715 CURVE SMOOTH",
"165 715 OFFCURVE",
"61 643 OFFCURVE",
"61 511 CURVE SMOOTH",
"61 396 OFFCURVE",
"139 360 OFFCURVE",
"287 326 CURVE SMOOTH",
"429 294 OFFCURVE",
"502 266 OFFCURVE",
"502 179 CURVE SMOOTH",
"502 97 OFFCURVE",
"434 56 OFFCURVE",
"321 56 CURVE SMOOTH",
"213 56 OFFCURVE",
"121 100 OFFCURVE",
"69 154 CURVE",
"35 97 LINE",
"113 29 OFFCURVE",
"209 -6 OFFCURVE",
"320 -6 CURVE SMOOTH",
"468 -6 OFFCURVE",
"575 55 OFFCURVE",
"575 186 CURVE SMOOTH",
"575 313 OFFCURVE",
"481 353 OFFCURVE",
"330 385 CURVE SMOOTH",
"193 415 OFFCURVE",
"132 437 OFFCURVE",
"132 521 CURVE SMOOTH",
"132 602 OFFCURVE",
"187 653 OFFCURVE",
"313 653 CURVE SMOOTH",
"397 653 OFFCURVE",
"467 622 OFFCURVE",
"507 577 CURVE"
);
}
);
width = 612;
}
);
unicode = 015C;
},
{
glyphname = T;
layers = (
{
layerId = "D8D94703-76C4-4836-9DB2-440344724E35";
name = Regular;
paths = (
{
closed = 1;
nodes = (
"595 710 LINE",
"19 710 LINE",
"19 648 LINE",
"272 648 LINE",
"272 0 LINE",
"342 0 LINE",
"342 648 LINE",
"595 648 LINE"
);
}
);
width = 614;
}
);
unicode = 0054;
},
{
glyphname = T.sc;
layers = (
{
layerId = "D8D94703-76C4-4836-9DB2-440344724E35";
name = Regular;
paths = (
{
closed = 1;
nodes = (
"511 548 LINE",
"25 548 LINE",
"25 492 LINE",
"237 492 LINE",
"237 0 LINE",
"300 0 LINE",
"300 492 LINE",
"511 492 LINE"
);
}
);
width = 536;
}
);
},
{
glyphname = Tbar;
layers = (
{
layerId = "D8D94703-76C4-4836-9DB2-440344724E35";
name = Regular;
paths = (
{
closed = 1;
nodes = (
"613 710 LINE",
"37 710 LINE",
"37 648 LINE",
"290 648 LINE",
"290 405 LINE",
"70 405 LINE",
"70 366 LINE",
"290 366 LINE",
"290 0 LINE",
"360 0 LINE",
"360 366 LINE",
"580 366 LINE",
"580 405 LINE",
"360 405 LINE",
"360 648 LINE",
"613 648 LINE"
);
}
);
width = 651;
}
);
unicode = 0166;
},
{
glyphname = Tcaron;
layers = (
{
layerId = "D8D94703-76C4-4836-9DB2-440344724E35";
name = Regular;
paths = (
{
closed = 1;
nodes = (
"186 897 LINE",
"284 811 LINE",
"334 811 LINE",
"433 897 LINE",
"394 917 LINE",
"309 854 LINE",
"224 917 LINE"
);
},
{
closed = 1;
nodes = (
"595 710 LINE",
"19 710 LINE",
"19 648 LINE",
"272 648 LINE",
"272 0 LINE",
"342 0 LINE",
"342 648 LINE",
"595 648 LINE"
);
}
);
width = 614;
}
);
unicode = 0164;
},
{
glyphname = Thorn;
layers = (
{
layerId = "D8D94703-76C4-4836-9DB2-440344724E35";
name = Regular;
paths = (
{
closed = 1;
nodes = (
"159 569 LINE",
"159 710 LINE",
"90 710 LINE",
"90 0 LINE",
"159 0 LINE",
"159 121 LINE",
"371 121 LINE SMOOTH",
"493 121 OFFCURVE",
"576 230 OFFCURVE",
"576 346 CURVE SMOOTH",
"576 456 OFFCURVE",
"487 569 OFFCURVE",
"365 569 CURVE SMOOTH"
);
},
{
closed = 1;
nodes = (
"159 184 LINE",
"159 507 LINE",
"362 507 LINE SMOOTH",
"441 507 OFFCURVE",
"506 432 OFFCURVE",
"506 346 CURVE SMOOTH",
"506 263 OFFCURVE",
"453 184 OFFCURVE",
"369 184 CURVE SMOOTH"
);
}
);
width = 606;
}
);
unicode = 00DE;
},
{
glyphname = U;
layers = (
{
layerId = "D8D94703-76C4-4836-9DB2-440344724E35";
name = Regular;
paths = (
{
closed = 1;
nodes = (
"201 58 OFFCURVE",
"148 203 OFFCURVE",
"148 352 CURVE SMOOTH",
"148 710 LINE",
"79 710 LINE",
"79 352 LINE SMOOTH",
"79 171 OFFCURVE",
"152 -5 OFFCURVE",
"378 -5 CURVE SMOOTH",
"596 -5 OFFCURVE",
"677 161 OFFCURVE",
"677 352 CURVE SMOOTH",
"677 710 LINE",
"607 710 LINE",
"607 352 LINE SMOOTH",
"607 207 OFFCURVE",
"557 58 OFFCURVE",
"377 58 CURVE SMOOTH"
);
}
);
width = 755;
}
);
unicode = 0055;
},
{
glyphname = U.sc;
layers = (
{
layerId = "D8D94703-76C4-4836-9DB2-440344724E35";
name = Regular;
paths = (
{
closed = 1;
nodes = (
"178 53 OFFCURVE",
"134 160 OFFCURVE",
"134 271 CURVE SMOOTH",
"134 548 LINE",
"71 548 LINE",
"71 271 LINE SMOOTH",
"71 131 OFFCURVE",
"134 -4 OFFCURVE",
"322 -4 CURVE SMOOTH",
"505 -4 OFFCURVE",
"573 123 OFFCURVE",
"573 271 CURVE SMOOTH",
"573 548 LINE",
"510 548 LINE",
"510 271 LINE SMOOTH",
"510 163 OFFCURVE",
"469 53 OFFCURVE",
"321 53 CURVE SMOOTH"
);
}
);
width = 645;
}
);
},
{
glyphname = Uacute;
layers = (
{
layerId = "D8D94703-76C4-4836-9DB2-440344724E35";
name = Regular;
paths = (
{
closed = 1;
nodes = (
"470 917 LINE",
"398 917 LINE",
"339 824 LINE",
"384 807 LINE"
);
},
{
closed = 1;
nodes = (
"201 58 OFFCURVE",
"148 203 OFFCURVE",
"148 352 CURVE SMOOTH",
"148 710 LINE",
"79 710 LINE",
"79 352 LINE SMOOTH",
"79 171 OFFCURVE",
"152 -5 OFFCURVE",
"378 -5 CURVE SMOOTH",
"596 -5 OFFCURVE",
"677 161 OFFCURVE",
"677 352 CURVE SMOOTH",
"677 710 LINE",
"607 710 LINE",
"607 352 LINE SMOOTH",
"607 207 OFFCURVE",
"557 58 OFFCURVE",
"377 58 CURVE SMOOTH"
);
}
);
width = 755;
}
);
unicode = 00DA;
},
{
glyphname = Ubreve;
layers = (
{
layerId = "D8D94703-76C4-4836-9DB2-440344724E35";
name = Regular;
paths = (
{
closed = 1;
nodes = (
"201 58 OFFCURVE",
"148 203 OFFCURVE",
"148 352 CURVE SMOOTH",
"148 710 LINE",
"79 710 LINE",
"79 352 LINE SMOOTH",
"79 171 OFFCURVE",
"152 -5 OFFCURVE",
"378 -5 CURVE SMOOTH",
"596 -5 OFFCURVE",
"677 161 OFFCURVE",
"677 352 CURVE SMOOTH",
"677 710 LINE",
"607 710 LINE",
"607 352 LINE SMOOTH",
"607 207 OFFCURVE",
"557 58 OFFCURVE",
"377 58 CURVE SMOOTH"
);
},
{
closed = 1;
nodes = (
"349 851 OFFCURVE",
"322 883 OFFCURVE",
"322 917 CURVE",
"280 917 LINE",
"280 860 OFFCURVE",
"323 816 OFFCURVE",
"378 816 CURVE SMOOTH",
"432 816 OFFCURVE",
"476 860 OFFCURVE",
"476 917 CURVE",
"435 917 LINE",
"431 880 OFFCURVE",
"406 851 OFFCURVE",
"378 851 CURVE SMOOTH"
);
}
);
width = 755;
}
);
unicode = 016C;
},
{
glyphname = Ucircumflex;
layers = (
{
layerId = "D8D94703-76C4-4836-9DB2-440344724E35";
name = Regular;
paths = (
{
closed = 1;
nodes = (
"293 811 LINE",
"378 874 LINE",
"463 811 LINE",
"502 832 LINE",
"403 917 LINE",
"353 917 LINE",
"255 832 LINE"
);
},
{
closed = 1;
nodes = (
"201 58 OFFCURVE",
"148 203 OFFCURVE",
"148 352 CURVE SMOOTH",
"148 710 LINE",
"79 710 LINE",
"79 352 LINE SMOOTH",
"79 171 OFFCURVE",
"152 -5 OFFCURVE",
"378 -5 CURVE SMOOTH",
"596 -5 OFFCURVE",
"677 161 OFFCURVE",
"677 352 CURVE SMOOTH",
"677 710 LINE",
"607 710 LINE",
"607 352 LINE SMOOTH",
"607 207 OFFCURVE",
"557 58 OFFCURVE",
"377 58 CURVE SMOOTH"
);
}
);
width = 755;
}
);
unicode = 00DB;
},
{
glyphname = Udieresis;
layers = (
{
layerId = "D8D94703-76C4-4836-9DB2-440344724E35";
name = Regular;
paths = (
{
closed = 1;
nodes = (
"333 820 LINE",
"333 914 LINE",
"275 914 LINE",
"275 820 LINE"
);
},
{
closed = 1;
nodes = (
"482 820 LINE",
"482 914 LINE",
"424 914 LINE",
"424 820 LINE"
);
},
{
closed = 1;
nodes = (
"201 58 OFFCURVE",
"148 203 OFFCURVE",
"148 352 CURVE SMOOTH",
"148 710 LINE",
"79 710 LINE",
"79 352 LINE SMOOTH",
"79 171 OFFCURVE",
"152 -5 OFFCURVE",
"378 -5 CURVE SMOOTH",
"596 -5 OFFCURVE",
"677 161 OFFCURVE",
"677 352 CURVE SMOOTH",
"677 710 LINE",
"607 710 LINE",
"607 352 LINE SMOOTH",
"607 207 OFFCURVE",
"557 58 OFFCURVE",
"377 58 CURVE SMOOTH"
);
}
);
width = 755;
}
);
unicode = 00DC;
},
{
glyphname = Ugrave;
layers = (
{
layerId = "D8D94703-76C4-4836-9DB2-440344724E35";
name = Regular;
paths = (
{
closed = 1;
nodes = (
"201 58 OFFCURVE",
"148 203 OFFCURVE",
"148 352 CURVE SMOOTH",
"148 710 LINE",
"79 710 LINE",
"79 352 LINE SMOOTH",
"79 171 OFFCURVE",
"152 -5 OFFCURVE",
"378 -5 CURVE SMOOTH",
"596 -5 OFFCURVE",
"677 161 OFFCURVE",
"677 352 CURVE SMOOTH",
"677 710 LINE",
"607 710 LINE",
"607 352 LINE SMOOTH",
"607 207 OFFCURVE",
"557 58 OFFCURVE",
"377 58 CURVE SMOOTH"
);
},
{
closed = 1;
nodes = (
"372 807 LINE",
"416 824 LINE",
"356 917 LINE",
"285 917 LINE"
);
}
);
width = 755;
}
);
unicode = 00D9;
},
{
glyphname = Uhungarumlaut;
layers = (
{
layerId = "D8D94703-76C4-4836-9DB2-440344724E35";
name = Regular;
paths = (
{
closed = 1;
nodes = (
"201 58 OFFCURVE",
"148 203 OFFCURVE",
"148 352 CURVE SMOOTH",
"148 710 LINE",
"79 710 LINE",
"79 352 LINE SMOOTH",
"79 171 OFFCURVE",
"152 -5 OFFCURVE",
"378 -5 CURVE SMOOTH",
"596 -5 OFFCURVE",
"677 161 OFFCURVE",
"677 352 CURVE SMOOTH",
"677 710 LINE",
"607 710 LINE",
"607 352 LINE SMOOTH",
"607 207 OFFCURVE",
"557 58 OFFCURVE",
"377 58 CURVE SMOOTH"
);
},
{
closed = 1;
nodes = (
"398 917 LINE",
"334 917 LINE",
"277 824 LINE",
"314 807 LINE"
);
},
{
closed = 1;
nodes = (
"523 917 LINE",
"459 917 LINE",
"402 824 LINE",
"440 807 LINE"
);
}
);
width = 755;
}
);
unicode = 0170;
},
{
glyphname = Umacron;
layers = (
{
layerId = "D8D94703-76C4-4836-9DB2-440344724E35";
name = Regular;
paths = (
{
closed = 1;
nodes = (
"201 58 OFFCURVE",
"148 203 OFFCURVE",
"148 352 CURVE SMOOTH",
"148 710 LINE",
"79 710 LINE",
"79 352 LINE SMOOTH",
"79 171 OFFCURVE",
"152 -5 OFFCURVE",
"378 -5 CURVE SMOOTH",
"596 -5 OFFCURVE",
"677 161 OFFCURVE",
"677 352 CURVE SMOOTH",
"677 710 LINE",
"607 710 LINE",
"607 352 LINE SMOOTH",
"607 207 OFFCURVE",
"557 58 OFFCURVE",
"377 58 CURVE SMOOTH"
);
},
{
closed = 1;
nodes = (
"523 850 LINE",
"523 897 LINE",
"234 897 LINE",
"234 850 LINE"
);
}
);
width = 755;
}
);
unicode = 016A;
},
{
glyphname = Uogonek;
layers = (
{
layerId = "D8D94703-76C4-4836-9DB2-440344724E35";
name = Regular;
paths = (
{
closed = 1;
nodes = (
"201 58 OFFCURVE",
"148 203 OFFCURVE",
"148 352 CURVE SMOOTH",
"148 710 LINE",
"79 710 LINE",
"79 352 LINE SMOOTH",
"79 179 OFFCURVE",
"145 10 OFFCURVE",
"349 -4 CURVE",
"298 -40 OFFCURVE",
"275 -72 OFFCURVE",
"275 -105 CURVE SMOOTH",
"275 -140 OFFCURVE",
"301 -168 OFFCURVE",
"350 -178 CURVE",
"369 -140 LINE",
"334 -135 OFFCURVE",
"317 -120 OFFCURVE",
"317 -96 CURVE SMOOTH",
"317 -67 OFFCURVE",
"339 -41 OFFCURVE",
"397 -4 CURVE",
"600 5 OFFCURVE",
"677 166 OFFCURVE",
"677 352 CURVE SMOOTH",
"677 710 LINE",
"607 710 LINE",
"607 352 LINE SMOOTH",
"607 207 OFFCURVE",
"557 58 OFFCURVE",
"377 58 CURVE SMOOTH"
);
}
);
width = 755;
}
);
unicode = 0172;
},
{
glyphname = Uring;
layers = (
{
layerId = "D8D94703-76C4-4836-9DB2-440344724E35";
name = Regular;
paths = (
{
closed = 1;
nodes = (
"304 812 OFFCURVE",
"335 786 OFFCURVE",
"378 786 CURVE SMOOTH",
"421 786 OFFCURVE",
"452 812 OFFCURVE",
"452 852 CURVE SMOOTH",
"452 891 OFFCURVE",
"421 917 OFFCURVE",
"378 917 CURVE SMOOTH",
"335 917 OFFCURVE",
"304 891 OFFCURVE",
"304 852 CURVE SMOOTH"
);
},
{
closed = 1;
nodes = (
"401 890 OFFCURVE",
"419 875 OFFCURVE",
"419 852 CURVE SMOOTH",
"419 829 OFFCURVE",
"399 813 OFFCURVE",
"378 813 CURVE SMOOTH",
"355 813 OFFCURVE",
"338 830 OFFCURVE",
"338 852 CURVE SMOOTH",
"338 875 OFFCURVE",
"356 890 OFFCURVE",
"378 890 CURVE SMOOTH"
);
},
{
closed = 1;
nodes = (
"201 58 OFFCURVE",
"148 203 OFFCURVE",
"148 352 CURVE SMOOTH",
"148 710 LINE",
"79 710 LINE",
"79 352 LINE SMOOTH",
"79 171 OFFCURVE",
"152 -5 OFFCURVE",
"378 -5 CURVE SMOOTH",
"596 -5 OFFCURVE",
"677 161 OFFCURVE",
"677 352 CURVE SMOOTH",
"677 710 LINE",
"607 710 LINE",
"607 352 LINE SMOOTH",
"607 207 OFFCURVE",
"557 58 OFFCURVE",
"377 58 CURVE SMOOTH"
);
}
);
width = 755;
}
);
unicode = 016E;
},
{
glyphname = Utilde;
layers = (
{
layerId = "D8D94703-76C4-4836-9DB2-440344724E35";
name = Regular;
paths = (
{
closed = 1;
nodes = (
"201 58 OFFCURVE",
"148 203 OFFCURVE",
"148 352 CURVE SMOOTH",
"148 710 LINE",
"79 710 LINE",
"79 352 LINE SMOOTH",
"79 171 OFFCURVE",
"152 -5 OFFCURVE",
"378 -5 CURVE SMOOTH",
"596 -5 OFFCURVE",
"677 161 OFFCURVE",
"677 352 CURVE SMOOTH",
"677 710 LINE",
"607 710 LINE",
"607 352 LINE SMOOTH",
"607 207 OFFCURVE",
"557 58 OFFCURVE",
"377 58 CURVE SMOOTH"
);
},
{
closed = 1;
nodes = (
"521 825 OFFCURVE",
"538 904 OFFCURVE",
"538 917 CURVE",
"496 917 LINE",
"496 913 OFFCURVE",
"491 868 OFFCURVE",
"439 868 CURVE SMOOTH",
"389 868 OFFCURVE",
"367 910 OFFCURVE",
"311 910 CURVE SMOOTH",
"236 910 OFFCURVE",
"220 831 OFFCURVE",
"220 817 CURVE",
"262 817 LINE",
"262 822 OFFCURVE",
"268 865 OFFCURVE",
"312 865 CURVE SMOOTH",
"354 865 OFFCURVE",
"380 825 OFFCURVE",
"440 825 CURVE SMOOTH"
);
}
);
width = 755;
}
);
unicode = 0168;
},
{
glyphname = V;
layers = (
{
layerId = "D8D94703-76C4-4836-9DB2-440344724E35";
name = Regular;
paths = (
{
closed = 1;
nodes = (
"12 710 LINE",
"308 0 LINE",
"369 0 LINE",
"665 710 LINE",
"591 710 LINE",
"339 87 LINE",
"85 710 LINE"
);
}
);
width = 677;
}
);
unicode = 0056;
},
{
glyphname = V.sc;
layers = (
{
layerId = "D8D94703-76C4-4836-9DB2-440344724E35";
name = Regular;
paths = (
{
closed = 1;
nodes = (
"17 548 LINE",
"266 0 LINE",
"321 0 LINE",
"570 548 LINE",
"503 548 LINE",
"294 87 LINE",
"84 548 LINE"
);
}
);
width = 588;
}
);
},
{
color = 4;
glyphname = W;
lastChange = "2014-10-26 08:34:32 +0100";
layers = (
{
layerId = "D8D94703-76C4-4836-9DB2-440344724E35";
name = Regular;
paths = (
{
closed = 1;
nodes = (
"960 710 LINE",
"771 101 LINE",
"563 710 LINE",
"487 710 LINE",
"287 101 LINE",
"97 710 LINE",
"19 710 LINE",
"245 0 LINE",
"318 0 LINE",
"526 597 LINE",
"740 0 LINE",
"813 0 LINE",
"1039 710 LINE"
);
}
);
width = 1046;
}
);
unicode = 0057;
},
{
color = 4;
glyphname = W.sc;
lastChange = "2014-10-26 20:28:44 +0100";
layers = (
{
layerId = "D8D94703-76C4-4836-9DB2-440344724E35";
name = Regular;
paths = (
{
closed = 1;
nodes = (
"668 0 LINE",
"860 548 LINE",
"787 548 LINE",
"628 90 LINE",
"483 548 LINE",
"413 548 LINE",
"268 90 LINE",
"110 548 LINE",
"35 548 LINE",
"228 0 LINE",
"303 0 LINE",
"448 440 LINE",
"593 0 LINE"
);
}
);
width = 899;
}
);
},
{
color = 4;
glyphname = Wacute;
lastChange = "2014-10-26 20:30:35 +0100";
layers = (
{
components = (
{
name = acute;
transform = "{1, 0, 0, 1, 434, 187}";
}
);
layerId = "D8D94703-76C4-4836-9DB2-440344724E35";
name = Regular;
paths = (
{
closed = 1;
nodes = (
"960 710 LINE",
"771 101 LINE",
"563 710 LINE",
"487 710 LINE",
"287 101 LINE",
"97 710 LINE",
"19 710 LINE",
"245 0 LINE",
"318 0 LINE",
"526 597 LINE",
"740 0 LINE",
"813 0 LINE",
"1039 710 LINE"
);
}
);
width = 1046;
}
);
unicode = 1E82;
},
{
color = 4;
glyphname = Wcircumflex;
lastChange = "2014-10-26 20:30:35 +0100";
layers = (
{
components = (
{
name = circumflex;
transform = "{1, 0, 0, 1, 357, 187}";
}
);
layerId = "D8D94703-76C4-4836-9DB2-440344724E35";
name = Regular;
paths = (
{
closed = 1;
nodes = (
"960 710 LINE",
"771 101 LINE",
"563 710 LINE",
"487 710 LINE",
"287 101 LINE",
"97 710 LINE",
"19 710 LINE",
"245 0 LINE",
"318 0 LINE",
"526 597 LINE",
"740 0 LINE",
"813 0 LINE",
"1039 710 LINE"
);
}
);
width = 1046;
}
);
unicode = 0174;
},
{
color = 4;
glyphname = Wdieresis;
lastChange = "2014-10-26 20:30:35 +0100";
layers = (
{
components = (
{
name = dieresis;
transform = "{1, 0, 0, 1, 357, 187}";
}
);
layerId = "D8D94703-76C4-4836-9DB2-440344724E35";
name = Regular;
paths = (
{
closed = 1;
nodes = (
"960 710 LINE",
"771 101 LINE",
"563 710 LINE",
"487 710 LINE",
"287 101 LINE",
"97 710 LINE",
"19 710 LINE",
"245 0 LINE",
"318 0 LINE",
"526 597 LINE",
"740 0 LINE",
"813 0 LINE",
"1039 710 LINE"
);
}
);
width = 1046;
}
);
unicode = 1E84;
},
{
color = 4;
glyphname = Wgrave;
lastChange = "2014-10-26 20:30:35 +0100";
layers = (
{
components = (
{
name = grave;
transform = "{1, 0, 0, 1, 381, 187}";
}
);
layerId = "D8D94703-76C4-4836-9DB2-440344724E35";
name = Regular;
paths = (
{
closed = 1;
nodes = (
"960 710 LINE",
"771 101 LINE",
"563 710 LINE",
"487 710 LINE",
"287 101 LINE",
"97 710 LINE",
"19 710 LINE",
"245 0 LINE",
"318 0 LINE",
"526 597 LINE",
"740 0 LINE",
"813 0 LINE",
"1039 710 LINE"
);
}
);
width = 1046;
}
);
unicode = 1E80;
},
{
color = 4;
glyphname = X;
lastChange = "2014-10-26 20:30:35 +0100";
layers = (
{
layerId = "D8D94703-76C4-4836-9DB2-440344724E35";
name = Regular;
paths = (
{
closed = 1;
nodes = (
"5 710 LINE",
"278 350 LINE",
"13 0 LINE",
"91 0 LINE",
"316 300 LINE",
"541 0 LINE",
"618 0 LINE",
"353 350 LINE",
"626 710 LINE",
"549 710 LINE",
"316 400 LINE",
"83 710 LINE"
);
}
);
width = 631;
}
);
unicode = 0058;
},
{
glyphname = X.sc;
layers = (
{
layerId = "D8D94703-76C4-4836-9DB2-440344724E35";
name = Regular;
paths = (
{
closed = 1;
nodes = (
"13 548 LINE",
"242 270 LINE",
"20 0 LINE",
"90 0 LINE",
"276 225 LINE",
"463 0 LINE",
"532 0 LINE",
"310 270 LINE",
"539 548 LINE",
"469 548 LINE",
"276 315 LINE",
"83 548 LINE"
);
}
);
width = 553;
}
);
},
{
glyphname = Y;
layers = (
{
layerId = "D8D94703-76C4-4836-9DB2-440344724E35";
name = Regular;
paths = (
{
closed = 1;
nodes = (
"8 710 LINE",
"282 266 LINE",
"282 0 LINE",
"351 0 LINE",
"351 264 LINE",
"627 710 LINE",
"551 710 LINE",
"317 328 LINE",
"84 710 LINE"
);
}
);
width = 634;
}
);
unicode = 0059;
},
{
glyphname = Y.sc;
layers = (
{
layerId = "D8D94703-76C4-4836-9DB2-440344724E35";
name = Regular;
paths = (
{
closed = 1;
nodes = (
"14 548 LINE",
"244 203 LINE",
"244 0 LINE",
"306 0 LINE",
"306 202 LINE",
"538 548 LINE",
"469 548 LINE",
"275 258 LINE",
"82 548 LINE"
);
}
);
width = 550;
}
);
},
{
glyphname = Yacute;
layers = (
{
layerId = "D8D94703-76C4-4836-9DB2-440344724E35";
name = Regular;
paths = (
{
closed = 1;
nodes = (
"8 710 LINE",
"282 266 LINE",
"282 0 LINE",
"351 0 LINE",
"351 264 LINE",
"627 710 LINE",
"551 710 LINE",
"317 328 LINE",
"84 710 LINE"
);
},
{
closed = 1;
nodes = (
"409 917 LINE",
"337 917 LINE",
"278 824 LINE",
"323 807 LINE"
);
}
);
width = 634;
}
);
unicode = 00DD;
},
{
glyphname = Ycircumflex;
layers = (
{
layerId = "D8D94703-76C4-4836-9DB2-440344724E35";
name = Regular;
paths = (
{
closed = 1;
nodes = (
"8 710 LINE",
"282 266 LINE",
"282 0 LINE",
"351 0 LINE",
"351 264 LINE",
"627 710 LINE",
"551 710 LINE",
"317 328 LINE",
"84 710 LINE"
);
},
{
closed = 1;
nodes = (
"231 811 LINE",
"316 874 LINE",
"401 811 LINE",
"440 832 LINE",
"341 917 LINE",
"291 917 LINE",
"193 832 LINE"
);
}
);
width = 634;
}
);
unicode = 0176;
},
{
glyphname = Ydieresis;
layers = (
{
layerId = "D8D94703-76C4-4836-9DB2-440344724E35";
name = Regular;
paths = (
{
closed = 1;
nodes = (
"8 710 LINE",
"282 266 LINE",
"282 0 LINE",
"351 0 LINE",
"351 264 LINE",
"627 710 LINE",
"551 710 LINE",
"317 328 LINE",
"84 710 LINE"
);
},
{
closed = 1;
nodes = (
"271 820 LINE",
"271 914 LINE",
"213 914 LINE",
"213 820 LINE"
);
},
{
closed = 1;
nodes = (
"420 820 LINE",
"420 914 LINE",
"362 914 LINE",
"362 820 LINE"
);
}
);
width = 634;
}
);
unicode = 0178;
},
{
glyphname = Ygrave;
layers = (
{
layerId = "D8D94703-76C4-4836-9DB2-440344724E35";
name = Regular;
paths = (
{
closed = 1;
nodes = (
"8 710 LINE",
"282 266 LINE",
"282 0 LINE",
"351 0 LINE",
"351 264 LINE",
"627 710 LINE",
"551 710 LINE",
"317 328 LINE",
"84 710 LINE"
);
},
{
closed = 1;
nodes = (
"311 807 LINE",
"355 824 LINE",
"295 917 LINE",
"224 917 LINE"
);
}
);
width = 634;
}
);
unicode = 1EF2;
},
{
glyphname = Ytilde;
layers = (
{
layerId = "D8D94703-76C4-4836-9DB2-440344724E35";
name = Regular;
paths = (
{
closed = 1;
nodes = (
"8 710 LINE",
"282 266 LINE",
"282 0 LINE",
"351 0 LINE",
"351 264 LINE",
"627 710 LINE",
"551 710 LINE",
"317 328 LINE",
"84 710 LINE"
);
},
{
closed = 1;
nodes = (
"459 825 OFFCURVE",
"476 904 OFFCURVE",
"476 917 CURVE",
"434 917 LINE",
"434 913 OFFCURVE",
"429 868 OFFCURVE",
"377 868 CURVE SMOOTH",
"327 868 OFFCURVE",
"305 910 OFFCURVE",
"249 910 CURVE SMOOTH",
"174 910 OFFCURVE",
"158 831 OFFCURVE",
"158 817 CURVE",
"200 817 LINE",
"200 822 OFFCURVE",
"206 865 OFFCURVE",
"250 865 CURVE SMOOTH",
"292 865 OFFCURVE",
"318 825 OFFCURVE",
"378 825 CURVE SMOOTH"
);
}
);
width = 634;
}
);
unicode = 1EF8;
},
{
glyphname = Z;
layers = (
{
layerId = "D8D94703-76C4-4836-9DB2-440344724E35";
name = Regular;
paths = (
{
closed = 1;
nodes = (
"28 0 LINE",
"591 0 LINE",
"591 62 LINE",
"115 62 LINE",
"592 655 LINE",
"592 710 LINE",
"36 710 LINE",
"36 648 LINE",
"511 648 LINE",
"28 55 LINE"
);
}
);
width = 624;
}
);
unicode = 005A;
},
{
glyphname = Z.sc;
layers = (
{
layerId = "D8D94703-76C4-4836-9DB2-440344724E35";
name = Regular;
paths = (
{
closed = 1;
nodes = (
"35 0 LINE",
"510 0 LINE",
"510 56 LINE",
"114 56 LINE",
"511 498 LINE",
"511 548 LINE",
"42 548 LINE",
"42 492 LINE",
"437 492 LINE",
"35 49 LINE"
);
}
);
width = 549;
}
);
},
{
glyphname = Zacute;
lastChange = "2014-10-26 08:36:06 +0100";
layers = (
{
components = (
{
name = acute;
transform = "{1, 0, 0, 1, 240, 189}";
}
);
layerId = "D8D94703-76C4-4836-9DB2-440344724E35";
name = Regular;
paths = (
{
closed = 1;
nodes = (
"28 0 LINE",
"591 0 LINE",
"591 62 LINE",
"115 62 LINE",
"592 655 LINE",
"592 710 LINE",
"36 710 LINE",
"36 648 LINE",
"511 648 LINE",
"28 55 LINE"
);
}
);
width = 624;
}
);
unicode = 0179;
},
{
glyphname = Zcaron;
layers = (
{
layerId = "D8D94703-76C4-4836-9DB2-440344724E35";
name = Regular;
paths = (
{
closed = 1;
nodes = (
"205 897 LINE",
"303 811 LINE",
"353 811 LINE",
"452 897 LINE",
"413 917 LINE",
"328 854 LINE",
"243 917 LINE"
);
},
{
closed = 1;
nodes = (
"28 0 LINE",
"591 0 LINE",
"591 62 LINE",
"115 62 LINE",
"592 655 LINE",
"592 710 LINE",
"36 710 LINE",
"36 648 LINE",
"511 648 LINE",
"28 55 LINE"
);
}
);
width = 624;
}
);
unicode = 017D;
},
{
glyphname = Zdotaccent;
layers = (
{
layerId = "D8D94703-76C4-4836-9DB2-440344724E35";
name = Regular;
paths = (
{
closed = 1;
nodes = (
"28 0 LINE",
"591 0 LINE",
"591 62 LINE",
"115 62 LINE",
"592 655 LINE",
"592 710 LINE",
"36 710 LINE",
"36 648 LINE",
"511 648 LINE",
"28 55 LINE"
);
},
{
closed = 1;
nodes = (
"359 820 LINE",
"359 917 LINE",
"297 917 LINE",
"297 820 LINE"
);
}
);
width = 624;
}
);
unicode = 017B;
},
{
color = 4;
glyphname = a;
lastChange = "2014-10-28 11:19:45 +0100";
layers = (
{
layerId = "D8D94703-76C4-4836-9DB2-440344724E35";
name = Regular;
paths = (
{
closed = 1;
nodes = (
"141 42 OFFCURVE",
"98 100 OFFCURVE",
"98 155 CURVE SMOOTH",
"98 224 OFFCURVE",
"165 266 OFFCURVE",
"262 266 CURVE SMOOTH",
"309 266 OFFCURVE",
"360 256 OFFCURVE",
"405 239 CURVE",
"405 154 LINE SMOOTH",
"405 142 OFFCURVE",
"397 127 OFFCURVE",
"388 115 CURVE SMOOTH",
"354 70 OFFCURVE",
"288 42 OFFCURVE",
"228 42 CURVE SMOOTH"
);
},
{
closed = 1;
nodes = (
"473 0 LINE",
"473 323 LINE SMOOTH",
"473 445 OFFCURVE",
"399 530 OFFCURVE",
"263 530 CURVE SMOOTH",
"191 530 OFFCURVE",
"125 501 OFFCURVE",
"67 462 CURVE",
"91 417 LINE",
"148 457 OFFCURVE",
"205 479 OFFCURVE",
"257 479 CURVE SMOOTH",
"349 479 OFFCURVE",
"405 419 OFFCURVE",
"405 329 CURVE SMOOTH",
"405 282 LINE",
"378 294 OFFCURVE",
"323 309 OFFCURVE",
"251 309 CURVE SMOOTH",
"148 309 OFFCURVE",
"32 262 OFFCURVE",
"32 152 CURVE SMOOTH",
"32 61 OFFCURVE",
"108 -10 OFFCURVE",
"205 -10 CURVE SMOOTH",
"283 -10 OFFCURVE",
"360 19 OFFCURVE",
"407 82 CURVE",
"407 0 LINE"
);
}
);
width = 530;
}
);
unicode = 0061;
},
{
color = 4;
glyphname = aacute;
lastChange = "2014-10-28 11:19:45 +0100";
layers = (
{
layerId = "D8D94703-76C4-4836-9DB2-440344724E35";
name = Regular;
paths = (
{
closed = 1;
nodes = (
"355 730 LINE",
"283 730 LINE",
"224 637 LINE",
"269 620 LINE"
);
},
{
closed = 1;
nodes = (
"141 42 OFFCURVE",
"98 100 OFFCURVE",
"98 155 CURVE SMOOTH",
"98 224 OFFCURVE",
"165 266 OFFCURVE",
"262 266 CURVE SMOOTH",
"309 266 OFFCURVE",
"360 256 OFFCURVE",
"405 239 CURVE",
"405 154 LINE SMOOTH",
"405 142 OFFCURVE",
"397 127 OFFCURVE",
"388 115 CURVE SMOOTH",
"354 70 OFFCURVE",
"288 42 OFFCURVE",
"228 42 CURVE SMOOTH"
);
},
{
closed = 1;
nodes = (
"473 0 LINE",
"473 323 LINE SMOOTH",
"473 445 OFFCURVE",
"399 530 OFFCURVE",
"263 530 CURVE SMOOTH",
"191 530 OFFCURVE",
"125 501 OFFCURVE",
"67 462 CURVE",
"91 417 LINE",
"148 457 OFFCURVE",
"205 479 OFFCURVE",
"257 479 CURVE SMOOTH",
"349 479 OFFCURVE",
"405 419 OFFCURVE",
"405 329 CURVE SMOOTH",
"405 282 LINE",
"378 294 OFFCURVE",
"323 309 OFFCURVE",
"251 309 CURVE SMOOTH",
"148 309 OFFCURVE",
"32 262 OFFCURVE",
"32 152 CURVE SMOOTH",
"32 61 OFFCURVE",
"108 -10 OFFCURVE",
"205 -10 CURVE SMOOTH",
"283 -10 OFFCURVE",
"360 19 OFFCURVE",
"407 82 CURVE",
"407 0 LINE"
);
}
);
width = 530;
}
);
unicode = 00E1;
},
{
color = 4;
glyphname = abreve;
lastChange = "2014-10-28 11:19:45 +0100";
layers = (
{
layerId = "D8D94703-76C4-4836-9DB2-440344724E35";
name = Regular;
paths = (
{
closed = 1;
nodes = (
"234 664 OFFCURVE",
"207 696 OFFCURVE",
"207 730 CURVE",
"165 730 LINE",
"165 673 OFFCURVE",
"208 629 OFFCURVE",
"263 629 CURVE SMOOTH",
"317 629 OFFCURVE",
"361 673 OFFCURVE",
"361 730 CURVE",
"320 730 LINE",
"316 693 OFFCURVE",
"291 664 OFFCURVE",
"263 664 CURVE SMOOTH"
);
},
{
closed = 1;
nodes = (
"141 42 OFFCURVE",
"98 100 OFFCURVE",
"98 155 CURVE SMOOTH",
"98 224 OFFCURVE",
"165 266 OFFCURVE",
"262 266 CURVE SMOOTH",
"309 266 OFFCURVE",
"360 256 OFFCURVE",
"405 239 CURVE",
"405 154 LINE SMOOTH",
"405 142 OFFCURVE",
"397 127 OFFCURVE",
"388 115 CURVE SMOOTH",
"354 70 OFFCURVE",
"288 42 OFFCURVE",
"228 42 CURVE SMOOTH"
);
},
{
closed = 1;
nodes = (
"473 0 LINE",
"473 323 LINE SMOOTH",
"473 445 OFFCURVE",
"399 530 OFFCURVE",
"263 530 CURVE SMOOTH",
"191 530 OFFCURVE",
"125 501 OFFCURVE",
"67 462 CURVE",
"91 417 LINE",
"148 457 OFFCURVE",
"205 479 OFFCURVE",
"257 479 CURVE SMOOTH",
"349 479 OFFCURVE",
"405 419 OFFCURVE",
"405 329 CURVE SMOOTH",
"405 282 LINE",
"378 294 OFFCURVE",
"323 309 OFFCURVE",
"251 309 CURVE SMOOTH",
"148 309 OFFCURVE",
"32 262 OFFCURVE",
"32 152 CURVE SMOOTH",
"32 61 OFFCURVE",
"108 -10 OFFCURVE",
"205 -10 CURVE SMOOTH",
"283 -10 OFFCURVE",
"360 19 OFFCURVE",
"407 82 CURVE",
"407 0 LINE"
);
}
);
width = 530;
}
);
unicode = 0103;
},
{
color = 4;
glyphname = acircumflex;
lastChange = "2014-10-28 11:19:45 +0100";
layers = (
{
layerId = "D8D94703-76C4-4836-9DB2-440344724E35";
name = Regular;
paths = (
{
closed = 1;
nodes = (
"178 624 LINE",
"263 687 LINE",
"348 624 LINE",
"387 645 LINE",
"288 730 LINE",
"238 730 LINE",
"140 645 LINE"
);
},
{
closed = 1;
nodes = (
"141 42 OFFCURVE",
"98 100 OFFCURVE",
"98 155 CURVE SMOOTH",
"98 224 OFFCURVE",
"165 266 OFFCURVE",
"262 266 CURVE SMOOTH",
"309 266 OFFCURVE",
"360 256 OFFCURVE",
"405 239 CURVE",
"405 154 LINE SMOOTH",
"405 142 OFFCURVE",
"397 127 OFFCURVE",
"388 115 CURVE SMOOTH",
"354 70 OFFCURVE",
"288 42 OFFCURVE",
"228 42 CURVE SMOOTH"
);
},
{
closed = 1;
nodes = (
"473 0 LINE",
"473 323 LINE SMOOTH",
"473 445 OFFCURVE",
"399 530 OFFCURVE",
"263 530 CURVE SMOOTH",
"191 530 OFFCURVE",
"125 501 OFFCURVE",
"67 462 CURVE",
"91 417 LINE",
"148 457 OFFCURVE",
"205 479 OFFCURVE",
"257 479 CURVE SMOOTH",
"349 479 OFFCURVE",
"405 419 OFFCURVE",
"405 329 CURVE SMOOTH",
"405 282 LINE",
"378 294 OFFCURVE",
"323 309 OFFCURVE",
"251 309 CURVE SMOOTH",
"148 309 OFFCURVE",
"32 262 OFFCURVE",
"32 152 CURVE SMOOTH",
"32 61 OFFCURVE",
"108 -10 OFFCURVE",
"205 -10 CURVE SMOOTH",
"283 -10 OFFCURVE",
"360 19 OFFCURVE",
"407 82 CURVE",
"407 0 LINE"
);
}
);
width = 530;
}
);
unicode = 00E2;
},
{
color = 4;
glyphname = adieresis;
lastChange = "2014-10-28 11:19:45 +0100";
layers = (
{
layerId = "D8D94703-76C4-4836-9DB2-440344724E35";
name = Regular;
paths = (
{
closed = 1;
nodes = (
"217 633 LINE",
"217 727 LINE",
"159 727 LINE",
"159 633 LINE"
);
},
{
closed = 1;
nodes = (
"366 633 LINE",
"366 727 LINE",
"308 727 LINE",
"308 633 LINE"
);
},
{
closed = 1;
nodes = (
"141 42 OFFCURVE",
"98 100 OFFCURVE",
"98 155 CURVE SMOOTH",
"98 224 OFFCURVE",
"165 266 OFFCURVE",
"262 266 CURVE SMOOTH",
"309 266 OFFCURVE",
"360 256 OFFCURVE",
"405 239 CURVE",
"405 154 LINE SMOOTH",
"405 142 OFFCURVE",
"397 127 OFFCURVE",
"388 115 CURVE SMOOTH",
"354 70 OFFCURVE",
"288 42 OFFCURVE",
"228 42 CURVE SMOOTH"
);
},
{
closed = 1;
nodes = (
"473 0 LINE",
"473 323 LINE SMOOTH",
"473 445 OFFCURVE",
"399 530 OFFCURVE",
"263 530 CURVE SMOOTH",
"191 530 OFFCURVE",
"125 501 OFFCURVE",
"67 462 CURVE",
"91 417 LINE",
"148 457 OFFCURVE",
"205 479 OFFCURVE",
"257 479 CURVE SMOOTH",
"349 479 OFFCURVE",
"405 419 OFFCURVE",
"405 329 CURVE SMOOTH",
"405 282 LINE",
"378 294 OFFCURVE",
"323 309 OFFCURVE",
"251 309 CURVE SMOOTH",
"148 309 OFFCURVE",
"32 262 OFFCURVE",
"32 152 CURVE SMOOTH",
"32 61 OFFCURVE",
"108 -10 OFFCURVE",
"205 -10 CURVE SMOOTH",
"283 -10 OFFCURVE",
"360 19 OFFCURVE",
"407 82 CURVE",
"407 0 LINE"
);
}
);
width = 530;
}
);
unicode = 00E4;
},
{
glyphname = ae;
layers = (
{
layerId = "D8D94703-76C4-4836-9DB2-440344724E35";
name = Regular;
paths = (
{
closed = 1;
nodes = (
"286 -10 OFFCURVE",
"387 24 OFFCURVE",
"432 105 CURVE",
"477 36 OFFCURVE",
"555 -10 OFFCURVE",
"646 -10 CURVE SMOOTH",
"747 -10 OFFCURVE",
"836 44 OFFCURVE",
"868 120 CURVE",
"809 136 LINE",
"785 80 OFFCURVE",
"717 42 OFFCURVE",
"649 42 CURVE SMOOTH",
"545 42 OFFCURVE",
"458 124 OFFCURVE",
"449 236 CURVE",
"902 236 LINE",
"903 240 OFFCURVE",
"903 255 OFFCURVE",
"903 260 CURVE",
"902 408 OFFCURVE",
"795 530 OFFCURVE",
"643 530 CURVE SMOOTH",
"559 530 OFFCURVE",
"488 488 OFFCURVE",
"444 426 CURVE",
"413 492 OFFCURVE",
"350 530 OFFCURVE",
"264 530 CURVE SMOOTH",
"200 530 OFFCURVE",
"135 507 OFFCURVE",
"68 462 CURVE",
"92 417 LINE",
"150 457 OFFCURVE",
"206 479 OFFCURVE",
"258 479 CURVE SMOOTH",
"337 479 OFFCURVE",
"390 436 OFFCURVE",
"402 365 CURVE",
"392 342 OFFCURVE",
"387 314 OFFCURVE",
"385 289 CURVE",
"346 301 OFFCURVE",
"297 309 OFFCURVE",
"251 309 CURVE SMOOTH",
"123 309 OFFCURVE",
"34 244 OFFCURVE",
"34 152 CURVE SMOOTH",
"34 61 OFFCURVE",
"109 -10 OFFCURVE",
"206 -10 CURVE SMOOTH"
);
},
{
closed = 1;
nodes = (
"153 42 OFFCURVE",
"98 92 OFFCURVE",
"98 157 CURVE SMOOTH",
"98 222 OFFCURVE",
"164 266 OFFCURVE",
"260 266 CURVE SMOOTH",
"303 266 OFFCURVE",
"346 259 OFFCURVE",
"385 246 CURVE",
"386 216 OFFCURVE",
"393 176 OFFCURVE",
"406 150 CURVE",
"405 139 OFFCURVE",
"399 126 OFFCURVE",
"388 115 CURVE",
"357 71 OFFCURVE",
"293 42 OFFCURVE",
"222 42 CURVE SMOOTH"
);
},
{
closed = 1;
nodes = (
"449 282 LINE",
"455 395 OFFCURVE",
"536 477 OFFCURVE",
"642 477 CURVE SMOOTH",
"748 477 OFFCURVE",
"830 396 OFFCURVE",
"838 282 CURVE"
);
}
);
width = 932;
}
);
unicode = 00E6;
},
{
glyphname = aeacute;
layers = (
{
layerId = "D8D94703-76C4-4836-9DB2-440344724E35";
name = Regular;
paths = (
{
closed = 1;
nodes = (
"536 730 LINE",
"464 730 LINE",
"405 637 LINE",
"450 620 LINE"
);
},
{
closed = 1;
nodes = (
"286 -10 OFFCURVE",
"387 24 OFFCURVE",
"432 105 CURVE",
"477 36 OFFCURVE",
"555 -10 OFFCURVE",
"646 -10 CURVE SMOOTH",
"747 -10 OFFCURVE",
"836 44 OFFCURVE",
"868 120 CURVE",
"809 136 LINE",
"785 80 OFFCURVE",
"717 42 OFFCURVE",
"649 42 CURVE SMOOTH",
"545 42 OFFCURVE",
"458 124 OFFCURVE",
"449 236 CURVE",
"902 236 LINE",
"903 240 OFFCURVE",
"903 255 OFFCURVE",
"903 260 CURVE",
"902 408 OFFCURVE",
"795 530 OFFCURVE",
"643 530 CURVE SMOOTH",
"559 530 OFFCURVE",
"488 488 OFFCURVE",
"444 426 CURVE",
"413 492 OFFCURVE",
"350 530 OFFCURVE",
"264 530 CURVE SMOOTH",
"200 530 OFFCURVE",
"135 507 OFFCURVE",
"68 462 CURVE",
"92 417 LINE",
"150 457 OFFCURVE",
"206 479 OFFCURVE",
"258 479 CURVE SMOOTH",
"337 479 OFFCURVE",
"390 436 OFFCURVE",
"402 365 CURVE",
"392 342 OFFCURVE",
"387 314 OFFCURVE",
"385 289 CURVE",
"346 301 OFFCURVE",
"297 309 OFFCURVE",
"251 309 CURVE SMOOTH",
"123 309 OFFCURVE",
"34 244 OFFCURVE",
"34 152 CURVE SMOOTH",
"34 61 OFFCURVE",
"109 -10 OFFCURVE",
"206 -10 CURVE SMOOTH"
);
},
{
closed = 1;
nodes = (
"153 42 OFFCURVE",
"98 92 OFFCURVE",
"98 157 CURVE SMOOTH",
"98 222 OFFCURVE",
"164 266 OFFCURVE",
"260 266 CURVE SMOOTH",
"303 266 OFFCURVE",
"346 259 OFFCURVE",
"385 246 CURVE",
"386 216 OFFCURVE",
"393 176 OFFCURVE",
"406 150 CURVE",
"405 139 OFFCURVE",
"399 126 OFFCURVE",
"388 115 CURVE",
"357 71 OFFCURVE",
"293 42 OFFCURVE",
"222 42 CURVE SMOOTH"
);
},
{
closed = 1;
nodes = (
"449 282 LINE",
"455 395 OFFCURVE",
"536 477 OFFCURVE",
"642 477 CURVE SMOOTH",
"748 477 OFFCURVE",
"830 396 OFFCURVE",
"838 282 CURVE"
);
}
);
width = 932;
}
);
unicode = 01FD;
},
{
color = 4;
glyphname = agrave;
lastChange = "2014-10-28 11:19:49 +0100";
layers = (
{
layerId = "D8D94703-76C4-4836-9DB2-440344724E35";
name = Regular;
paths = (
{
closed = 1;
nodes = (
"257 620 LINE",
"301 637 LINE",
"241 730 LINE",
"170 730 LINE"
);
},
{
closed = 1;
nodes = (
"141 42 OFFCURVE",
"98 100 OFFCURVE",
"98 155 CURVE SMOOTH",
"98 224 OFFCURVE",
"165 266 OFFCURVE",
"262 266 CURVE SMOOTH",
"309 266 OFFCURVE",
"360 256 OFFCURVE",
"405 239 CURVE",
"405 154 LINE SMOOTH",
"405 142 OFFCURVE",
"397 127 OFFCURVE",
"388 115 CURVE SMOOTH",
"354 70 OFFCURVE",
"288 42 OFFCURVE",
"228 42 CURVE SMOOTH"
);
},
{
closed = 1;
nodes = (
"473 0 LINE",
"473 323 LINE SMOOTH",
"473 445 OFFCURVE",
"399 530 OFFCURVE",
"263 530 CURVE SMOOTH",
"191 530 OFFCURVE",
"125 501 OFFCURVE",
"67 462 CURVE",
"91 417 LINE",
"148 457 OFFCURVE",
"205 479 OFFCURVE",
"257 479 CURVE SMOOTH",
"349 479 OFFCURVE",
"405 419 OFFCURVE",
"405 329 CURVE SMOOTH",
"405 282 LINE",
"378 294 OFFCURVE",
"323 309 OFFCURVE",
"251 309 CURVE SMOOTH",
"148 309 OFFCURVE",
"32 262 OFFCURVE",
"32 152 CURVE SMOOTH",
"32 61 OFFCURVE",
"108 -10 OFFCURVE",
"205 -10 CURVE SMOOTH",
"283 -10 OFFCURVE",
"360 19 OFFCURVE",
"407 82 CURVE",
"407 0 LINE"
);
}
);
width = 530;
}
);
unicode = 00E0;
},
{
color = 4;
glyphname = amacron;
lastChange = "2014-10-28 11:19:49 +0100";
layers = (
{
layerId = "D8D94703-76C4-4836-9DB2-440344724E35";
name = Regular;
paths = (
{
closed = 1;
nodes = (
"408 663 LINE",
"408 710 LINE",
"119 710 LINE",
"119 663 LINE"
);
},
{
closed = 1;
nodes = (
"141 42 OFFCURVE",
"98 100 OFFCURVE",
"98 155 CURVE SMOOTH",
"98 224 OFFCURVE",
"165 266 OFFCURVE",
"262 266 CURVE SMOOTH",
"309 266 OFFCURVE",
"360 256 OFFCURVE",
"405 239 CURVE",
"405 154 LINE SMOOTH",
"405 142 OFFCURVE",
"397 127 OFFCURVE",
"388 115 CURVE SMOOTH",
"354 70 OFFCURVE",
"288 42 OFFCURVE",
"228 42 CURVE SMOOTH"
);
},
{
closed = 1;
nodes = (
"473 0 LINE",
"473 323 LINE SMOOTH",
"473 445 OFFCURVE",
"399 530 OFFCURVE",
"263 530 CURVE SMOOTH",
"191 530 OFFCURVE",
"125 501 OFFCURVE",
"67 462 CURVE",
"91 417 LINE",
"148 457 OFFCURVE",
"205 479 OFFCURVE",
"257 479 CURVE SMOOTH",
"349 479 OFFCURVE",
"405 419 OFFCURVE",
"405 329 CURVE SMOOTH",
"405 282 LINE",
"378 294 OFFCURVE",
"323 309 OFFCURVE",
"251 309 CURVE SMOOTH",
"148 309 OFFCURVE",
"32 262 OFFCURVE",
"32 152 CURVE SMOOTH",
"32 61 OFFCURVE",
"108 -10 OFFCURVE",
"205 -10 CURVE SMOOTH",
"283 -10 OFFCURVE",
"360 19 OFFCURVE",
"407 82 CURVE",
"407 0 LINE"
);
}
);
width = 530;
}
);
unicode = 0101;
},
{
glyphname = ampersand;
layers = (
{
layerId = "D8D94703-76C4-4836-9DB2-440344724E35";
name = Regular;
paths = (
{
closed = 1;
nodes = (
"662 0 LINE",
"529 138 LINE",
"567 199 OFFCURVE",
"589 274 OFFCURVE",
"590 356 CURVE",
"532 356 LINE",
"532 291 OFFCURVE",
"516 231 OFFCURVE",
"489 180 CURVE",
"290 388 LINE",
"375 443 OFFCURVE",
"445 497 OFFCURVE",
"445 579 CURVE SMOOTH",
"445 662 OFFCURVE",
"372 719 OFFCURVE",
"279 719 CURVE SMOOTH",
"178 719 OFFCURVE",
"101 651 OFFCURVE",
"101 563 CURVE SMOOTH",
"101 513 OFFCURVE",
"126 471 OFFCURVE",
"198 394 CURVE",
"118 339 OFFCURVE",
"48 279 OFFCURVE",
"48 183 CURVE SMOOTH",
"48 68 OFFCURVE",
"150 -10 OFFCURVE",
"274 -10 CURVE SMOOTH",
"359 -10 OFFCURVE",
"434 26 OFFCURVE",
"490 86 CURVE",
"572 0 LINE"
);
},
{
closed = 1;
nodes = (
"199 45 OFFCURVE",
"114 92 OFFCURVE",
"114 181 CURVE SMOOTH",
"114 253 OFFCURVE",
"167 304 OFFCURVE",
"237 353 CURVE",
"452 126 LINE",
"408 76 OFFCURVE",
"349 45 OFFCURVE",
"281 45 CURVE SMOOTH"
);
},
{
closed = 1;
nodes = (
"164 620 OFFCURVE",
"213 666 OFFCURVE",
"279 666 CURVE SMOOTH",
"338 666 OFFCURVE",
"382 629 OFFCURVE",
"382 577 CURVE SMOOTH",
"382 520 OFFCURVE",
"328 482 OFFCURVE",
"250 429 CURVE",
"179 504 OFFCURVE",
"164 533 OFFCURVE",
"164 565 CURVE SMOOTH"
);
}
);
width = 672;
}
);
unicode = 0026;
},
{
color = 4;
glyphname = aogonek;
lastChange = "2014-10-28 11:19:52 +0100";
layers = (
{
components = (
{
name = ogonek;
transform = "{1, 0, 0, 1, 294, 0}";
}
);
layerId = "D8D94703-76C4-4836-9DB2-440344724E35";
name = Regular;
paths = (
{
closed = 1;
nodes = (
"141 42 OFFCURVE",
"98 100 OFFCURVE",
"98 155 CURVE SMOOTH",
"98 224 OFFCURVE",
"165 266 OFFCURVE",
"262 266 CURVE SMOOTH",
"309 266 OFFCURVE",
"360 256 OFFCURVE",
"405 239 CURVE",
"405 154 LINE SMOOTH",
"405 142 OFFCURVE",
"397 127 OFFCURVE",
"388 115 CURVE SMOOTH",
"354 70 OFFCURVE",
"288 42 OFFCURVE",
"228 42 CURVE SMOOTH"
);
},
{
closed = 1;
nodes = (
"473 0 LINE",
"473 323 LINE SMOOTH",
"473 445 OFFCURVE",
"399 530 OFFCURVE",
"263 530 CURVE SMOOTH",
"191 530 OFFCURVE",
"125 501 OFFCURVE",
"67 462 CURVE",
"91 417 LINE",
"148 457 OFFCURVE",
"205 479 OFFCURVE",
"257 479 CURVE SMOOTH",
"349 479 OFFCURVE",
"405 419 OFFCURVE",
"405 329 CURVE SMOOTH",
"405 282 LINE",
"378 294 OFFCURVE",
"323 309 OFFCURVE",
"251 309 CURVE SMOOTH",
"148 309 OFFCURVE",
"32 262 OFFCURVE",
"32 152 CURVE SMOOTH",
"32 61 OFFCURVE",
"108 -10 OFFCURVE",
"205 -10 CURVE SMOOTH",
"283 -10 OFFCURVE",
"360 19 OFFCURVE",
"407 82 CURVE",
"407 0 LINE"
);
}
);
width = 530;
}
);
unicode = 0105;
},
{
glyphname = apostrophe;
layers = (
{
layerId = "D8D94703-76C4-4836-9DB2-440344724E35";
name = Regular;
paths = (
{
closed = 1;
nodes = (
"268 730 LINE",
"174 730 LINE",
"174 696 LINE",
"136 637 LINE",
"181 620 LINE"
);
}
);
width = 367;
}
);
unicode = 02BC;
},
{
color = 4;
glyphname = aring;
lastChange = "2014-10-28 11:20:00 +0100";
layers = (
{
layerId = "D8D94703-76C4-4836-9DB2-440344724E35";
name = Regular;
paths = (
{
closed = 1;
nodes = (
"188 625 OFFCURVE",
"219 599 OFFCURVE",
"262 599 CURVE SMOOTH",
"305 599 OFFCURVE",
"336 625 OFFCURVE",
"336 665 CURVE SMOOTH",
"336 704 OFFCURVE",
"305 730 OFFCURVE",
"262 730 CURVE SMOOTH",
"219 730 OFFCURVE",
"188 704 OFFCURVE",
"188 665 CURVE SMOOTH"
);
},
{
closed = 1;
nodes = (
"285 703 OFFCURVE",
"303 688 OFFCURVE",
"303 665 CURVE SMOOTH",
"303 642 OFFCURVE",
"283 626 OFFCURVE",
"262 626 CURVE SMOOTH",
"239 626 OFFCURVE",
"222 643 OFFCURVE",
"222 665 CURVE SMOOTH",
"222 688 OFFCURVE",
"240 703 OFFCURVE",
"262 703 CURVE SMOOTH"
);
},
{
closed = 1;
nodes = (
"141 42 OFFCURVE",
"98 100 OFFCURVE",
"98 155 CURVE SMOOTH",
"98 224 OFFCURVE",
"165 266 OFFCURVE",
"262 266 CURVE SMOOTH",
"309 266 OFFCURVE",
"360 256 OFFCURVE",
"405 239 CURVE",
"405 154 LINE SMOOTH",
"405 142 OFFCURVE",
"397 127 OFFCURVE",
"388 115 CURVE SMOOTH",
"354 70 OFFCURVE",
"288 42 OFFCURVE",
"228 42 CURVE SMOOTH"
);
},
{
closed = 1;
nodes = (
"473 0 LINE",
"473 323 LINE SMOOTH",
"473 445 OFFCURVE",
"399 530 OFFCURVE",
"263 530 CURVE SMOOTH",
"191 530 OFFCURVE",
"125 501 OFFCURVE",
"67 462 CURVE",
"91 417 LINE",
"148 457 OFFCURVE",
"205 479 OFFCURVE",
"257 479 CURVE SMOOTH",
"349 479 OFFCURVE",
"405 419 OFFCURVE",
"405 329 CURVE SMOOTH",
"405 282 LINE",
"378 294 OFFCURVE",
"323 309 OFFCURVE",
"251 309 CURVE SMOOTH",
"148 309 OFFCURVE",
"32 262 OFFCURVE",
"32 152 CURVE SMOOTH",
"32 61 OFFCURVE",
"108 -10 OFFCURVE",
"205 -10 CURVE SMOOTH",
"283 -10 OFFCURVE",
"360 19 OFFCURVE",
"407 82 CURVE",
"407 0 LINE"
);
}
);
width = 530;
}
);
unicode = 00E5;
},
{
color = 4;
glyphname = aringacute;
lastChange = "2014-10-28 11:20:00 +0100";
layers = (
{
layerId = "D8D94703-76C4-4836-9DB2-440344724E35";
name = Regular;
paths = (
{
closed = 1;
nodes = (
"355 880 LINE",
"283 880 LINE",
"224 787 LINE",
"269 770 LINE"
);
},
{
closed = 1;
nodes = (
"188 625 OFFCURVE",
"219 599 OFFCURVE",
"262 599 CURVE SMOOTH",
"305 599 OFFCURVE",
"336 625 OFFCURVE",
"336 665 CURVE SMOOTH",
"336 704 OFFCURVE",
"305 730 OFFCURVE",
"262 730 CURVE SMOOTH",
"219 730 OFFCURVE",
"188 704 OFFCURVE",
"188 665 CURVE SMOOTH"
);
},
{
closed = 1;
nodes = (
"285 703 OFFCURVE",
"303 688 OFFCURVE",
"303 665 CURVE SMOOTH",
"303 642 OFFCURVE",
"283 626 OFFCURVE",
"262 626 CURVE SMOOTH",
"239 626 OFFCURVE",
"222 643 OFFCURVE",
"222 665 CURVE SMOOTH",
"222 688 OFFCURVE",
"240 703 OFFCURVE",
"262 703 CURVE SMOOTH"
);
},
{
closed = 1;
nodes = (
"141 42 OFFCURVE",
"98 100 OFFCURVE",
"98 155 CURVE SMOOTH",
"98 224 OFFCURVE",
"165 266 OFFCURVE",
"262 266 CURVE SMOOTH",
"309 266 OFFCURVE",
"360 256 OFFCURVE",
"405 239 CURVE",
"405 154 LINE SMOOTH",
"405 142 OFFCURVE",
"397 127 OFFCURVE",
"388 115 CURVE SMOOTH",
"354 70 OFFCURVE",
"288 42 OFFCURVE",
"228 42 CURVE SMOOTH"
);
},
{
closed = 1;
nodes = (
"473 0 LINE",
"473 323 LINE SMOOTH",
"473 445 OFFCURVE",
"399 530 OFFCURVE",
"263 530 CURVE SMOOTH",
"191 530 OFFCURVE",
"125 501 OFFCURVE",
"67 462 CURVE",
"91 417 LINE",
"148 457 OFFCURVE",
"205 479 OFFCURVE",
"257 479 CURVE SMOOTH",
"349 479 OFFCURVE",
"405 419 OFFCURVE",
"405 329 CURVE SMOOTH",
"405 282 LINE",
"378 294 OFFCURVE",
"323 309 OFFCURVE",
"251 309 CURVE SMOOTH",
"148 309 OFFCURVE",
"32 262 OFFCURVE",
"32 152 CURVE SMOOTH",
"32 61 OFFCURVE",
"108 -10 OFFCURVE",
"205 -10 CURVE SMOOTH",
"283 -10 OFFCURVE",
"360 19 OFFCURVE",
"407 82 CURVE",
"407 0 LINE"
);
}
);
width = 530;
}
);
unicode = 01FB;
},
{
glyphname = asciicircum;
layers = (
{
layerId = "D8D94703-76C4-4836-9DB2-440344724E35";
name = Regular;
paths = (
{
closed = 1;
nodes = (
"102 303 LINE",
"271 646 LINE",
"437 303 LINE",
"497 303 LINE",
"300 710 LINE",
"242 710 LINE",
"44 303 LINE"
);
}
);
width = 541;
}
);
unicode = 005E;
},
{
glyphname = asciitilde;
layers = (
{
layerId = "D8D94703-76C4-4836-9DB2-440344724E35";
name = Regular;
paths = (
{
closed = 1;
nodes = (
"108 241 LINE",
"108 243 OFFCURVE",
"125 299 OFFCURVE",
"172 299 CURVE SMOOTH",
"220 299 OFFCURVE",
"266 241 OFFCURVE",
"332 241 CURVE SMOOTH",
"418 241 OFFCURVE",
"445 332 OFFCURVE",
"445 338 CURVE",
"402 338 LINE",
"402 333 OFFCURVE",
"384 286 OFFCURVE",
"333 286 CURVE SMOOTH",
"277 286 OFFCURVE",
"234 344 OFFCURVE",
"173 344 CURVE SMOOTH",
"93 344 OFFCURVE",
"65 254 OFFCURVE",
"65 241 CURVE"
);
}
);
width = 508;
}
);
unicode = 007E;
},
{
glyphname = asterisk;
layers = (
{
layerId = "D8D94703-76C4-4836-9DB2-440344724E35";
name = Regular;
paths = (
{
closed = 1;
nodes = (
"118 524 LINE",
"161 589 LINE",
"204 524 LINE",
"236 546 LINE",
"192 608 LINE",
"260 630 LINE",
"249 666 LINE",
"180 640 LINE",
"183 713 LINE",
"139 713 LINE",
"142 640 LINE",
"73 666 LINE",
"62 630 LINE",
"131 608 LINE",
"88 546 LINE"
);
}
);
width = 323;
}
);
unicode = 002A;
},
{
glyphname = at;
layers = (
{
layerId = "D8D94703-76C4-4836-9DB2-440344724E35";
name = Regular;
paths = (
{
closed = 1;
nodes = (
"227 603 OFFCURVE",
"50 456 OFFCURVE",
"50 230 CURVE SMOOTH",
"50 13 OFFCURVE",
"214 -146 OFFCURVE",
"413 -146 CURVE SMOOTH",
"469 -146 OFFCURVE",
"526 -133 OFFCURVE",
"580 -106 CURVE",
"567 -74 LINE",
"518 -98 OFFCURVE",
"470 -112 OFFCURVE",
"413 -112 CURVE SMOOTH",
"226 -112 OFFCURVE",
"86 40 OFFCURVE",
"86 230 CURVE SMOOTH",
"86 427 OFFCURVE",
"236 569 OFFCURVE",
"419 569 CURVE SMOOTH",
"606 569 OFFCURVE",
"748 417 OFFCURVE",
"748 224 CURVE SMOOTH",
"748 151 OFFCURVE",
"727 21 OFFCURVE",
"643 21 CURVE SMOOTH",
"598 21 OFFCURVE",
"592 62 OFFCURVE",
"592 121 CURVE SMOOTH",
"592 250 LINE SMOOTH",
"592 346 OFFCURVE",
"577 455 OFFCURVE",
"428 455 CURVE SMOOTH",
"367 455 OFFCURVE",
"313 435 OFFCURVE",
"265 403 CURVE",
"283 364 LINE",
"322 393 OFFCURVE",
"370 411 OFFCURVE",
"423 411 CURVE SMOOTH",
"521 411 OFFCURVE",
"547 345 OFFCURVE",
"547 250 CURVE",
"525 258 OFFCURVE",
"478 273 OFFCURVE",
"420 273 CURVE SMOOTH",
"332 273 OFFCURVE",
"235 241 OFFCURVE",
"235 139 CURVE SMOOTH",
"235 61 OFFCURVE",
"291 5 OFFCURVE",
"385 5 CURVE SMOOTH",
"455 5 OFFCURVE",
"517 37 OFFCURVE",
"554 76 CURVE",
"559 28 OFFCURVE",
"571 -16 OFFCURVE",
"638 -16 CURVE SMOOTH",
"773 -16 OFFCURVE",
"784 165 OFFCURVE",
"784 222 CURVE SMOOTH",
"784 449 OFFCURVE",
"617 603 OFFCURVE",
"420 603 CURVE SMOOTH"
);
},
{
closed = 1;
nodes = (
"456 58 OFFCURVE",
"421 48 OFFCURVE",
"388 48 CURVE SMOOTH",
"326 48 OFFCURVE",
"281 86 OFFCURVE",
"281 141 CURVE SMOOTH",
"281 212 OFFCURVE",
"347 234 OFFCURVE",
"418 234 CURVE SMOOTH",
"482 234 OFFCURVE",
"529 214 OFFCURVE",
"546 212 CURVE",
"546 172 LINE SMOOTH",
"546 135 OFFCURVE",
"537 96 OFFCURVE",
"481 70 CURVE SMOOTH"
);
}
);
width = 826;
}
);
unicode = 0040;
},
{
color = 4;
glyphname = atilde;
lastChange = "2014-10-28 11:20:04 +0100";
layers = (
{
layerId = "D8D94703-76C4-4836-9DB2-440344724E35";
name = Regular;
paths = (
{
closed = 1;
nodes = (
"406 638 OFFCURVE",
"423 717 OFFCURVE",
"423 730 CURVE",
"381 730 LINE",
"381 726 OFFCURVE",
"376 681 OFFCURVE",
"324 681 CURVE SMOOTH",
"274 681 OFFCURVE",
"252 723 OFFCURVE",
"196 723 CURVE SMOOTH",
"121 723 OFFCURVE",
"105 644 OFFCURVE",
"105 630 CURVE",
"147 630 LINE",
"147 635 OFFCURVE",
"153 678 OFFCURVE",
"197 678 CURVE SMOOTH",
"239 678 OFFCURVE",
"265 638 OFFCURVE",
"325 638 CURVE SMOOTH"
);
},
{
closed = 1;
nodes = (
"141 42 OFFCURVE",
"98 100 OFFCURVE",
"98 155 CURVE SMOOTH",
"98 224 OFFCURVE",
"165 266 OFFCURVE",
"262 266 CURVE SMOOTH",
"309 266 OFFCURVE",
"360 256 OFFCURVE",
"405 239 CURVE",
"405 154 LINE SMOOTH",
"405 142 OFFCURVE",
"397 127 OFFCURVE",
"388 115 CURVE SMOOTH",
"354 70 OFFCURVE",
"288 42 OFFCURVE",
"228 42 CURVE SMOOTH"
);
},
{
closed = 1;
nodes = (
"473 0 LINE",
"473 323 LINE SMOOTH",
"473 445 OFFCURVE",
"399 530 OFFCURVE",
"263 530 CURVE SMOOTH",
"191 530 OFFCURVE",
"125 501 OFFCURVE",
"67 462 CURVE",
"91 417 LINE",
"148 457 OFFCURVE",
"205 479 OFFCURVE",
"257 479 CURVE SMOOTH",
"349 479 OFFCURVE",
"405 419 OFFCURVE",
"405 329 CURVE SMOOTH",
"405 282 LINE",
"378 294 OFFCURVE",
"323 309 OFFCURVE",
"251 309 CURVE SMOOTH",
"148 309 OFFCURVE",
"32 262 OFFCURVE",
"32 152 CURVE SMOOTH",
"32 61 OFFCURVE",
"108 -10 OFFCURVE",
"205 -10 CURVE SMOOTH",
"283 -10 OFFCURVE",
"360 19 OFFCURVE",
"407 82 CURVE",
"407 0 LINE"
);
}
);
width = 530;
}
);
unicode = 00E3;
},
{
glyphname = b;
layers = (
{
layerId = "D8D94703-76C4-4836-9DB2-440344724E35";
name = Regular;
paths = (
{
closed = 1;
nodes = (
"468 -10 OFFCURVE",
"576 113 OFFCURVE",
"576 259 CURVE SMOOTH",
"576 395 OFFCURVE",
"485 530 OFFCURVE",
"340 530 CURVE SMOOTH",
"253 530 OFFCURVE",
"188 482 OFFCURVE",
"141 412 CURVE",
"141 730 LINE",
"73 730 LINE",
"73 0 LINE",
"134 0 LINE",
"134 101 LINE",
"173 36 OFFCURVE",
"247 -10 OFFCURVE",
"328 -10 CURVE SMOOTH"
);
},
{
closed = 1;
nodes = (
"244 50 OFFCURVE",
"152 106 OFFCURVE",
"141 178 CURVE",
"141 340 LINE",
"174 410 OFFCURVE",
"239 470 OFFCURVE",
"321 470 CURVE SMOOTH",
"430 470 OFFCURVE",
"506 368 OFFCURVE",
"506 259 CURVE SMOOTH",
"506 152 OFFCURVE",
"426 50 OFFCURVE",
"312 50 CURVE SMOOTH"
);
}
);
width = 616;
}
);
unicode = 0062;
},
{
glyphname = backslash;
layers = (
{
layerId = "D8D94703-76C4-4836-9DB2-440344724E35";
name = Regular;
paths = (
{
closed = 1;
nodes = (
"27 710 LINE",
"463 0 LINE",
"540 0 LINE",
"105 710 LINE"
);
}
);
width = 569;
}
);
unicode = 005C;
},
{
glyphname = bar;
layers = (
{
layerId = "D8D94703-76C4-4836-9DB2-440344724E35";
name = Regular;
paths = (
{
closed = 1;
nodes = (
"141 -130 LINE",
"141 775 LINE",
"82 775 LINE",
"82 -130 LINE"
);
}
);
width = 223;
}
);
unicode = 007C;
},
{
glyphname = braceleft;
layers = (
{
layerId = "D8D94703-76C4-4836-9DB2-440344724E35";
name = Regular;
paths = (
{
closed = 1;
nodes = (
"209 683 LINE",
"209 740 LINE",
"115 740 LINE SMOOTH",
"108 740 OFFCURVE",
"92 735 OFFCURVE",
"92 710 CURVE SMOOTH",
"92 440 LINE SMOOTH",
"92 423 OFFCURVE",
"81 387 OFFCURVE",
"53 387 CURVE",
"53 335 LINE",
"78 332 OFFCURVE",
"92 306 OFFCURVE",
"92 280 CURVE SMOOTH",
"92 -1 LINE SMOOTH",
"92 -24 OFFCURVE",
"104 -31 OFFCURVE",
"115 -31 CURVE SMOOTH",
"209 -31 LINE",
"209 26 LINE",
"154 26 LINE",
"154 298 LINE SMOOTH",
"154 313 OFFCURVE",
"148 342 OFFCURVE",
"127 360 CURVE",
"148 379 OFFCURVE",
"154 406 OFFCURVE",
"154 422 CURVE SMOOTH",
"154 683 LINE"
);
}
);
width = 253;
}
);
unicode = 007B;
},
{
glyphname = braceright;
layers = (
{
layerId = "D8D94703-76C4-4836-9DB2-440344724E35";
name = Regular;
paths = (
{
closed = 1;
nodes = (
"100 683 LINE",
"100 422 LINE SMOOTH",
"100 406 OFFCURVE",
"105 379 OFFCURVE",
"126 360 CURVE",
"105 342 OFFCURVE",
"100 313 OFFCURVE",
"100 298 CURVE SMOOTH",
"100 26 LINE",
"45 26 LINE",
"45 -31 LINE",
"139 -31 LINE SMOOTH",
"149 -31 OFFCURVE",
"162 -24 OFFCURVE",
"162 -1 CURVE SMOOTH",
"162 280 LINE SMOOTH",
"162 306 OFFCURVE",
"175 332 OFFCURVE",
"200 335 CURVE",
"200 387 LINE",
"172 387 OFFCURVE",
"162 423 OFFCURVE",
"162 440 CURVE SMOOTH",
"162 710 LINE SMOOTH",
"162 735 OFFCURVE",
"145 740 OFFCURVE",
"139 740 CURVE SMOOTH",
"45 740 LINE",
"45 683 LINE"
);
}
);
width = 253;
}
);
unicode = 007D;
},
{
glyphname = bracketleft;
layers = (
{
layerId = "D8D94703-76C4-4836-9DB2-440344724E35";
name = Regular;
paths = (
{
closed = 1;
nodes = (
"203 -40 LINE",
"203 17 LINE",
"148 17 LINE",
"148 683 LINE",
"203 683 LINE",
"203 740 LINE",
"84 740 LINE",
"84 -40 LINE"
);
}
);
width = 248;
}
);
unicode = 005B;
},
{
glyphname = bracketright;
layers = (
{
layerId = "D8D94703-76C4-4836-9DB2-440344724E35";
name = Regular;
paths = (
{
closed = 1;
nodes = (
"164 -40 LINE",
"164 740 LINE",
"45 740 LINE",
"45 683 LINE",
"101 683 LINE",
"101 17 LINE",
"45 17 LINE",
"45 -40 LINE"
);
}
);
width = 248;
}
);
unicode = 005D;
},
{
glyphname = brokenbar;
layers = (
{
layerId = "D8D94703-76C4-4836-9DB2-440344724E35";
name = Regular;
paths = (
{
closed = 1;
nodes = (
"84 277 LINE",
"84 -130 LINE",
"143 -130 LINE",
"143 277 LINE"
);
},
{
closed = 1;
nodes = (
"84 775 LINE",
"84 368 LINE",
"143 368 LINE",
"143 775 LINE"
);
}
);
width = 227;
}
);
unicode = 00A6;
},
{
glyphname = bullet;
layers = (
{
layerId = "D8D94703-76C4-4836-9DB2-440344724E35";
name = Regular;
paths = (
{
closed = 1;
nodes = (
"267 394 OFFCURVE",
"227 435 OFFCURVE",
"178 435 CURVE SMOOTH",
"129 435 OFFCURVE",
"88 394 OFFCURVE",
"88 346 CURVE SMOOTH",
"88 296 OFFCURVE",
"129 256 OFFCURVE",
"178 256 CURVE SMOOTH",
"227 256 OFFCURVE",
"267 296 OFFCURVE",
"267 346 CURVE SMOOTH"
);
}
);
width = 355;
}
);
unicode = 2022;
},
{
glyphname = c;
layers = (
{
layerId = "D8D94703-76C4-4836-9DB2-440344724E35";
name = Regular;
paths = (
{
closed = 1;
nodes = (
"39 114 OFFCURVE",
"150 -10 OFFCURVE",
"301 -10 CURVE SMOOTH",
"401 -10 OFFCURVE",
"489 44 OFFCURVE",
"517 119 CURVE",
"451 139 LINE",
"435 91 OFFCURVE",
"365 50 OFFCURVE",
"299 50 CURVE SMOOTH",
"195 50 OFFCURVE",
"109 144 OFFCURVE",
"109 262 CURVE SMOOTH",
"109 381 OFFCURVE",
"192 470 OFFCURVE",
"298 470 CURVE SMOOTH",
"361 470 OFFCURVE",
"417 438 OFFCURVE",
"446 385 CURVE",
"512 406 LINE",
"475 482 OFFCURVE",
"398 530 OFFCURVE",
"300 530 CURVE SMOOTH",
"146 530 OFFCURVE",
"39 410 OFFCURVE",
"39 262 CURVE SMOOTH"
);
}
);
width = 550;
}
);
unicode = 0063;
},
{
glyphname = cacute;
layers = (
{
layerId = "D8D94703-76C4-4836-9DB2-440344724E35";
name = Regular;
paths = (
{
closed = 1;
nodes = (
"390 730 LINE",
"318 730 LINE",
"259 637 LINE",
"304 620 LINE"
);
},
{
closed = 1;
nodes = (
"39 114 OFFCURVE",
"150 -10 OFFCURVE",
"301 -10 CURVE SMOOTH",
"401 -10 OFFCURVE",
"489 44 OFFCURVE",
"517 119 CURVE",
"451 139 LINE",
"435 91 OFFCURVE",
"365 50 OFFCURVE",
"299 50 CURVE SMOOTH",
"195 50 OFFCURVE",
"109 144 OFFCURVE",
"109 262 CURVE SMOOTH",
"109 381 OFFCURVE",
"192 470 OFFCURVE",
"298 470 CURVE SMOOTH",
"361 470 OFFCURVE",
"417 438 OFFCURVE",
"446 385 CURVE",
"512 406 LINE",
"475 482 OFFCURVE",
"398 530 OFFCURVE",
"300 530 CURVE SMOOTH",
"146 530 OFFCURVE",
"39 410 OFFCURVE",
"39 262 CURVE SMOOTH"
);
}
);
width = 550;
}
);
unicode = 0107;
},
{
glyphname = ccaron;
layers = (
{
layerId = "D8D94703-76C4-4836-9DB2-440344724E35";
name = Regular;
paths = (
{
closed = 1;
nodes = (
"175 710 LINE",
"273 624 LINE",
"323 624 LINE",
"422 710 LINE",
"383 730 LINE",
"298 667 LINE",
"213 730 LINE"
);
},
{
closed = 1;
nodes = (
"39 114 OFFCURVE",
"150 -10 OFFCURVE",
"301 -10 CURVE SMOOTH",
"401 -10 OFFCURVE",
"489 44 OFFCURVE",
"517 119 CURVE",
"451 139 LINE",
"435 91 OFFCURVE",
"365 50 OFFCURVE",
"299 50 CURVE SMOOTH",
"195 50 OFFCURVE",
"109 144 OFFCURVE",
"109 262 CURVE SMOOTH",
"109 381 OFFCURVE",
"192 470 OFFCURVE",
"298 470 CURVE SMOOTH",
"361 470 OFFCURVE",
"417 438 OFFCURVE",
"446 385 CURVE",
"512 406 LINE",
"475 482 OFFCURVE",
"398 530 OFFCURVE",
"300 530 CURVE SMOOTH",
"146 530 OFFCURVE",
"39 410 OFFCURVE",
"39 262 CURVE SMOOTH"
);
}
);
width = 550;
}
);
unicode = 010D;
},
{
glyphname = ccedilla;
layers = (
{
layerId = "D8D94703-76C4-4836-9DB2-440344724E35";
name = Regular;
paths = (
{
closed = 1;
nodes = (
"207 -157 LINE",
"233 -167 OFFCURVE",
"268 -176 OFFCURVE",
"306 -176 CURVE SMOOTH",
"372 -176 OFFCURVE",
"408 -151 OFFCURVE",
"408 -106 CURVE SMOOTH",
"408 -66 OFFCURVE",
"378 -45 OFFCURVE",
"332 -45 CURVE SMOOTH",
"322 -45 OFFCURVE",
"306 -46 OFFCURVE",
"294 -51 CURVE",
"320 -9 LINE",
"412 -3 OFFCURVE",
"491 48 OFFCURVE",
"518 119 CURVE",
"452 139 LINE",
"436 91 OFFCURVE",
"366 50 OFFCURVE",
"300 50 CURVE SMOOTH",
"196 50 OFFCURVE",
"110 144 OFFCURVE",
"110 262 CURVE SMOOTH",
"110 381 OFFCURVE",
"193 470 OFFCURVE",
"299 470 CURVE SMOOTH",
"362 470 OFFCURVE",
"418 438 OFFCURVE",
"447 385 CURVE",
"513 406 LINE",
"476 482 OFFCURVE",
"399 530 OFFCURVE",
"301 530 CURVE SMOOTH",
"147 530 OFFCURVE",
"40 410 OFFCURVE",
"40 262 CURVE SMOOTH",
"40 121 OFFCURVE",
"141 1 OFFCURVE",
"281 -9 CURVE",
"239 -87 LINE",
"256 -81 OFFCURVE",
"291 -73 OFFCURVE",
"319 -73 CURVE SMOOTH",
"349 -73 OFFCURVE",
"369 -82 OFFCURVE",
"369 -109 CURVE SMOOTH",
"369 -134 OFFCURVE",
"349 -144 OFFCURVE",
"312 -144 CURVE SMOOTH",
"277 -144 OFFCURVE",
"242 -135 OFFCURVE",
"224 -126 CURVE"
);
}
);
width = 552;
}
);
unicode = 00E7;
},
{
glyphname = ccircumflex;
layers = (
{
layerId = "D8D94703-76C4-4836-9DB2-440344724E35";
name = Regular;
paths = (
{
closed = 1;
nodes = (
"213 624 LINE",
"298 687 LINE",
"383 624 LINE",
"422 645 LINE",
"323 730 LINE",
"273 730 LINE",
"175 645 LINE"
);
},
{
closed = 1;
nodes = (
"39 114 OFFCURVE",
"150 -10 OFFCURVE",
"301 -10 CURVE SMOOTH",
"401 -10 OFFCURVE",
"489 44 OFFCURVE",
"517 119 CURVE",
"451 139 LINE",
"435 91 OFFCURVE",
"365 50 OFFCURVE",
"299 50 CURVE SMOOTH",
"195 50 OFFCURVE",
"109 144 OFFCURVE",
"109 262 CURVE SMOOTH",
"109 381 OFFCURVE",
"192 470 OFFCURVE",
"298 470 CURVE SMOOTH",
"361 470 OFFCURVE",
"417 438 OFFCURVE",
"446 385 CURVE",
"512 406 LINE",
"475 482 OFFCURVE",
"398 530 OFFCURVE",
"300 530 CURVE SMOOTH",
"146 530 OFFCURVE",
"39 410 OFFCURVE",
"39 262 CURVE SMOOTH"
);
}
);
width = 550;
}
);
unicode = 0109;
},
{
glyphname = cdotaccent;
layers = (
{
layerId = "D8D94703-76C4-4836-9DB2-440344724E35";
name = Regular;
paths = (
{
closed = 1;
nodes = (
"39 114 OFFCURVE",
"150 -10 OFFCURVE",
"301 -10 CURVE SMOOTH",
"401 -10 OFFCURVE",
"489 44 OFFCURVE",
"517 119 CURVE",
"451 139 LINE",
"435 91 OFFCURVE",
"365 50 OFFCURVE",
"299 50 CURVE SMOOTH",
"195 50 OFFCURVE",
"109 144 OFFCURVE",
"109 262 CURVE SMOOTH",
"109 381 OFFCURVE",
"192 470 OFFCURVE",
"298 470 CURVE SMOOTH",
"361 470 OFFCURVE",
"417 438 OFFCURVE",
"446 385 CURVE",
"512 406 LINE",
"475 482 OFFCURVE",
"398 530 OFFCURVE",
"300 530 CURVE SMOOTH",
"146 530 OFFCURVE",
"39 410 OFFCURVE",
"39 262 CURVE SMOOTH"
);
},
{
closed = 1;
nodes = (
"329 633 LINE",
"329 730 LINE",
"267 730 LINE",
"267 633 LINE"
);
}
);
width = 550;
}
);
unicode = 010B;
},
{
glyphname = cent;
layers = (
{
layerId = "D8D94703-76C4-4836-9DB2-440344724E35";
name = Regular;
paths = (
{
closed = 1;
nodes = (
"316 -120 LINE",
"316 -10 LINE",
"389 -10 OFFCURVE",
"493 33 OFFCURVE",
"525 119 CURVE",
"459 139 LINE",
"444 88 OFFCURVE",
"369 54 OFFCURVE",
"316 51 CURVE",
"316 468 LINE",
"373 465 OFFCURVE",
"424 439 OFFCURVE",
"454 385 CURVE",
"519 406 LINE",
"482 480 OFFCURVE",
"415 526 OFFCURVE",
"316 529 CURVE",
"316 645 LINE",
"279 645 LINE",
"279 529 LINE",
"136 516 OFFCURVE",
"46 393 OFFCURVE",
"46 258 CURVE SMOOTH",
"46 131 OFFCURVE",
"143 2 OFFCURVE",
"279 -9 CURVE",
"279 -120 LINE"
);
},
{
closed = 1;
nodes = (
"116 355 OFFCURVE",
"176 456 OFFCURVE",
"279 466 CURVE",
"279 54 LINE",
"185 69 OFFCURVE",
"116 159 OFFCURVE",
"116 258 CURVE SMOOTH"
);
}
);
width = 567;
}
);
unicode = 00A2;
},
{
glyphname = colon;
layers = (
{
layerId = "D8D94703-76C4-4836-9DB2-440344724E35";
name = Regular;
paths = (
{
closed = 1;
nodes = (
"127 420 LINE",
"127 518 LINE",
"70 518 LINE",
"70 420 LINE"
);
},
{
closed = 1;
nodes = (
"127 0 LINE",
"127 98 LINE",
"70 98 LINE",
"70 0 LINE"
);
}
);
width = 197;
}
);
unicode = 003A;
},
{
glyphname = comma;
layers = (
{
layerId = "D8D94703-76C4-4836-9DB2-440344724E35";
name = Regular;
paths = (
{
closed = 1;
nodes = (
"55 -67 LINE",
"93 -67 OFFCURVE",
"134 -50 OFFCURVE",
"134 -4 CURVE SMOOTH",
"134 98 LINE",
"76 98 LINE",
"76 6 LINE SMOOTH",
"76 -11 OFFCURVE",
"64 -15 OFFCURVE",
"55 -15 CURVE"
);
}
);
width = 205;
}
);
unicode = 002C;
},
{
glyphname = copyright;
layers = (
{
layerId = "D8D94703-76C4-4836-9DB2-440344724E35";
name = Regular;
paths = (
{
closed = 1;
nodes = (
"630 -7 OFFCURVE",
"787 148 OFFCURVE",
"787 355 CURVE SMOOTH",
"787 561 OFFCURVE",
"630 715 OFFCURVE",
"418 715 CURVE SMOOTH",
"207 715 OFFCURVE",
"51 561 OFFCURVE",
"51 355 CURVE SMOOTH",
"51 148 OFFCURVE",
"207 -7 OFFCURVE",
"418 -7 CURVE SMOOTH"
);
},
{
closed = 1;
nodes = (
"227 26 OFFCURVE",
"85 167 OFFCURVE",
"85 354 CURVE SMOOTH",
"85 542 OFFCURVE",
"228 682 OFFCURVE",
"418 682 CURVE SMOOTH",
"610 682 OFFCURVE",
"752 542 OFFCURVE",
"752 353 CURVE SMOOTH",
"752 159 OFFCURVE",
"606 26 OFFCURVE",
"418 26 CURVE SMOOTH"
);
},
{
closed = 1;
nodes = (
"527 123 OFFCURVE",
"600 190 OFFCURVE",
"619 239 CURVE",
"553 258 LINE",
"531 211 OFFCURVE",
"472 182 OFFCURVE",
"422 182 CURVE SMOOTH",
"350 182 OFFCURVE",
"262 245 OFFCURVE",
"262 355 CURVE SMOOTH",
"262 439 OFFCURVE",
"314 529 OFFCURVE",
"420 529 CURVE SMOOTH",
"459 529 OFFCURVE",
"519 516 OFFCURVE",
"546 457 CURVE",
"611 478 LINE",
"581 550 OFFCURVE",
"507 589 OFFCURVE",
"420 589 CURVE SMOOTH",
"265 589 OFFCURVE",
"192 467 OFFCURVE",
"192 355 CURVE SMOOTH",
"192 214 OFFCURVE",
"304 123 OFFCURVE",
"425 123 CURVE SMOOTH"
);
}
);
width = 838;
}
);
unicode = 00A9;
},
{
color = 4;
glyphname = d;
lastChange = "2014-10-28 11:25:47 +0100";
layers = (
{
layerId = "D8D94703-76C4-4836-9DB2-440344724E35";
name = Regular;
paths = (
{
closed = 1;
nodes = (
"194 50 OFFCURVE",
"109 146 OFFCURVE",
"109 259 CURVE SMOOTH",
"109 366 OFFCURVE",
"183 470 OFFCURVE",
"295 470 CURVE SMOOTH",
"366 470 OFFCURVE",
"448 412 OFFCURVE",
"475 340 CURVE",
"475 179 LINE",
"464 108 OFFCURVE",
"372 50 OFFCURVE",
"303 50 CURVE SMOOTH"
);
},
{
closed = 1;
nodes = (
"543 0 LINE",
"543 730 LINE",
"475 730 LINE",
"475 412 LINE",
"432 477 OFFCURVE",
"365 530 OFFCURVE",
"277 530 CURVE SMOOTH",
"140 530 OFFCURVE",
"39 406 OFFCURVE",
"39 259 CURVE SMOOTH",
"39 119 OFFCURVE",
"144 -10 OFFCURVE",
"289 -10 CURVE SMOOTH",
"365 -10 OFFCURVE",
"435 33 OFFCURVE",
"475 97 CURVE",
"475 0 LINE"
);
}
);
width = 616;
}
);
unicode = 0064;
},
{
glyphname = dagger;
layers = (
{
layerId = "D8D94703-76C4-4836-9DB2-440344724E35";
name = Regular;
paths = (
{
closed = 1;
nodes = (
"240 -130 LINE",
"240 240 LINE",
"371 240 LINE",
"371 302 LINE",
"240 302 LINE",
"240 775 LINE",
"175 775 LINE",
"175 302 LINE",
"43 302 LINE",
"43 240 LINE",
"175 240 LINE",
"175 -130 LINE"
);
}
);
width = 414;
}
);
unicode = 2020;
},
{
glyphname = daggerdbl;
layers = (
{
layerId = "D8D94703-76C4-4836-9DB2-440344724E35";
name = Regular;
paths = (
{
closed = 1;
nodes = (
"245 -130 LINE",
"245 159 LINE",
"376 159 LINE",
"376 222 LINE",
"245 222 LINE",
"245 332 LINE",
"376 332 LINE",
"376 395 LINE",
"245 395 LINE",
"245 775 LINE",
"179 775 LINE",
"179 395 LINE",
"47 395 LINE",
"47 332 LINE",
"179 332 LINE",
"179 222 LINE",
"47 222 LINE",
"47 159 LINE",
"179 159 LINE",
"179 -130 LINE"
);
}
);
width = 423;
}
);
unicode = 2021;
},
{
color = 4;
glyphname = dcaron;
lastChange = "2014-10-28 11:25:47 +0100";
layers = (
{
layerId = "D8D94703-76C4-4836-9DB2-440344724E35";
name = Regular;
paths = (
{
closed = 1;
nodes = (
"710 730 LINE",
"638 730 LINE",
"579 637 LINE",
"624 620 LINE"
);
},
{
closed = 1;
nodes = (
"194 50 OFFCURVE",
"109 146 OFFCURVE",
"109 259 CURVE SMOOTH",
"109 366 OFFCURVE",
"183 470 OFFCURVE",
"295 470 CURVE SMOOTH",
"366 470 OFFCURVE",
"448 412 OFFCURVE",
"475 340 CURVE",
"475 179 LINE",
"464 108 OFFCURVE",
"372 50 OFFCURVE",
"303 50 CURVE SMOOTH"
);
}
{
closed = 1;
nodes = (
"543 0 LINE",
"543 730 LINE",
"475 730 LINE",
"475 412 LINE",
"432 477 OFFCURVE",
"365 530 OFFCURVE",
"277 530 CURVE SMOOTH",
"140 530 OFFCURVE",
"39 406 OFFCURVE",
"39 259 CURVE SMOOTH",
"39 119 OFFCURVE",
"144 -10 OFFCURVE",
"289 -10 CURVE SMOOTH",
"365 -10 OFFCURVE",
"435 33 OFFCURVE",
"475 97 CURVE",
"475 0 LINE"
);
}
);
width = 623;
}
);
unicode = 010F;
},
{
color = 4;
glyphname = dcroat;
lastChange = "2014-10-28 11:25:47 +0100";
layers = (
{
layerId = "D8D94703-76C4-4836-9DB2-440344724E35";
name = Regular;
paths = (
{
closed = 1;
nodes = (
"361 617 LINE",
"613 617 LINE",
"613 663 LINE",
"361 663 LINE"
);
},
{
closed = 1;
nodes = (
"194 50 OFFCURVE",
"109 146 OFFCURVE",
"109 259 CURVE SMOOTH",
"109 366 OFFCURVE",
"183 470 OFFCURVE",
"295 470 CURVE SMOOTH",
"366 470 OFFCURVE",
"448 412 OFFCURVE",
"475 340 CURVE",
"475 179 LINE",
"464 108 OFFCURVE",
"372 50 OFFCURVE",
"303 50 CURVE SMOOTH"
);
},
{
closed = 1;
nodes = (
"543 0 LINE",
"543 730 LINE",
"475 730 LINE",
"475 412 LINE",
"432 477 OFFCURVE",
"365 530 OFFCURVE",
"277 530 CURVE SMOOTH",
"140 530 OFFCURVE",
"39 406 OFFCURVE",
"39 259 CURVE SMOOTH",
"39 119 OFFCURVE",
"144 -10 OFFCURVE",
"289 -10 CURVE SMOOTH",
"365 -10 OFFCURVE",
"435 33 OFFCURVE",
"475 97 CURVE",
"475 0 LINE"
);
}
);
width = 616;
}
);
unicode = 0111;
},
{
glyphname = degree;
layers = (
{
layerId = "D8D94703-76C4-4836-9DB2-440344724E35";
name = Regular;
paths = (
{
closed = 1;
nodes = (
"50 594 OFFCURVE",
"87 558 OFFCURVE",
"133 558 CURVE SMOOTH",
"180 558 OFFCURVE",
"216 594 OFFCURVE",
"216 642 CURVE SMOOTH",
"216 688 OFFCURVE",
"180 724 OFFCURVE",
"133 724 CURVE SMOOTH",
"87 724 OFFCURVE",
"50 688 OFFCURVE",
"50 642 CURVE SMOOTH"
);
},
{
closed = 1;
nodes = (
"110 681 OFFCURVE",
"120 685 OFFCURVE",
"133 685 CURVE SMOOTH",
"145 685 OFFCURVE",
"157 681 OFFCURVE",
"165 672 CURVE SMOOTH",
"172 664 OFFCURVE",
"177 653 OFFCURVE",
"177 641 CURVE SMOOTH",
"177 629 OFFCURVE",
"172 618 OFFCURVE",
"165 610 CURVE",
"157 602 OFFCURVE",
"145 597 OFFCURVE",
"133 597 CURVE SMOOTH",
"120 597 OFFCURVE",
"110 602 OFFCURVE",
"102 610 CURVE SMOOTH",
"94 618 OFFCURVE",
"89 629 OFFCURVE",
"89 641 CURVE SMOOTH",
"89 653 OFFCURVE",
"94 664 OFFCURVE",
"102 672 CURVE"
);
}
);
width = 267;
}
);
unicode = 00B0;
},
{
glyphname = divide;
layers = (
{
layerId = "D8D94703-76C4-4836-9DB2-440344724E35";
name = Regular;
paths = (
{
closed = 1;
nodes = (
"297 399 LINE",
"297 490 LINE",
"238 490 LINE",
"238 399 LINE"
);
},
{
closed = 1;
nodes = (
"297 74 LINE",
"297 164 LINE",
"238 164 LINE",
"238 74 LINE"
);
},
{
closed = 1;
nodes = (
"469 254 LINE",
"469 311 LINE",
"66 311 LINE",
"66 254 LINE"
);
}
);
width = 535;
}
);
unicode = 00F7;
},
{
glyphname = dollar;
layers = (
{
layerId = "D8D94703-76C4-4836-9DB2-440344724E35";
name = Regular;
paths = (
{
closed = 1;
nodes = (
"542 633 LINE",
"485 682 OFFCURVE",
"416 712 OFFCURVE",
"329 715 CURVE",
"329 815 LINE",
"292 815 LINE",
"292 714 LINE",
"156 707 OFFCURVE",
"63 636 OFFCURVE",
"63 511 CURVE SMOOTH",
"63 396 OFFCURVE",
"141 360 OFFCURVE",
"296 324 CURVE",
"296 57 LINE",
"200 63 OFFCURVE",
"118 104 OFFCURVE",
"71 154 CURVE",
"37 97 LINE",
"108 35 OFFCURVE",
"193 1 OFFCURVE",
"292 -5 CURVE",
"292 -103 LINE",
"329 -103 LINE",
"329 -6 LINE",
"473 -4 OFFCURVE",
"577 57 OFFCURVE",
"577 186 CURVE SMOOTH",
"577 315 OFFCURVE",
"478 356 OFFCURVE",
"325 386 CURVE",
"325 653 LINE",
"404 650 OFFCURVE",
"470 620 OFFCURVE",
"509 577 CURVE"
);
},
{
closed = 1;
nodes = (
"504 97 OFFCURVE",
"437 56 OFFCURVE",
"325 56 CURVE",
"325 317 LINE",
"443 288 OFFCURVE",
"504 258 OFFCURVE",
"504 179 CURVE SMOOTH"
);
},
{
closed = 1;
nodes = (
"134 598 OFFCURVE",
"183 647 OFFCURVE",
"296 652 CURVE",
"296 393 LINE",
"184 419 OFFCURVE",
"134 445 OFFCURVE",
"134 521 CURVE SMOOTH"
);
}
);
width = 617;
}
);
unicode = 0024;
},
{
glyphname = dotlessi;
layers = (
{
layerId = "D8D94703-76C4-4836-9DB2-440344724E35";
name = Regular;
paths = (
{
closed = 1;
nodes = (
"141 0 LINE",
"141 521 LINE",
"73 521 LINE",
"73 0 LINE"
);
}
);
width = 214;
}
);
unicode = 0131;
},
{
glyphname = dotlessj;
layers = (
{
layerId = "D8D94703-76C4-4836-9DB2-440344724E35";
name = Regular;
paths = (
{
closed = 1;
nodes = (
"66 -181 OFFCURVE",
"141 -115 OFFCURVE",
"141 -23 CURVE SMOOTH",
"141 521 LINE",
"73 521 LINE",
"73 -27 LINE SMOOTH",
"73 -80 OFFCURVE",
"27 -120 OFFCURVE",
"-20 -120 CURVE SMOOTH",
"-45 -120 OFFCURVE",
"-72 -115 OFFCURVE",
"-93 -96 CURVE",
"-126 -142 LINE",
"-96 -170 OFFCURVE",
"-56 -181 OFFCURVE",
"-12 -181 CURVE SMOOTH"
);
}
);
width = 214;
}
);
unicode = 0237;
},
{
glyphname = e;
layers = (
{
layerId = "D8D94703-76C4-4836-9DB2-440344724E35";
name = Regular;
paths = (
{
closed = 1;
nodes = (
"401 -10 OFFCURVE",
"490 44 OFFCURVE",
"522 120 CURVE",
"463 136 LINE",
"439 80 OFFCURVE",
"372 42 OFFCURVE",
"303 42 CURVE SMOOTH",
"203 42 OFFCURVE",
"119 124 OFFCURVE",
"111 236 CURVE",
"556 236 LINE",
"557 240 OFFCURVE",
"558 253 OFFCURVE",
"558 263 CURVE",
"557 406 OFFCURVE",
"452 530 OFFCURVE",
"300 530 CURVE SMOOTH",
"149 530 OFFCURVE",
"39 408 OFFCURVE",
"39 262 CURVE SMOOTH",
"39 114 OFFCURVE",
"149 -10 OFFCURVE",
"301 -10 CURVE SMOOTH"
);
},
{
closed = 1;
nodes = (
"109 288 LINE",
"116 398 OFFCURVE",
"198 477 OFFCURVE",
"300 477 CURVE SMOOTH",
"402 477 OFFCURVE",
"484 399 OFFCURVE",
"493 288 CURVE"
);
}
);
width = 587;
}
);
unicode = 0065;
},
{
glyphname = eacute;
layers = (
{
layerId = "D8D94703-76C4-4836-9DB2-440344724E35";
name = Regular;
paths = (
{
closed = 1;
nodes = (
"389 730 LINE",
"317 730 LINE",
"258 637 LINE",
"303 620 LINE"
);
},
{
closed = 1;
nodes = (
"401 -10 OFFCURVE",
"490 44 OFFCURVE",
"522 120 CURVE",
"463 136 LINE",
"439 80 OFFCURVE",
"372 42 OFFCURVE",
"303 42 CURVE SMOOTH",
"203 42 OFFCURVE",
"119 124 OFFCURVE",
"111 236 CURVE",
"556 236 LINE",
"557 240 OFFCURVE",
"558 253 OFFCURVE",
"558 263 CURVE",
"557 406 OFFCURVE",
"452 530 OFFCURVE",
"300 530 CURVE SMOOTH",
"149 530 OFFCURVE",
"39 408 OFFCURVE",
"39 262 CURVE SMOOTH",
"39 114 OFFCURVE",
"149 -10 OFFCURVE",
"301 -10 CURVE SMOOTH"
);
},
{
closed = 1;
nodes = (
"109 288 LINE",
"116 398 OFFCURVE",
"198 477 OFFCURVE",
"300 477 CURVE SMOOTH",
"402 477 OFFCURVE",
"484 399 OFFCURVE",
"493 288 CURVE"
);
}
);
width = 587;
}
);
unicode = 00E9;
},
{
glyphname = ebreve;
layers = (
{
layerId = "D8D94703-76C4-4836-9DB2-440344724E35";
name = Regular;
paths = (
{
closed = 1;
nodes = (
"401 -10 OFFCURVE",
"490 44 OFFCURVE",
"522 120 CURVE",
"463 136 LINE",
"439 80 OFFCURVE",
"372 42 OFFCURVE",
"303 42 CURVE SMOOTH",
"203 42 OFFCURVE",
"119 124 OFFCURVE",
"111 236 CURVE",
"556 236 LINE",
"557 240 OFFCURVE",
"558 253 OFFCURVE",
"558 263 CURVE",
"557 406 OFFCURVE",
"452 530 OFFCURVE",
"300 530 CURVE SMOOTH",
"149 530 OFFCURVE",
"39 408 OFFCURVE",
"39 262 CURVE SMOOTH",
"39 114 OFFCURVE",
"149 -10 OFFCURVE",
"301 -10 CURVE SMOOTH"
);
},
{
closed = 1;
nodes = (
"109 288 LINE",
"116 398 OFFCURVE",
"198 477 OFFCURVE",
"300 477 CURVE SMOOTH",
"402 477 OFFCURVE",
"484 399 OFFCURVE",
"493 288 CURVE"
);
},
{
closed = 1;
nodes = (
"268 664 OFFCURVE",
"241 696 OFFCURVE",
"241 730 CURVE",
"199 730 LINE",
"199 673 OFFCURVE",
"242 629 OFFCURVE",
"297 629 CURVE SMOOTH",
"351 629 OFFCURVE",
"395 673 OFFCURVE",
"395 730 CURVE",
"354 730 LINE",
"350 693 OFFCURVE",
"325 664 OFFCURVE",
"297 664 CURVE SMOOTH"
);
}
);
width = 587;
}
);
unicode = 0115;
},
{
glyphname = ecaron;
layers = (
{
layerId = "D8D94703-76C4-4836-9DB2-440344724E35";
name = Regular;
paths = (
{
closed = 1;
nodes = (
"174 710 LINE",
"272 624 LINE",
"322 624 LINE",
"421 710 LINE",
"382 730 LINE",
"297 667 LINE",
"212 730 LINE"
);
},
{
closed = 1;
nodes = (
"401 -10 OFFCURVE",
"490 44 OFFCURVE",
"522 120 CURVE",
"463 136 LINE",
"439 80 OFFCURVE",
"372 42 OFFCURVE",
"303 42 CURVE SMOOTH",
"203 42 OFFCURVE",
"119 124 OFFCURVE",
"111 236 CURVE",
"556 236 LINE",
"557 240 OFFCURVE",
"558 253 OFFCURVE",
"558 263 CURVE",
"557 406 OFFCURVE",
"452 530 OFFCURVE",
"300 530 CURVE SMOOTH",
"149 530 OFFCURVE",
"39 408 OFFCURVE",
"39 262 CURVE SMOOTH",
"39 114 OFFCURVE",
"149 -10 OFFCURVE",
"301 -10 CURVE SMOOTH"
);
},
{
closed = 1;
nodes = (
"109 288 LINE",
"116 398 OFFCURVE",
"198 477 OFFCURVE",
"300 477 CURVE SMOOTH",
"402 477 OFFCURVE",
"484 399 OFFCURVE",
"493 288 CURVE"
);
}
);
width = 587;
}
);
unicode = 011B;
},
{
glyphname = ecircumflex;
layers = (
{
layerId = "D8D94703-76C4-4836-9DB2-440344724E35";
name = Regular;
paths = (
{
closed = 1;
nodes = (
"212 624 LINE",
"297 687 LINE",
"382 624 LINE",
"421 645 LINE",
"322 730 LINE",
"272 730 LINE",
"174 645 LINE"
);
},
{
closed = 1;
nodes = (
"401 -10 OFFCURVE",
"490 44 OFFCURVE",
"522 120 CURVE",
"463 136 LINE",
"439 80 OFFCURVE",
"372 42 OFFCURVE",
"303 42 CURVE SMOOTH",
"203 42 OFFCURVE",
"119 124 OFFCURVE",
"111 236 CURVE",
"556 236 LINE",
"557 240 OFFCURVE",
"558 253 OFFCURVE",
"558 263 CURVE",
"557 406 OFFCURVE",
"452 530 OFFCURVE",
"300 530 CURVE SMOOTH",
"149 530 OFFCURVE",
"39 408 OFFCURVE",
"39 262 CURVE SMOOTH",
"39 114 OFFCURVE",
"149 -10 OFFCURVE",
"301 -10 CURVE SMOOTH"
);
},
{
closed = 1;
nodes = (
"109 288 LINE",
"116 398 OFFCURVE",
"198 477 OFFCURVE",
"300 477 CURVE SMOOTH",
"402 477 OFFCURVE",
"484 399 OFFCURVE",
"493 288 CURVE"
);
}
);
width = 587;
}
);
unicode = 00EA;
},
{
glyphname = edieresis;
layers = (
{
layerId = "D8D94703-76C4-4836-9DB2-440344724E35";
name = Regular;
paths = (
{
closed = 1;
nodes = (
"252 633 LINE",
"252 727 LINE",
"194 727 LINE",
"194 633 LINE"
);
},
{
closed = 1;
nodes = (
"401 633 LINE",
"401 727 LINE",
"343 727 LINE",
"343 633 LINE"
);
},
{
closed = 1;
nodes = (
"401 -10 OFFCURVE",
"490 44 OFFCURVE",
"522 120 CURVE",
"463 136 LINE",
"439 80 OFFCURVE",
"372 42 OFFCURVE",
"303 42 CURVE SMOOTH",
"203 42 OFFCURVE",
"119 124 OFFCURVE",
"111 236 CURVE",
"556 236 LINE",
"557 240 OFFCURVE",
"558 253 OFFCURVE",
"558 263 CURVE",
"557 406 OFFCURVE",
"452 530 OFFCURVE",
"300 530 CURVE SMOOTH",
"149 530 OFFCURVE",
"39 408 OFFCURVE",
"39 262 CURVE SMOOTH",
"39 114 OFFCURVE",
"149 -10 OFFCURVE",
"301 -10 CURVE SMOOTH"
);
},
{
closed = 1;
nodes = (
"109 288 LINE",
"116 398 OFFCURVE",
"198 477 OFFCURVE",
"300 477 CURVE SMOOTH",
"402 477 OFFCURVE",
"484 399 OFFCURVE",
"493 288 CURVE"
);
}
);
width = 587;
}
);
unicode = 00EB;
},
{
glyphname = edotaccent;
layers = (
{
layerId = "D8D94703-76C4-4836-9DB2-440344724E35";
name = Regular;
paths = (
{
closed = 1;
nodes = (
"401 -10 OFFCURVE",
"490 44 OFFCURVE",
"522 120 CURVE",
"463 136 LINE",
"439 80 OFFCURVE",
"372 42 OFFCURVE",
"303 42 CURVE SMOOTH",
"203 42 OFFCURVE",
"119 124 OFFCURVE",
"111 236 CURVE",
"556 236 LINE",
"557 240 OFFCURVE",
"558 253 OFFCURVE",
"558 263 CURVE",
"557 406 OFFCURVE",
"452 530 OFFCURVE",
"300 530 CURVE SMOOTH",
"149 530 OFFCURVE",
"39 408 OFFCURVE",
"39 262 CURVE SMOOTH",
"39 114 OFFCURVE",
"149 -10 OFFCURVE",
"301 -10 CURVE SMOOTH"
);
},
{
closed = 1;
nodes = (
"109 288 LINE",
"116 398 OFFCURVE",
"198 477 OFFCURVE",
"300 477 CURVE SMOOTH",
"402 477 OFFCURVE",
"484 399 OFFCURVE",
"493 288 CURVE"
);
},
{
closed = 1;
nodes = (
"328 633 LINE",
"328 730 LINE",
"266 730 LINE",
"266 633 LINE"
);
}
);
width = 587;
}
);
unicode = 0117;
},
{
glyphname = egrave;
layers = (
{
layerId = "D8D94703-76C4-4836-9DB2-440344724E35";
name = Regular;
paths = (
{
closed = 1;
nodes = (
"401 -10 OFFCURVE",
"490 44 OFFCURVE",
"522 120 CURVE",
"463 136 LINE",
"439 80 OFFCURVE",
"372 42 OFFCURVE",
"303 42 CURVE SMOOTH",
"203 42 OFFCURVE",
"119 124 OFFCURVE",
"111 236 CURVE",
"556 236 LINE",
"557 240 OFFCURVE",
"558 253 OFFCURVE",
"558 263 CURVE",
"557 406 OFFCURVE",
"452 530 OFFCURVE",
"300 530 CURVE SMOOTH",
"149 530 OFFCURVE",
"39 408 OFFCURVE",
"39 262 CURVE SMOOTH",
"39 114 OFFCURVE",
"149 -10 OFFCURVE",
"301 -10 CURVE SMOOTH"
);
},
{
closed = 1;
nodes = (
"109 288 LINE",
"116 398 OFFCURVE",
"198 477 OFFCURVE",
"300 477 CURVE SMOOTH",
"402 477 OFFCURVE",
"484 399 OFFCURVE",
"493 288 CURVE"
);
},
{
closed = 1;
nodes = (
"291 620 LINE",
"335 637 LINE",
"275 730 LINE",
"204 730 LINE"
);
}
);
width = 587;
}
);
unicode = 00E8;
},
{
glyphname = eight;
lastChange = "2014-10-26 20:35:20 +0100";
layers = (
{
layerId = "D8D94703-76C4-4836-9DB2-440344724E35";
name = Regular;
paths = (
{
closed = 1;
nodes = (
"544 287 OFFCURVE",
"479 353 OFFCURVE",
"401 380 CURVE",
"465 406 OFFCURVE",
"520 460 OFFCURVE",
"520 530 CURVE SMOOTH",
"520 646 OFFCURVE",
"404 710 OFFCURVE",
"298 710 CURVE SMOOTH",
"192 710 OFFCURVE",
"76 646 OFFCURVE",
"76 529 CURVE SMOOTH",
"76 459 OFFCURVE",
"130 406 OFFCURVE",
"193 380 CURVE",
"124 356 OFFCURVE",
"51 292 OFFCURVE",
"51 201 CURVE SMOOTH",
"51 86 OFFCURVE",
"153 -8 OFFCURVE",
"295 -8 CURVE SMOOTH",
"429 -8 OFFCURVE",
"544 73 OFFCURVE",
"544 197 CURVE SMOOTH"
);
},
{
closed = 1;
nodes = (
"475 112 OFFCURVE",
"385 53 OFFCURVE",
"299 53 CURVE SMOOTH",
"215 53 OFFCURVE",
"121 108 OFFCURVE",
"121 201 CURVE SMOOTH",
"121 292 OFFCURVE",
"209 351 OFFCURVE",
"297 351 CURVE SMOOTH",
"380 351 OFFCURVE",
"475 297 OFFCURVE",
"475 202 CURVE SMOOTH"
);
},
{
closed = 1;
nodes = (
"145 602 OFFCURVE",
"218 648 OFFCURVE",
"297 648 CURVE SMOOTH",
"376 648 OFFCURVE",
"451 604 OFFCURVE",
"451 528 CURVE SMOOTH",
"451 450 OFFCURVE",
"368 405 OFFCURVE",
"298 405 CURVE SMOOTH",
"227 405 OFFCURVE",
"145 448 OFFCURVE",
"145 526 CURVE SMOOTH"
);
}
);
width = 596;
}
);
unicode = 0038;
},
{
glyphname = eightinferior;
layers = (
{
layerId = "D8D94703-76C4-4836-9DB2-440344724E35";
name = Regular;
paths = (
{
closed = 1;
nodes = (
"359 162 OFFCURVE",
"319 197 OFFCURVE",
"266 214 CURVE",
"309 228 OFFCURVE",
"343 257 OFFCURVE",
"343 298 CURVE SMOOTH",
"343 361 OFFCURVE",
"269 399 OFFCURVE",
"199 399 CURVE SMOOTH",
"129 399 OFFCURVE",
"54 361 OFFCURVE",
"54 297 CURVE SMOOTH",
"54 256 OFFCURVE",
"90 228 OFFCURVE",
"130 214 CURVE",
"84 199 OFFCURVE",
"38 165 OFFCURVE",
"38 113 CURVE SMOOTH",
"38 49 OFFCURVE",
"104 -5 OFFCURVE",
"197 -5 CURVE SMOOTH",
"285 -5 OFFCURVE",
"359 42 OFFCURVE",
"359 111 CURVE SMOOTH"
);
},
{
closed = 1;
nodes = (
"314 69 OFFCURVE",
"256 39 OFFCURVE",
"199 39 CURVE SMOOTH",
"145 39 OFFCURVE",
"83 67 OFFCURVE",
"83 115 CURVE SMOOTH",
"83 163 OFFCURVE",
"141 194 OFFCURVE",
"198 194 CURVE SMOOTH",
"253 194 OFFCURVE",
"314 165 OFFCURVE",
"314 116 CURVE SMOOTH"
);
},
{
closed = 1;
nodes = (
"99 332 OFFCURVE",
"146 357 OFFCURVE",
"198 357 CURVE SMOOTH",
"249 357 OFFCURVE",
"299 333 OFFCURVE",
"299 294 CURVE SMOOTH",
"299 255 OFFCURVE",
"245 231 OFFCURVE",
"198 231 CURVE SMOOTH",
"152 231 OFFCURVE",
"99 254 OFFCURVE",
"99 293 CURVE SMOOTH"
);
}
);
width = 398;
}
);
unicode = 2088;
},
{
glyphname = eightsuperior;
layers = (
{
layerId = "D8D94703-76C4-4836-9DB2-440344724E35";
name = Regular;
paths = (
{
closed = 1;
nodes = (
"359 493 OFFCURVE",
"319 528 OFFCURVE",
"266 545 CURVE",
"309 559 OFFCURVE",
"343 588 OFFCURVE",
"343 629 CURVE SMOOTH",
"343 692 OFFCURVE",
"269 730 OFFCURVE",
"199 730 CURVE SMOOTH",
"129 730 OFFCURVE",
"54 691 OFFCURVE",
"54 628 CURVE SMOOTH",
"54 587 OFFCURVE",
"90 559 OFFCURVE",
"130 545 CURVE",
"84 529 OFFCURVE",
"38 496 OFFCURVE",
"38 444 CURVE SMOOTH",
"38 380 OFFCURVE",
"104 326 OFFCURVE",
"197 326 CURVE SMOOTH",
"285 326 OFFCURVE",
"359 373 OFFCURVE",
"359 442 CURVE SMOOTH"
);
},
{
closed = 1;
nodes = (
"314 400 OFFCURVE",
"256 370 OFFCURVE",
"199 370 CURVE SMOOTH",
"145 370 OFFCURVE",
"83 398 OFFCURVE",
"83 447 CURVE SMOOTH",
"83 494 OFFCURVE",
"141 525 OFFCURVE",
"198 525 CURVE SMOOTH",
"253 525 OFFCURVE",
"314 496 OFFCURVE",
"314 447 CURVE SMOOTH"
);
},
{
closed = 1;
nodes = (
"99 663 OFFCURVE",
"146 687 OFFCURVE",
"198 687 CURVE SMOOTH",
"249 687 OFFCURVE",
"299 664 OFFCURVE",
"299 625 CURVE SMOOTH",
"299 585 OFFCURVE",
"245 562 OFFCURVE",
"198 562 CURVE SMOOTH",
"152 562 OFFCURVE",
"99 584 OFFCURVE",
"99 625 CURVE SMOOTH"
);
}
);
width = 398;
}
);
unicode = 2078;
},
{
glyphname = ellipsis;
layers = (
{
layerId = "D8D94703-76C4-4836-9DB2-440344724E35";
name = Regular;
paths = (
{
closed = 1;
nodes = (
"124 0 LINE",
"124 98 LINE",
"66 98 LINE",
"66 0 LINE"
);
},
{
closed = 1;
nodes = (
"258 0 LINE",
"258 98 LINE",
"200 98 LINE",
"200 0 LINE"
);
},
{
closed = 1;
nodes = (
"392 0 LINE",
"392 98 LINE",
"334 98 LINE",
"334 0 LINE"
);
}
);
width = 458;
}
);
unicode = 2026;
},
{
glyphname = emacron;
layers = (
{
layerId = "D8D94703-76C4-4836-9DB2-440344724E35";
name = Regular;
paths = (
{
closed = 1;
nodes = (
"401 -10 OFFCURVE",
"490 44 OFFCURVE",
"522 120 CURVE",
"463 136 LINE",
"439 80 OFFCURVE",
"372 42 OFFCURVE",
"303 42 CURVE SMOOTH",
"203 42 OFFCURVE",
"119 124 OFFCURVE",
"111 236 CURVE",
"556 236 LINE",
"557 240 OFFCURVE",
"558 253 OFFCURVE",
"558 263 CURVE",
"557 406 OFFCURVE",
"452 530 OFFCURVE",
"300 530 CURVE SMOOTH",
"149 530 OFFCURVE",
"39 408 OFFCURVE",
"39 262 CURVE SMOOTH",
"39 114 OFFCURVE",
"149 -10 OFFCURVE",
"301 -10 CURVE SMOOTH"
);
},
{
closed = 1;
nodes = (
"109 288 LINE",
"116 398 OFFCURVE",
"198 477 OFFCURVE",
"300 477 CURVE SMOOTH",
"402 477 OFFCURVE",
"484 399 OFFCURVE",
"493 288 CURVE"
);
},
{
closed = 1;
nodes = (
"442 663 LINE",
"442 710 LINE",
"153 710 LINE",
"153 663 LINE"
);
}
);
width = 587;
}
);
unicode = 0113;
},
{
glyphname = emdash;
layers = (
{
layerId = "D8D94703-76C4-4836-9DB2-440344724E35";
name = Regular;
paths = (
{
closed = 1;
nodes = (
"836 241 LINE",
"836 304 LINE",
"66 304 LINE",
"66 241 LINE"
);
}
);
width = 901;
}
);
unicode = 2014;
},
{
glyphname = endash;
layers = (
{
layerId = "D8D94703-76C4-4836-9DB2-440344724E35";
name = Regular;
paths = (
{
closed = 1;
nodes = (
"505 241 LINE",
"505 304 LINE",
"66 304 LINE",
"66 241 LINE"
);
}
);
width = 570;
}
);
unicode = 2013;
},
{
glyphname = eng;
layers = (
{
layerId = "D8D94703-76C4-4836-9DB2-440344724E35";
name = Regular;
paths = (
{
closed = 1;
nodes = (
"436 -181 OFFCURVE",
"511 -115 OFFCURVE",
"511 -23 CURVE SMOOTH",
"511 305 LINE SMOOTH",
"511 442 OFFCURVE",
"473 530 OFFCURVE",
"356 530 CURVE SMOOTH",
"264 530 OFFCURVE",
"177 479 OFFCURVE",
"135 403 CURVE",
"135 521 LINE",
"73 521 LINE",
"73 0 LINE",
"141 0 LINE",
"141 319 LINE",
"167 405 OFFCURVE",
"251 468 OFFCURVE",
"332 468 CURVE SMOOTH",
"408 468 OFFCURVE",
"443 414 OFFCURVE",
"443 291 CURVE SMOOTH",
"443 -27 LINE SMOOTH",
"443 -80 OFFCURVE",
"397 -120 OFFCURVE",
"351 -120 CURVE SMOOTH",
"325 -120 OFFCURVE",
"298 -115 OFFCURVE",
"277 -96 CURVE",
"244 -142 LINE",
"274 -170 OFFCURVE",
"314 -181 OFFCURVE",
"358 -181 CURVE SMOOTH"
);
}
);
width = 579;
}
);
unicode = 014B;
},
{
glyphname = eogonek;
layers = (
{
layerId = "D8D94703-76C4-4836-9DB2-440344724E35";
name = Regular;
paths = (
{
closed = 1;
nodes = (
"312 -143 LINE",
"277 -138 OFFCURVE",
"260 -123 OFFCURVE",
"260 -99 CURVE SMOOTH",
"260 -70 OFFCURVE",
"282 -44 OFFCURVE",
"340 -7 CURVE",
"424 4 OFFCURVE",
"495 54 OFFCURVE",
"523 120 CURVE",
"464 136 LINE",
"440 80 OFFCURVE",
"373 42 OFFCURVE",
"304 42 CURVE SMOOTH",
"204 42 OFFCURVE",
"120 124 OFFCURVE",
"112 236 CURVE",
"557 236 LINE",
"558 240 OFFCURVE",
"559 253 OFFCURVE",
"559 263 CURVE",
"558 406 OFFCURVE",
"453 530 OFFCURVE",
"301 530 CURVE SMOOTH",
"150 530 OFFCURVE",
"40 408 OFFCURVE",
"40 262 CURVE SMOOTH",
"40 118 OFFCURVE",
"143 -2 OFFCURVE",
"288 -10 CURVE",
"239 -44 OFFCURVE",
"218 -76 OFFCURVE",
"218 -108 CURVE SMOOTH",
"218 -143 OFFCURVE",
"244 -171 OFFCURVE",
"293 -181 CURVE"
);
},
{
closed = 1;
nodes = (
"110 288 LINE",
"117 398 OFFCURVE",
"199 477 OFFCURVE",
"301 477 CURVE SMOOTH",
"403 477 OFFCURVE",
"485 399 OFFCURVE",
"494 288 CURVE"
);
}
);
width = 589;
}
);
unicode = 0119;
},
{
glyphname = equal;
layers = (
{
layerId = "D8D94703-76C4-4836-9DB2-440344724E35";
name = Regular;
paths = (
{
closed = 1;
nodes = (
"372 194 LINE",
"372 243 LINE",
"70 243 LINE",
"70 194 LINE"
);
},
{
closed = 1;
nodes = (
"372 309 LINE",
"372 358 LINE",
"70 358 LINE",
"70 309 LINE"
);
}
);
width = 441;
}
);
unicode = 003D;
},
{
glyphname = eth;
layers = (
{
layerId = "D8D94703-76C4-4836-9DB2-440344724E35";
name = Regular;
paths = (
{
closed = 1;
nodes = (
"473 713 LINE",
"385 658 LINE",
"356 683 OFFCURVE",
"323 707 OFFCURVE",
"285 730 CURVE",
"189 730 LINE",
"247 697 OFFCURVE",
"294 665 OFFCURVE",
"332 632 CURVE",
"227 567 LINE",
"249 536 LINE",
"360 606 LINE",
"444 524 OFFCURVE",
"476 441 OFFCURVE",
"489 357 CURVE",
"453 426 OFFCURVE",
"375 474 OFFCURVE",
"286 474 CURVE SMOOTH",
"151 474 OFFCURVE",
"41 364 OFFCURVE",
"41 233 CURVE SMOOTH",
"41 98 OFFCURVE",
"156 -10 OFFCURVE",
"296 -10 CURVE SMOOTH",
"438 -10 OFFCURVE",
"559 105 OFFCURVE",
"559 277 CURVE SMOOTH",
"559 388 OFFCURVE",
"526 519 OFFCURVE",
"412 632 CURVE",
"495 683 LINE"
);
},
{
closed = 1;
nodes = (
"111 334 OFFCURVE",
"196 417 OFFCURVE",
"301 417 CURVE SMOOTH",
"404 417 OFFCURVE",
"489 340 OFFCURVE",
"489 241 CURVE SMOOTH",
"489 138 OFFCURVE",
"404 50 OFFCURVE",
"298 50 CURVE SMOOTH",
"194 50 OFFCURVE",
"111 131 OFFCURVE",
"111 232 CURVE SMOOTH"
);
}
);
width = 603;
}
);
unicode = 00F0;
},
{
glyphname = etilde;
layers = (
{
layerId = "D8D94703-76C4-4836-9DB2-440344724E35";
name = Regular;
paths = (
{
closed = 1;
nodes = (
"401 -10 OFFCURVE",
"490 44 OFFCURVE",
"522 120 CURVE",
"463 136 LINE",
"439 80 OFFCURVE",
"372 42 OFFCURVE",
"303 42 CURVE SMOOTH",
"203 42 OFFCURVE",
"119 124 OFFCURVE",
"111 236 CURVE",
"556 236 LINE",
"557 240 OFFCURVE",
"558 253 OFFCURVE",
"558 263 CURVE",
"557 406 OFFCURVE",
"452 530 OFFCURVE",
"300 530 CURVE SMOOTH",
"149 530 OFFCURVE",
"39 408 OFFCURVE",
"39 262 CURVE SMOOTH",
"39 114 OFFCURVE",
"149 -10 OFFCURVE",
"301 -10 CURVE SMOOTH"
);
},
{
closed = 1;
nodes = (
"109 288 LINE",
"116 398 OFFCURVE",
"198 477 OFFCURVE",
"300 477 CURVE SMOOTH",
"402 477 OFFCURVE",
"484 399 OFFCURVE",
"493 288 CURVE"
);
},
{
closed = 1;
nodes = (
"440 638 OFFCURVE",
"457 717 OFFCURVE",
"457 730 CURVE",
"415 730 LINE",
"415 726 OFFCURVE",
"410 681 OFFCURVE",
"358 681 CURVE SMOOTH",
"308 681 OFFCURVE",
"286 723 OFFCURVE",
"230 723 CURVE SMOOTH",
"155 723 OFFCURVE",
"139 644 OFFCURVE",
"139 630 CURVE",
"181 630 LINE",
"181 635 OFFCURVE",
"187 678 OFFCURVE",
"231 678 CURVE SMOOTH",
"273 678 OFFCURVE",
"299 638 OFFCURVE",
"359 638 CURVE SMOOTH"
);
}
);
width = 587;
}
);
unicode = 1EBD;
},
{
glyphname = exclam;
layers = (
{
layerId = "D8D94703-76C4-4836-9DB2-440344724E35";
name = Regular;
paths = (
{
closed = 1;
nodes = (
"156 228 LINE",
"156 717 LINE",
"88 717 LINE",
"88 228 LINE"
);
},
{
closed = 1;
nodes = (
"156 0 LINE",
"156 112 LINE",
"88 112 LINE",
"88 0 LINE"
);
}
);
width = 243;
}
);
unicode = 0021;
},
{
glyphname = exclamdown;
layers = (
{
layerId = "D8D94703-76C4-4836-9DB2-440344724E35";
name = Regular;
paths = (
{
closed = 1;
nodes = (
"88 487 LINE",
"88 -2 LINE",
"156 -2 LINE",
"156 487 LINE"
);
},
{
closed = 1;
nodes = (
"88 715 LINE",
"88 603 LINE",
"156 603 LINE",
"156 715 LINE"
);
}
);
width = 244;
}
);
unicode = 00A1;
},
{
glyphname = f;
layers = (
{
layerId = "D8D94703-76C4-4836-9DB2-440344724E35";
name = Regular;
paths = (
{
closed = 1;
nodes = (
"169 0 LINE",
"169 406 LINE",
"313 406 LINE",
"313 460 LINE",
"169 460 LINE",
"169 537 LINE SMOOTH",
"169 630 OFFCURVE",
"204 681 OFFCURVE",
"268 681 CURVE SMOOTH",
"295 681 OFFCURVE",
"325 672 OFFCURVE",
"343 658 CURVE",
"364 707 LINE",
"336 727 OFFCURVE",
"295 740 OFFCURVE",
"255 740 CURVE SMOOTH",
"160 740 OFFCURVE",
"101 662 OFFCURVE",
"101 535 CURVE SMOOTH",
"101 460 LINE",
"29 460 LINE",
"29 406 LINE",
"101 406 LINE",
"101 0 LINE"
);
}
);
width = 345;
}
);
unicode = 0066;
},
{
glyphname = five;
lastChange = "2014-10-26 20:35:24 +0100";
layers = (
{
layerId = "D8D94703-76C4-4836-9DB2-440344724E35";
name = Regular;
paths = (
{
closed = 1;
nodes = (
"228 451 OFFCURVE",
"175 430 OFFCURVE",
"141 392 CURVE",
"190 647 LINE",
"482 647 LINE",
"482 710 LINE",
"139 710 LINE SMOOTH",
"139 710 OFFCURVE",
"67 345 OFFCURVE",
"60 311 CURVE",
"123 311 LINE",
"158 362 OFFCURVE",
"218 391 OFFCURVE",
"279 391 CURVE SMOOTH",
"374 391 OFFCURVE",
"449 322 OFFCURVE",
"449 224 CURVE SMOOTH",
"449 122 OFFCURVE",
"372 52 OFFCURVE",
"273 52 CURVE SMOOTH",
"196 52 OFFCURVE",
"127 95 OFFCURVE",
"90 161 CURVE",
"45 127 LINE",
"86 44 OFFCURVE",
"171 -10 OFFCURVE",
"272 -10 CURVE SMOOTH",
"408 -10 OFFCURVE",
"518 85 OFFCURVE",
"518 225 CURVE SMOOTH",
"518 358 OFFCURVE",
"417 451 OFFCURVE",
"287 451 CURVE SMOOTH"
);
}
);
width = 564;
}
);
unicode = 0035;
},
{
glyphname = fiveeighths;
layers = (
{
layerId = "D8D94703-76C4-4836-9DB2-440344724E35";
name = Regular;
paths = (
{
closed = 1;
nodes = (
"835 162 OFFCURVE",
"795 197 OFFCURVE",
"742 214 CURVE",
"785 228 OFFCURVE",
"819 257 OFFCURVE",
"819 298 CURVE SMOOTH",
"819 361 OFFCURVE",
"745 399 OFFCURVE",
"675 399 CURVE SMOOTH",
"605 399 OFFCURVE",
"530 361 OFFCURVE",
"530 297 CURVE SMOOTH",
"530 256 OFFCURVE",
"566 228 OFFCURVE",
"606 214 CURVE",
"560 199 OFFCURVE",
"514 165 OFFCURVE",
"514 113 CURVE SMOOTH",
"514 49 OFFCURVE",
"580 -5 OFFCURVE",
"673 -5 CURVE SMOOTH",
"761 -5 OFFCURVE",
"835 42 OFFCURVE",
"835 111 CURVE SMOOTH"
);
},
{
closed = 1;
nodes = (
"790 69 OFFCURVE",
"732 39 OFFCURVE",
"675 39 CURVE SMOOTH",
"621 39 OFFCURVE",
"559 67 OFFCURVE",
"559 115 CURVE SMOOTH",
"559 163 OFFCURVE",
"617 194 OFFCURVE",
"674 194 CURVE SMOOTH",
"729 194 OFFCURVE",
"790 165 OFFCURVE",
"790 116 CURVE SMOOTH"
);
},
{
closed = 1;
nodes = (
"575 332 OFFCURVE",
"622 357 OFFCURVE",
"674 357 CURVE SMOOTH",
"725 357 OFFCURVE",
"775 333 OFFCURVE",
"775 294 CURVE SMOOTH",
"775 255 OFFCURVE",
"721 231 OFFCURVE",
"674 231 CURVE SMOOTH",
"628 231 OFFCURVE",
"575 254 OFFCURVE",
"575 293 CURVE SMOOTH"
);
},
{
closed = 1;
nodes = (
"160 585 OFFCURVE",
"126 574 OFFCURVE",
"103 555 CURVE",
"136 686 LINE",
"325 686 LINE",
"325 730 LINE",
"102 730 LINE",
"97 698 OFFCURVE",
"59 551 OFFCURVE",
"49 502 CURVE",
"91 502 LINE",
"112 530 OFFCURVE",
"153 549 OFFCURVE",
"193 549 CURVE SMOOTH",
"247 549 OFFCURVE",
"304 518 OFFCURVE",
"304 459 CURVE SMOOTH",
"304 404 OFFCURVE",
"255 368 OFFCURVE",
"191 368 CURVE SMOOTH",
"138 368 OFFCURVE",
"94 391 OFFCURVE",
"70 426 CURVE",
"40 401 LINE",
"66 355 OFFCURVE",
"123 326 OFFCURVE",
"188 326 CURVE SMOOTH",
"278 326 OFFCURVE",
"350 379 OFFCURVE",
"350 459 CURVE SMOOTH",
"350 533 OFFCURVE",
"284 585 OFFCURVE",
"198 585 CURVE SMOOTH"
);
},
{
closed = 1;
nodes = (
"171 -4 LINE",
"444 344 LINE",
"722 684 LINE",
"687 714 LINE",
"416 367 LINE",
"136 27 LINE"
);
}
);
width = 876;
}
);
unicode = 215D;
},
{
glyphname = fivesuperior;
layers = (
{
layerId = "D8D94703-76C4-4836-9DB2-440344724E35";
name = Regular;
paths = (
{
closed = 1;
nodes = (
"153 585 OFFCURVE",
"119 574 OFFCURVE",
"96 555 CURVE",
"129 686 LINE",
"318 686 LINE",
"318 730 LINE",
"95 730 LINE",
"90 698 OFFCURVE",
"52 551 OFFCURVE",
"42 502 CURVE",
"84 502 LINE",
"105 530 OFFCURVE",
"146 549 OFFCURVE",
"186 549 CURVE SMOOTH",
"240 549 OFFCURVE",
"297 518 OFFCURVE",
"297 459 CURVE SMOOTH",
"297 404 OFFCURVE",
"248 368 OFFCURVE",
"184 368 CURVE SMOOTH",
"131 368 OFFCURVE",
"87 391 OFFCURVE",
"63 426 CURVE",
"33 401 LINE",
"59 355 OFFCURVE",
"116 326 OFFCURVE",
"181 326 CURVE SMOOTH",
"271 326 OFFCURVE",
"343 379 OFFCURVE",
"343 459 CURVE SMOOTH",
"343 533 OFFCURVE",
"277 585 OFFCURVE",
"191 585 CURVE SMOOTH"
);
}
);
width = 377;
}
);
unicode = 2075;
},
{
glyphname = fraction;
layers = (
{
layerId = "D8D94703-76C4-4836-9DB2-440344724E35";
name = Regular;
paths = (
{
closed = 1;
nodes = (
"-181 -4 LINE",
"92 344 LINE",
"370 684 LINE",
"335 714 LINE",
"64 367 LINE",
"-216 27 LINE"
);
}
);
width = 154;
}
);
unicode = 2044;
},
{
glyphname = fiveinferior;
layers = (
{
layerId = "D8D94703-76C4-4836-9DB2-440344724E35";
name = Regular;
paths = (
{
closed = 1;
nodes = (
"152 254 OFFCURVE",
"118 244 OFFCURVE",
"95 225 CURVE",
"128 355 LINE",
"317 355 LINE",
"317 399 LINE",
"94 399 LINE",
"89 367 OFFCURVE",
"51 220 OFFCURVE",
"41 171 CURVE",
"83 171 LINE",
"104 199 OFFCURVE",
"145 218 OFFCURVE",
"185 218 CURVE SMOOTH",
"239 218 OFFCURVE",
"296 187 OFFCURVE",
"296 128 CURVE SMOOTH",
"296 74 OFFCURVE",
"247 37 OFFCURVE",
"183 37 CURVE SMOOTH",
"130 37 OFFCURVE",
"86 60 OFFCURVE",
"62 95 CURVE",
"32 69 LINE",
"58 25 OFFCURVE",
"115 -5 OFFCURVE",
"180 -5 CURVE SMOOTH",
"270 -5 OFFCURVE",
"342 49 OFFCURVE",
"342 127 CURVE SMOOTH",
"342 203 OFFCURVE",
"276 254 OFFCURVE",
"190 254 CURVE SMOOTH"
);
}
);
width = 376;
}
);
unicode = 2085;
},
{
glyphname = florin;
layers = (
{
layerId = "D8D94703-76C4-4836-9DB2-440344724E35";
name = Regular;
paths = (
{
closed = 1;
nodes = (
"222 -181 OFFCURVE",
"298 -117 OFFCURVE",
"298 -25 CURVE SMOOTH",
"298 406 LINE",
"442 406 LINE",
"442 460 LINE",
"298 460 LINE",
"298 537 LINE SMOOTH",
"298 630 OFFCURVE",
"332 681 OFFCURVE",
"396 681 CURVE SMOOTH",
"424 681 OFFCURVE",
"454 672 OFFCURVE",
"472 658 CURVE",
"493 707 LINE",
"465 727 OFFCURVE",
"423 740 OFFCURVE",
"383 740 CURVE SMOOTH",
"289 740 OFFCURVE",
"230 662 OFFCURVE",
"230 535 CURVE SMOOTH",
"230 460 LINE",
"158 460 LINE",
"158 406 LINE",
"230 406 LINE",
"230 -27 LINE SMOOTH",
"230 -80 OFFCURVE",
"184 -120 OFFCURVE",
"137 -120 CURVE SMOOTH",
"112 -120 OFFCURVE",
"85 -115 OFFCURVE",
"64 -96 CURVE",
"31 -142 LINE",
"61 -170 OFFCURVE",
"101 -181 OFFCURVE",
"145 -181 CURVE SMOOTH"
);
}
);
width = 526;
}
);
unicode = 0192;
},
{
glyphname = four;
lastChange = "2014-10-26 20:35:28 +0100";
layers = (
{
layerId = "D8D94703-76C4-4836-9DB2-440344724E35";
name = Regular;
paths = (
{
closed = 1;
nodes = (
"442 0 LINE",
"442 190 LINE",
"530 190 LINE",
"530 252 LINE",
"442 252 LINE",
"442 710 LINE",
"395 710 LINE",
"25 251 LINE",
"25 190 LINE",
"374 190 LINE",
"374 0 LINE"
);
},
{
closed = 1;
nodes = (
"380 604 LINE",
"380 252 LINE",
"98 252 LINE"
);
}
);
width = 567;
}
);
unicode = 0034;
},
{
glyphname = fourinferior;
layers = (
{
layerId = "D8D94703-76C4-4836-9DB2-440344724E35";
name = Regular;
paths = (
{
closed = 1;
nodes = (
"297 0 LINE",
"297 103 LINE",
"354 103 LINE",
"354 147 LINE",
"297 147 LINE",
"297 399 LINE",
"266 399 LINE",
"24 145 LINE",
"24 103 LINE",
"252 103 LINE",
"252 0 LINE"
);
},
{
closed = 1;
nodes = (
"253 338 LINE",
"253 147 LINE",
"72 147 LINE"
);
}
);
width = 384;
}
);
unicode = 2084;
},
{
glyphname = foursuperior;
layers = (
{
layerId = "D8D94703-76C4-4836-9DB2-440344724E35";
name = Regular;
paths = (
{
closed = 1;
nodes = (
"297 331 LINE",
"297 434 LINE",
"354 434 LINE",
"354 477 LINE",
"297 477 LINE",
"297 730 LINE",
"266 730 LINE",
"24 476 LINE",
"24 434 LINE",
"252 434 LINE",
"252 331 LINE"
);
},
{
closed = 1;
nodes = (
"253 669 LINE",
"253 477 LINE",
"72 477 LINE"
);
}
);
width = 384;
}
);
unicode = 2074;
},
{
glyphname = g;
layers = (
{
layerId = "D8D94703-76C4-4836-9DB2-440344724E35";
name = Regular;
paths = (
{
closed = 1;
nodes = (
"359 -7 OFFCURVE",
"434 35 OFFCURVE",
"475 101 CURVE",
"475 -2 LINE SMOOTH",
"475 -114 OFFCURVE",
"389 -169 OFFCURVE",
"287 -169 CURVE SMOOTH",
"210 -169 OFFCURVE",
"137 -138 OFFCURVE",
"96 -72 CURVE",
"54 -105 LINE",
"100 -177 OFFCURVE",
"168 -223 OFFCURVE",
"287 -223 CURVE SMOOTH",
"427 -223 OFFCURVE",
"543 -147 OFFCURVE",
"543 -2 CURVE SMOOTH",
"543 521 LINE",
"482 521 LINE",
"482 412 LINE",
"436 479 OFFCURVE",
"371 530 OFFCURVE",
"282 530 CURVE SMOOTH",
"139 530 OFFCURVE",
"40 404 OFFCURVE",
"40 259 CURVE SMOOTH",
"40 122 OFFCURVE",
"141 -7 OFFCURVE",
"284 -7 CURVE SMOOTH"
);
},
{
closed = 1;
nodes = (
"194 50 OFFCURVE",
"109 146 OFFCURVE",
"109 258 CURVE SMOOTH",
"109 361 OFFCURVE",
"178 470 OFFCURVE",
"294 470 CURVE SMOOTH",
"369 470 OFFCURVE",
"445 415 OFFCURVE",
"475 340 CURVE",
"475 179 LINE",
"463 115 OFFCURVE",
"384 50 OFFCURVE",
"303 50 CURVE SMOOTH"
);
}
);
width = 616;
}
);
unicode = 0067;
},
{
glyphname = gbreve;
layers = (
{
layerId = "D8D94703-76C4-4836-9DB2-440344724E35";
name = Regular;
paths = (
{
closed = 1;
nodes = (
"359 -7 OFFCURVE",
"434 35 OFFCURVE",
"475 101 CURVE",
"475 -2 LINE SMOOTH",
"475 -114 OFFCURVE",
"389 -169 OFFCURVE",
"287 -169 CURVE SMOOTH",
"210 -169 OFFCURVE",
"137 -138 OFFCURVE",
"96 -72 CURVE",
"54 -105 LINE",
"100 -177 OFFCURVE",
"168 -223 OFFCURVE",
"287 -223 CURVE SMOOTH",
"427 -223 OFFCURVE",
"543 -147 OFFCURVE",
"543 -2 CURVE SMOOTH",
"543 521 LINE",
"482 521 LINE",
"482 412 LINE",
"436 479 OFFCURVE",
"371 530 OFFCURVE",
"282 530 CURVE SMOOTH",
"139 530 OFFCURVE",
"40 404 OFFCURVE",
"40 259 CURVE SMOOTH",
"40 122 OFFCURVE",
"141 -7 OFFCURVE",
"284 -7 CURVE SMOOTH"
);
},
{
closed = 1;
nodes = (
"194 50 OFFCURVE",
"109 146 OFFCURVE",
"109 258 CURVE SMOOTH",
"109 361 OFFCURVE",
"178 470 OFFCURVE",
"294 470 CURVE SMOOTH",
"369 470 OFFCURVE",
"445 415 OFFCURVE",
"475 340 CURVE",
"475 179 LINE",
"463 115 OFFCURVE",
"384 50 OFFCURVE",
"303 50 CURVE SMOOTH"
);
},
{
closed = 1;
nodes = (
"297 664 OFFCURVE",
"270 696 OFFCURVE",
"270 730 CURVE",
"228 730 LINE",
"228 673 OFFCURVE",
"271 629 OFFCURVE",
"326 629 CURVE SMOOTH",
"380 629 OFFCURVE",
"424 673 OFFCURVE",
"424 730 CURVE",
"383 730 LINE",
"379 693 OFFCURVE",
"354 664 OFFCURVE",
"326 664 CURVE SMOOTH"
);
}
);
width = 616;
}
);
unicode = 011F;
},
{
glyphname = gcircumflex;
layers = (
{
layerId = "D8D94703-76C4-4836-9DB2-440344724E35";
name = Regular;
paths = (
{
closed = 1;
nodes = (
"240 624 LINE",
"325 687 LINE",
"410 624 LINE",
"449 645 LINE",
"350 730 LINE",
"300 730 LINE",
"202 645 LINE"
);
},
{
closed = 1;
nodes = (
"359 -7 OFFCURVE",
"434 35 OFFCURVE",
"475 101 CURVE",
"475 -2 LINE SMOOTH",
"475 -114 OFFCURVE",
"389 -169 OFFCURVE",
"287 -169 CURVE SMOOTH",
"210 -169 OFFCURVE",
"137 -138 OFFCURVE",
"96 -72 CURVE",
"54 -105 LINE",
"100 -177 OFFCURVE",
"168 -223 OFFCURVE",
"287 -223 CURVE SMOOTH",
"427 -223 OFFCURVE",
"543 -147 OFFCURVE",
"543 -2 CURVE SMOOTH",
"543 521 LINE",
"482 521 LINE",
"482 412 LINE",
"436 479 OFFCURVE",
"371 530 OFFCURVE",
"282 530 CURVE SMOOTH",
"139 530 OFFCURVE",
"40 404 OFFCURVE",
"40 259 CURVE SMOOTH",
"40 122 OFFCURVE",
"141 -7 OFFCURVE",
"284 -7 CURVE SMOOTH"
);
},
{
closed = 1;
nodes = (
"194 50 OFFCURVE",
"109 146 OFFCURVE",
"109 258 CURVE SMOOTH",
"109 361 OFFCURVE",
"178 470 OFFCURVE",
"294 470 CURVE SMOOTH",
"369 470 OFFCURVE",
"445 415 OFFCURVE",
"475 340 CURVE",
"475 179 LINE",
"463 115 OFFCURVE",
"384 50 OFFCURVE",
"303 50 CURVE SMOOTH"
);
}
);
width = 616;
}
);
unicode = 011D;
},
{
glyphname = gcommaaccent;
layers = (
{
layerId = "D8D94703-76C4-4836-9DB2-440344724E35";
name = Regular;
paths = (
{
closed = 1;
nodes = (
"418 730 LINE",
"346 730 LINE",
"287 637 LINE",
"332 620 LINE"
);
},
{
closed = 1;
nodes = (
"359 -7 OFFCURVE",
"434 35 OFFCURVE",
"475 101 CURVE",
"475 -2 LINE SMOOTH",
"475 -114 OFFCURVE",
"389 -169 OFFCURVE",
"287 -169 CURVE SMOOTH",
"210 -169 OFFCURVE",
"137 -138 OFFCURVE",
"96 -72 CURVE",
"54 -105 LINE",
"100 -177 OFFCURVE",
"168 -223 OFFCURVE",
"287 -223 CURVE SMOOTH",
"427 -223 OFFCURVE",
"543 -147 OFFCURVE",
"543 -2 CURVE SMOOTH",
"543 521 LINE",
"482 521 LINE",
"482 412 LINE",
"436 479 OFFCURVE",
"371 530 OFFCURVE",
"282 530 CURVE SMOOTH",
"139 530 OFFCURVE",
"40 404 OFFCURVE",
"40 259 CURVE SMOOTH",
"40 122 OFFCURVE",
"141 -7 OFFCURVE",
"284 -7 CURVE SMOOTH"
);
},
{
closed = 1;
nodes = (
"194 50 OFFCURVE",
"109 146 OFFCURVE",
"109 258 CURVE SMOOTH",
"109 361 OFFCURVE",
"178 470 OFFCURVE",
"294 470 CURVE SMOOTH",
"369 470 OFFCURVE",
"445 415 OFFCURVE",
"475 340 CURVE",
"475 179 LINE",
"463 115 OFFCURVE",
"384 50 OFFCURVE",
"303 50 CURVE SMOOTH"
);
}
);
width = 616;
}
);
unicode = 0123;
},
{
glyphname = gdotaccent;
layers = (
{
layerId = "D8D94703-76C4-4836-9DB2-440344724E35";
name = Regular;
paths = (
{
closed = 1;
nodes = (
"359 -7 OFFCURVE",
"434 35 OFFCURVE",
"475 101 CURVE",
"475 -2 LINE SMOOTH",
"475 -114 OFFCURVE",
"389 -169 OFFCURVE",
"287 -169 CURVE SMOOTH",
"210 -169 OFFCURVE",
"137 -138 OFFCURVE",
"96 -72 CURVE",
"54 -105 LINE",
"100 -177 OFFCURVE",
"168 -223 OFFCURVE",
"287 -223 CURVE SMOOTH",
"427 -223 OFFCURVE",
"543 -147 OFFCURVE",
"543 -2 CURVE SMOOTH",
"543 521 LINE",
"482 521 LINE",
"482 412 LINE",
"436 479 OFFCURVE",
"371 530 OFFCURVE",
"282 530 CURVE SMOOTH",
"139 530 OFFCURVE",
"40 404 OFFCURVE",
"40 259 CURVE SMOOTH",
"40 122 OFFCURVE",
"141 -7 OFFCURVE",
"284 -7 CURVE SMOOTH"
);
},
{
closed = 1;
nodes = (
"194 50 OFFCURVE",
"109 146 OFFCURVE",
"109 258 CURVE SMOOTH",
"109 361 OFFCURVE",
"178 470 OFFCURVE",
"294 470 CURVE SMOOTH",
"369 470 OFFCURVE",
"445 415 OFFCURVE",
"475 340 CURVE",
"475 179 LINE",
"463 115 OFFCURVE",
"384 50 OFFCURVE",
"303 50 CURVE SMOOTH"
);
},
{
closed = 1;
nodes = (
"356 633 LINE",
"356 730 LINE",
"294 730 LINE",
"294 633 LINE"
);
}
);
width = 616;
}
);
unicode = 0121;
},
{
glyphname = germandbls;
layers = (
{
layerId = "D8D94703-76C4-4836-9DB2-440344724E35";
name = Regular;
paths = (
{
closed = 1;
nodes = (
"236 -6 LINE",
"401 -1 OFFCURVE",
"511 72 OFFCURVE",
"511 207 CURVE SMOOTH",
"511 304 OFFCURVE",
"453 382 OFFCURVE",
"354 403 CURVE",
"412 417 OFFCURVE",
"460 483 OFFCURVE",
"460 554 CURVE SMOOTH",
"460 648 OFFCURVE",
"379 714 OFFCURVE",
"273 714 CURVE SMOOTH",
"157 714 OFFCURVE",
"73 633 OFFCURVE",
"73 515 CURVE SMOOTH",
"73 0 LINE",
"138 0 LINE",
"138 505 LINE SMOOTH",
"138 588 OFFCURVE",
"183 654 OFFCURVE",
"271 654 CURVE SMOOTH",
"338 654 OFFCURVE",
"395 615 OFFCURVE",
"395 544 CURVE SMOOTH",
"395 477 OFFCURVE",
"344 430 OFFCURVE",
"273 430 CURVE SMOOTH",
"256 430 LINE",
"256 368 LINE",
"274 368 LINE SMOOTH",
"373 368 OFFCURVE",
"441 305 OFFCURVE",
"441 211 CURVE SMOOTH",
"441 108 OFFCURVE",
"360 59 OFFCURVE",
"236 57 CURVE"
);
}
);
width = 551;
}
);
unicode = 00DF;
},
{
glyphname = greater;
layers = (
{
layerId = "D8D94703-76C4-4836-9DB2-440344724E35";
name = Regular;
paths = (
{
closed = 1;
nodes = (
"473 276 LINE",
"53 528 LINE",
"53 455 LINE",
"374 259 LINE",
"53 64 LINE",
"53 -11 LINE",
"473 239 LINE"
);
}
);
width = 506;
}
);
unicode = 003E;
},
{
glyphname = guillemotleft;
layers = (
{
layerId = "D8D94703-76C4-4836-9DB2-440344724E35";
name = Regular;
paths = (
{
closed = 1;
nodes = (
"44 239 LINE",
"293 66 LINE",
"293 125 LINE",
"100 259 LINE",
"293 395 LINE",
"293 454 LINE",
"44 276 LINE"
);
},
{
closed = 1;
nodes = (
"265 239 LINE",
"513 66 LINE",
"513 125 LINE",
"321 259 LINE",
"513 395 LINE",
"513 454 LINE",
"265 276 LINE"
);
}
);
width = 578;
}
);
unicode = 00AB;
},
{
glyphname = guillemotright;
layers = (
{
layerId = "D8D94703-76C4-4836-9DB2-440344724E35";
name = Regular;
paths = (
{
closed = 1;
nodes = (
"533 276 LINE",
"285 454 LINE",
"285 395 LINE",
"477 259 LINE",
"285 125 LINE",
"285 66 LINE",
"533 239 LINE"
);
},
{
closed = 1;
nodes = (
"312 276 LINE",
"64 454 LINE",
"64 395 LINE",
"257 259 LINE",
"64 125 LINE",
"64 66 LINE",
"312 239 LINE"
);
}
);
width = 578;
}
);
unicode = 00BB;
},
{
glyphname = guilsinglleft;
layers = (
{
layerId = "D8D94703-76C4-4836-9DB2-440344724E35";
name = Regular;
paths = (
{
closed = 1;
nodes = (
"44 239 LINE",
"293 66 LINE",
"293 125 LINE",
"100 259 LINE",
"293 395 LINE",
"293 454 LINE",
"44 276 LINE"
);
}
);
width = 357;
}
);
unicode = 2039;
},
{
glyphname = guilsinglright;
layers = (
{
layerId = "D8D94703-76C4-4836-9DB2-440344724E35";
name = Regular;
paths = (
{
closed = 1;
nodes = (
"312 276 LINE",
"64 454 LINE",
"64 395 LINE",
"257 259 LINE",
"64 125 LINE",
"64 66 LINE",
"312 239 LINE"
);
}
);
width = 357;
}
);
unicode = 203A;
},
{
glyphname = h;
layers = (
{
layerId = "D8D94703-76C4-4836-9DB2-440344724E35";
name = Regular;
paths = (
{
closed = 1;
nodes = (
"511 305 LINE SMOOTH",
"511 439 OFFCURVE",
"466 530 OFFCURVE",
"346 530 CURVE SMOOTH",
"262 530 OFFCURVE",
"183 481 OFFCURVE",
"141 403 CURVE",
"141 730 LINE",
"73 730 LINE",
"73 0 LINE",
"141 0 LINE",
"141 319 LINE",
"165 404 OFFCURVE",
"246 468 OFFCURVE",
"323 468 CURVE SMOOTH",
"401 468 OFFCURVE",
"443 409 OFFCURVE",
"443 291 CURVE SMOOTH",
"443 0 LINE",
"511 0 LINE"
);
}
);
width = 579;
}
);
unicode = 0068;
},
{
glyphname = hbar;
layers = (
{
layerId = "D8D94703-76C4-4836-9DB2-440344724E35";
name = Regular;
paths = (
{
closed = 1;
nodes = (
"511 305 LINE SMOOTH",
"511 439 OFFCURVE",
"466 530 OFFCURVE",
"346 530 CURVE SMOOTH",
"262 530 OFFCURVE",
"183 481 OFFCURVE",
"141 403 CURVE",
"141 617 LINE",
"264 617 LINE",
"264 663 LINE",
"141 663 LINE",
"141 730 LINE",
"73 730 LINE",
"73 663 LINE",
"12 663 LINE",
"12 617 LINE",
"73 617 LINE",
"73 0 LINE",
"141 0 LINE",
"141 319 LINE",
"165 404 OFFCURVE",
"246 468 OFFCURVE",
"323 468 CURVE SMOOTH",
"401 468 OFFCURVE",
"443 409 OFFCURVE",
"443 291 CURVE SMOOTH",
"443 0 LINE",
"511 0 LINE"
);
}
);
width = 579;
}
);
unicode = 0127;
},
{
glyphname = hcircumflex;
layers = (
{
layerId = "D8D94703-76C4-4836-9DB2-440344724E35";
name = Regular;
paths = (
{
closed = 1;
nodes = (
"254 623 LINE",
"335 686 LINE",
"415 623 LINE",
"452 644 LINE",
"358 728 LINE",
"311 728 LINE",
"218 644 LINE"
);
},
{
closed = 1;
nodes = (
"511 305 LINE SMOOTH",
"511 439 OFFCURVE",
"466 530 OFFCURVE",
"346 530 CURVE SMOOTH",
"262 530 OFFCURVE",
"183 481 OFFCURVE",
"141 403 CURVE",
"141 730 LINE",
"73 730 LINE",
"73 0 LINE",
"141 0 LINE",
"141 319 LINE",
"165 404 OFFCURVE",
"246 468 OFFCURVE",
"323 468 CURVE SMOOTH",
"401 468 OFFCURVE",
"443 409 OFFCURVE",
"443 291 CURVE SMOOTH",
"443 0 LINE",
"511 0 LINE"
);
}
);
width = 579;
}
);
unicode = 0125;
},
{
glyphname = hyphen;
layers = (
{
layerId = "D8D94703-76C4-4836-9DB2-440344724E35";
name = Regular;
paths = (
{
closed = 1;
nodes = (
"357 241 LINE",
"357 304 LINE",
"66 304 LINE",
"66 241 LINE"
);
}
);
width = 423;
}
);
unicode = 002D;
},
{
glyphname = i;
layers = (
{
layerId = "D8D94703-76C4-4836-9DB2-440344724E35";
name = Regular;
paths = (
{
closed = 1;
nodes = (
"141 0 LINE",
"141 521 LINE",
"73 521 LINE",
"73 0 LINE"
);
},
{
closed = 1;
nodes = (
"141 630 LINE",
"141 730 LINE",
"73 730 LINE",
"73 630 LINE"
);
}
);
width = 214;
}
);
unicode = 0069;
},
{
glyphname = iacute;
layers = (
{
layerId = "D8D94703-76C4-4836-9DB2-440344724E35";
name = Regular;
paths = (
{
closed = 1;
nodes = (
"199 730 LINE",
"127 730 LINE",
"68 637 LINE",
"113 620 LINE"
);
},
{
closed = 1;
nodes = (
"141 0 LINE",
"141 521 LINE",
"73 521 LINE",
"73 0 LINE"
);
}
);
width = 214;
}
);
unicode = 00ED;
},
{
glyphname = ibreve;
layers = (
{
layerId = "D8D94703-76C4-4836-9DB2-440344724E35";
name = Regular;
paths = (
{
closed = 1;
nodes = (
"141 0 LINE",
"141 521 LINE",
"73 521 LINE",
"73 0 LINE"
);
},
{
closed = 1;
nodes = (
"78 664 OFFCURVE",
"51 696 OFFCURVE",
"51 730 CURVE",
"9 730 LINE",
"9 673 OFFCURVE",
"52 629 OFFCURVE",
"107 629 CURVE SMOOTH",
"161 629 OFFCURVE",
"205 673 OFFCURVE",
"205 730 CURVE",
"164 730 LINE",
"160 693 OFFCURVE",
"135 664 OFFCURVE",
"107 664 CURVE SMOOTH"
);
}
);
width = 214;
}
);
unicode = 012D;
},
{
glyphname = icircumflex;
layers = (
{
layerId = "D8D94703-76C4-4836-9DB2-440344724E35";
name = Regular;
paths = (
{
closed = 1;
nodes = (
"22 624 LINE",
"107 687 LINE",
"192 624 LINE",
"231 645 LINE",
"132 730 LINE",
"82 730 LINE",
"-16 645 LINE"
);
},
{
closed = 1;
nodes = (
"141 0 LINE",
"141 521 LINE",
"73 521 LINE",
"73 0 LINE"
);
}
);
width = 214;
}
);
unicode = 00EE;
},
{
glyphname = idieresis;
layers = (
{
layerId = "D8D94703-76C4-4836-9DB2-440344724E35";
name = Regular;
paths = (
{
closed = 1;
nodes = (
"62 633 LINE",
"62 727 LINE",
"4 727 LINE",
"4 633 LINE"
);
},
{
closed = 1;
nodes = (
"211 633 LINE",
"211 727 LINE",
"153 727 LINE",
"153 633 LINE"
);
},
{
closed = 1;
nodes = (
"141 0 LINE",
"141 521 LINE",
"73 521 LINE",
"73 0 LINE"
);
}
);
width = 214;
}
);
unicode = 00EF;
},
{
glyphname = igrave;
layers = (
{
layerId = "D8D94703-76C4-4836-9DB2-440344724E35";
name = Regular;
paths = (
{
closed = 1;
nodes = (
"141 0 LINE",
"141 521 LINE",
"73 521 LINE",
"73 0 LINE"
);
},
{
closed = 1;
nodes = (
"101 620 LINE",
"145 637 LINE",
"85 730 LINE",
"14 730 LINE"
);
}
);
width = 214;
}
);
unicode = 00EC;
},
{
glyphname = ij;
layers = (
{
layerId = "D8D94703-76C4-4836-9DB2-440344724E35";
name = Regular;
paths = (
{
closed = 1;
nodes = (
"141 0 LINE",
"141 521 LINE",
"73 521 LINE",
"73 0 LINE"
);
},
{
closed = 1;
nodes = (
"141 630 LINE",
"141 730 LINE",
"73 730 LINE",
"73 630 LINE"
);
},
{
closed = 1;
nodes = (
"280 -181 OFFCURVE",
"355 -115 OFFCURVE",
"355 -23 CURVE SMOOTH",
"355 521 LINE",
"287 521 LINE",
"287 -27 LINE SMOOTH",
"287 -80 OFFCURVE",
"241 -120 OFFCURVE",
"194 -120 CURVE SMOOTH",
"169 -120 OFFCURVE",
"142 -115 OFFCURVE",
"121 -96 CURVE",
"88 -142 LINE",
"118 -170 OFFCURVE",
"158 -181 OFFCURVE",
"202 -181 CURVE SMOOTH"
);
},
{
closed = 1;
nodes = (
"355 630 LINE",
"355 730 LINE",
"287 730 LINE",
"287 630 LINE"
);
}
);
width = 428;
}
);
unicode = 0133;
},
{
color = 4;
glyphname = j;
lastChange = "2014-10-28 14:13:40 +0100";
layers = (
{
layerId = "D8D94703-76C4-4836-9DB2-440344724E35";
name = Regular;
paths = (
{
closed = 1;
nodes = (
"73 -209 LINE",
"141 -209 LINE",
"141 521 LINE",
"73 521 LINE"
);
},
{
closed = 1;
nodes = (
"73 641 LINE",
"141 641 LINE",
"141 732 LINE",
"73 732 LINE"
);
}
);
width = 214;
}
);
unicode = 006A;
},
{
glyphname = imacron;
layers = (
{
layerId = "D8D94703-76C4-4836-9DB2-440344724E35";
name = Regular;
paths = (
{
closed = 1;
nodes = (
"141 0 LINE",
"141 521 LINE",
"73 521 LINE",
"73 0 LINE"
);
},
{
closed = 1;
nodes = (
"252 663 LINE",
"252 710 LINE",
"-37 710 LINE",
"-37 663 LINE"
);
}
);
width = 214;
}
);
unicode = 012B;
},
{
glyphname = iogonek;
layers = (
{
layerId = "D8D94703-76C4-4836-9DB2-440344724E35";
name = Regular;
paths = (
{
closed = 1;
nodes = (
"112 -137 LINE",
"77 -132 OFFCURVE",
"60 -117 OFFCURVE",
"60 -93 CURVE SMOOTH",
"60 -64 OFFCURVE",
"83 -37 OFFCURVE",
"142 0 CURVE",
"142 521 LINE",
"74 521 LINE",
"74 0 LINE",
"93 0 LINE",
"41 -36 OFFCURVE",
"18 -69 OFFCURVE",
"18 -102 CURVE SMOOTH",
"18 -137 OFFCURVE",
"44 -165 OFFCURVE",
"93 -175 CURVE"
);
},
{
closed = 1;
nodes = (
"142 630 LINE",
"142 730 LINE",
"74 730 LINE",
"74 630 LINE"
);
}
);
width = 215;
}
);
unicode = 012F;
},
{
glyphname = itilde;
layers = (
{
layerId = "D8D94703-76C4-4836-9DB2-440344724E35";
name = Regular;
paths = (
{
closed = 1;
nodes = (
"141 0 LINE",
"141 521 LINE",
"73 521 LINE",
"73 0 LINE"
);
},
{
closed = 1;
nodes = (
"250 638 OFFCURVE",
"267 717 OFFCURVE",
"267 730 CURVE",
"225 730 LINE",
"225 726 OFFCURVE",
"220 681 OFFCURVE",
"168 681 CURVE SMOOTH",
"118 681 OFFCURVE",
"96 723 OFFCURVE",
"40 723 CURVE SMOOTH",
"-35 723 OFFCURVE",
"-51 644 OFFCURVE",
"-51 630 CURVE",
"-9 630 LINE",
"-9 635 OFFCURVE",
"-3 678 OFFCURVE",
"41 678 CURVE SMOOTH",
"83 678 OFFCURVE",
"109 638 OFFCURVE",
"169 638 CURVE SMOOTH"
);
}
);
width = 214;
}
);
unicode = 0129;
},
{
color = 4;
glyphname = jcircumflex;
lastChange = "2014-10-28 14:11:57 +0100";
layers = (
{
layerId = "D8D94703-76C4-4836-9DB2-440344724E35";
name = Regular;
paths = (
{
closed = 1;
nodes = (
"22 624 LINE",
"107 687 LINE",
"192 624 LINE",
"231 645 LINE",
"132 730 LINE",
"82 730 LINE",
"-16 645 LINE"
);
},
{
closed = 1;
nodes = (
"73 -209 LINE",
"141 -209 LINE",
"141 521 LINE",
"73 521 LINE"
);
}
);
width = 214;
}
);
unicode = 0135;
},
{
glyphname = k;
layers = (
{
layerId = "D8D94703-76C4-4836-9DB2-440344724E35";
name = Regular;
paths = (
{
closed = 1;
nodes = (
"519 0 LINE",
"298 307 LINE",
"511 520 LINE",
"434 520 LINE",
"141 234 LINE",
"141 730 LINE",
"73 730 LINE",
"73 0 LINE",
"141 0 LINE",
"141 163 LINE",
"253 267 LINE",
"445 0 LINE"
);
}
);
width = 527;
}
);
unicode = 006B;
},
{
glyphname = kcommaaccent;
layers = (
{
layerId = "D8D94703-76C4-4836-9DB2-440344724E35";
name = Regular;
paths = (
{
closed = 1;
nodes = (
"224 -165 LINE",
"270 -165 OFFCURVE",
"303 -154 OFFCURVE",
"303 -113 CURVE SMOOTH",
"303 -49 LINE",
"245 -49 LINE",
"245 -113 LINE SMOOTH",
"245 -126 OFFCURVE",
"239 -131 OFFCURVE",
"224 -131 CURVE"
);
},
{
closed = 1;
nodes = (
"519 0 LINE",
"298 307 LINE",
"511 520 LINE",
"434 520 LINE",
"141 234 LINE",
"141 730 LINE",
"73 730 LINE",
"73 0 LINE",
"141 0 LINE",
"141 163 LINE",
"253 267 LINE",
"445 0 LINE"
);
}
);
width = 527;
}
);
unicode = 0137;
},
{
glyphname = kgreenlandic;
layers = (
{
layerId = "D8D94703-76C4-4836-9DB2-440344724E35";
name = Regular;
paths = (
{
closed = 1;
nodes = (
"519 0 LINE",
"298 307 LINE",
"511 520 LINE",
"434 520 LINE",
"141 234 LINE",
"141 521 LINE",
"73 521 LINE",
"73 0 LINE",
"141 0 LINE",
"141 163 LINE",
"253 267 LINE",
"445 0 LINE"
);
}
);
width = 527;
}
);
unicode = 0138;
},
{
color = 4;
glyphname = l;
lastChange = "2014-10-28 10:56:45 +0100";
layers = (
{
layerId = "D8D94703-76C4-4836-9DB2-440344724E35";
name = Regular;
paths = (
{
closed = 1;
nodes = (
"79 0 LINE",
"147 0 LINE",
"147 730 LINE",
"79 730 LINE"
);
}
);
width = 226;
}
);
unicode = 006C;
},
{
color = 4;
glyphname = lacute;
lastChange = "2014-10-28 10:56:45 +0100";
layers = (
{
layerId = "D8D94703-76C4-4836-9DB2-440344724E35";
name = Regular;
paths = (
{
closed = 1;
nodes = (
"195 883 LINE",
"123 883 LINE",
"64 790 LINE",
"109 773 LINE"
);
},
{
closed = 1;
nodes = (
"79 0 LINE",
"147 0 LINE",
"147 730 LINE",
"79 730 LINE"
);
}
);
width = 226;
}
);
unicode = 013A;
},
{
color = 4;
glyphname = lcaron;
lastChange = "2014-10-28 10:56:45 +0100";
layers = (
{
layerId = "D8D94703-76C4-4836-9DB2-440344724E35";
name = Regular;
paths = (
{
closed = 1;
nodes = (
"321 730 LINE",
"249 730 LINE",
"190 637 LINE",
"235 620 LINE"
);
},
{
closed = 1;
nodes = (
"79 0 LINE",
"147 0 LINE",
"147 730 LINE",
"79 730 LINE"
);
}
);
width = 226;
}
);
unicode = 013E;
},
{
color = 4;
glyphname = lcommaaccent;
lastChange = "2014-10-28 10:56:45 +0100";
layers = (
{
layerId = "D8D94703-76C4-4836-9DB2-440344724E35";
name = Regular;
paths = (
{
closed = 1;
nodes = (
"62 -165 LINE",
"108 -165 OFFCURVE",
"141 -154 OFFCURVE",
"141 -113 CURVE SMOOTH",
"141 -49 LINE",
"83 -49 LINE",
"83 -113 LINE SMOOTH",
"83 -126 OFFCURVE",
"77 -131 OFFCURVE",
"62 -131 CURVE"
);
},
{
closed = 1;
nodes = (
"79 0 LINE",
"147 0 LINE",
"147 730 LINE",
"79 730 LINE"
);
}
);
width = 226;
}
);
unicode = 013C;
},
{
color = 4;
glyphname = ldot;
lastChange = "2014-10-28 10:56:45 +0100";
layers = (
{
layerId = "D8D94703-76C4-4836-9DB2-440344724E35";
name = Regular;
paths = (
{
closed = 1;
nodes = (
"274 263 LINE",
"274 375 LINE",
"216 375 LINE",
"216 263 LINE"
);
},
{
closed = 1;
nodes = (
"79 0 LINE",
"147 0 LINE",
"147 730 LINE",
"79 730 LINE"
);
}
);
width = 300;
}
);
unicode = 0140;
},
{
glyphname = less;
lastChange = "2014-10-28 10:56:52 +0100";
layers = (
{
layerId = "D8D94703-76C4-4836-9DB2-440344724E35";
name = Regular;
paths = (
{
closed = 1;
nodes = (
"34 239 LINE",
"453 -11 LINE",
"453 64 LINE",
"132 259 LINE",
"453 455 LINE",
"453 528 LINE",
"34 276 LINE"
);
}
);
width = 506;
}
);
unicode = 003C;
},
{
glyphname = logicalnot;
layers = (
{
layerId = "D8D94703-76C4-4836-9DB2-440344724E35";
name = Regular;
paths = (
{
closed = 1;
nodes = (
"79 364 LINE",
"79 302 LINE",
"458 302 LINE",
"458 126 LINE",
"518 126 LINE",
"518 364 LINE"
);
}
);
width = 589;
}
);
unicode = 00AC;
},
{
color = 4;
glyphname = lslash;
lastChange = "2014-10-28 14:13:25 +0100";
layers = (
{
layerId = "D8D94703-76C4-4836-9DB2-440344724E35";
name = Regular;
paths = (
{
closed = 1;
nodes = (
"29 289 LINE",
"273 482 LINE",
"250 521 LINE",
"6 328 LINE"
);
},
{
closed = 1;
nodes = (
"93 0 LINE",
"161 0 LINE",
"161 730 LINE",
"93 730 LINE"
);
}
);
width = 284;
}
);
unicode = 0142;
},
{
glyphname = m;
layers = (
{
layerId = "D8D94703-76C4-4836-9DB2-440344724E35";
name = Regular;
paths = (
{
closed = 1;
nodes = (
"848 305 LINE SMOOTH",
"848 441 OFFCURVE",
"806 530 OFFCURVE",
"690 530 CURVE SMOOTH",
"604 530 OFFCURVE",
"536 484 OFFCURVE",
"488 396 CURVE",
"477 475 OFFCURVE",
"421 530 OFFCURVE",
"334 530 CURVE SMOOTH",
"250 530 OFFCURVE",
"178 483 OFFCURVE",
"135 403 CURVE",
"135 521 LINE",
"73 521 LINE",
"73 0 LINE",
"141 0 LINE",
"141 319 LINE",
"167 408 OFFCURVE",
"234 468 OFFCURVE",
"312 468 CURVE SMOOTH",
"389 468 OFFCURVE",
"426 414 OFFCURVE",
"426 291 CURVE SMOOTH",
"426 0 LINE",
"494 0 LINE",
"494 318 LINE",
"519 406 OFFCURVE",
"586 468 OFFCURVE",
"665 468 CURVE SMOOTH",
"742 468 OFFCURVE",
"780 412 OFFCURVE",
"780 291 CURVE SMOOTH",
"780 0 LINE",
"848 0 LINE"
);
}
);
width = 916;
}
);
unicode = 006D;
},
{
glyphname = minus;
layers = (
{
layerId = "D8D94703-76C4-4836-9DB2-440344724E35";
name = Regular;
paths = (
{
closed = 1;
nodes = (
"473 267 LINE",
"473 323 LINE",
"70 323 LINE",
"70 267 LINE"
);
}
);
width = 544;
}
);
unicode = 2212;
},
{
glyphname = mu;
layers = (
{
layerId = "D8D94703-76C4-4836-9DB2-440344724E35";
name = Regular;
paths = (
{
closed = 1;
nodes = (
"80 -212 LINE",
"145 -212 LINE",
"145 75 LINE",
"163 25 OFFCURVE",
"203 -10 OFFCURVE",
"268 -10 CURVE SMOOTH",
"351 -10 OFFCURVE",
"431 47 OFFCURVE",
"467 118 CURVE",
"467 46 LINE SMOOTH",
"467 18 OFFCURVE",
"491 -3 OFFCURVE",
"522 -3 CURVE SMOOTH",
"530 -3 OFFCURVE",
"538 -2 OFFCURVE",
"551 0 CURVE",
"551 60 LINE",
"534 60 OFFCURVE",
"526 69 OFFCURVE",
"526 88 CURVE SMOOTH",
"526 521 LINE",
"458 521 LINE",
"458 193 LINE",
"427 106 OFFCURVE",
"350 50 OFFCURVE",
"271 50 CURVE SMOOTH",
"188 50 OFFCURVE",
"148 108 OFFCURVE",
"148 227 CURVE SMOOTH",
"148 521 LINE",
"80 521 LINE"
);
}
);
width = 598;
}
);
unicode = 00B5;
},
{
glyphname = multiply;
layers = (
{
layerId = "D8D94703-76C4-4836-9DB2-440344724E35";
name = Regular;
paths = (
{
closed = 1;
nodes = (
"274 272 LINE",
"394 393 LINE",
"351 437 LINE",
"231 316 LINE",
"111 436 LINE",
"67 393 LINE",
"187 272 LINE",
"66 152 LINE",
"109 108 LINE",
"231 229 LINE",
"352 108 LINE",
"396 151 LINE"
);
}
);
width = 462;
}
);
unicode = 00D7;
},
{
glyphname = n;
layers = (
{
layerId = "D8D94703-76C4-4836-9DB2-440344724E35";
name = Regular;
paths = (
{
closed = 1;
nodes = (
"511 305 LINE SMOOTH",
"511 442 OFFCURVE",
"473 530 OFFCURVE",
"356 530 CURVE SMOOTH",
"264 530 OFFCURVE",
"177 479 OFFCURVE",
"135 403 CURVE",
"135 521 LINE",
"73 521 LINE",
"73 0 LINE",
"141 0 LINE",
"141 319 LINE",
"167 405 OFFCURVE",
"251 468 OFFCURVE",
"332 468 CURVE SMOOTH",
"408 468 OFFCURVE",
"443 414 OFFCURVE",
"443 291 CURVE SMOOTH",
"443 0 LINE",
"511 0 LINE"
);
}
);
width = 579;
}
);
unicode = 006E;
},
{
glyphname = nacute;
layers = (
{
layerId = "D8D94703-76C4-4836-9DB2-440344724E35";
name = Regular;
paths = (
{
closed = 1;
nodes = (
"387 730 LINE",
"315 730 LINE",
"256 637 LINE",
"301 620 LINE"
);
},
{
closed = 1;
nodes = (
"511 305 LINE SMOOTH",
"511 442 OFFCURVE",
"473 530 OFFCURVE",
"356 530 CURVE SMOOTH",
"264 530 OFFCURVE",
"177 479 OFFCURVE",
"135 403 CURVE",
"135 521 LINE",
"73 521 LINE",
"73 0 LINE",
"141 0 LINE",
"141 319 LINE",
"167 405 OFFCURVE",
"251 468 OFFCURVE",
"332 468 CURVE SMOOTH",
"408 468 OFFCURVE",
"443 414 OFFCURVE",
"443 291 CURVE SMOOTH",
"443 0 LINE",
"511 0 LINE"
);
}
);
width = 579;
}
);
unicode = 0144;
},
{
glyphname = napostrophe;
layers = (
{
layerId = "D8D94703-76C4-4836-9DB2-440344724E35";
name = Regular;
paths = (
{
closed = 1;
nodes = (
"127 730 LINE",
"33 730 LINE",
"33 696 LINE",
"-5 637 LINE",
"40 620 LINE"
);
},
{
closed = 1;
nodes = (
"511 305 LINE SMOOTH",
"511 442 OFFCURVE",
"473 530 OFFCURVE",
"356 530 CURVE SMOOTH",
"264 530 OFFCURVE",
"177 479 OFFCURVE",
"135 403 CURVE",
"135 521 LINE",
"73 521 LINE",
"73 0 LINE",
"141 0 LINE",
"141 319 LINE",
"167 405 OFFCURVE",
"251 468 OFFCURVE",
"332 468 CURVE SMOOTH",
"408 468 OFFCURVE",
"443 414 OFFCURVE",
"443 291 CURVE SMOOTH",
"443 0 LINE",
"511 0 LINE"
);
}
);
width = 579;
}
);
unicode = 0149;
},
{
glyphname = ncaron;
layers = (
{
layerId = "D8D94703-76C4-4836-9DB2-440344724E35";
name = Regular;
paths = (
{
closed = 1;
nodes = (
"171 710 LINE",
"269 624 LINE",
"319 624 LINE",
"418 710 LINE",
"379 730 LINE",
"294 667 LINE",
"209 730 LINE"
);
},
{
closed = 1;
nodes = (
"511 305 LINE SMOOTH",
"511 442 OFFCURVE",
"473 530 OFFCURVE",
"356 530 CURVE SMOOTH",
"264 530 OFFCURVE",
"177 479 OFFCURVE",
"135 403 CURVE",
"135 521 LINE",
"73 521 LINE",
"73 0 LINE",
"141 0 LINE",
"141 319 LINE",
"167 405 OFFCURVE",
"251 468 OFFCURVE",
"332 468 CURVE SMOOTH",
"408 468 OFFCURVE",
"443 414 OFFCURVE",
"443 291 CURVE SMOOTH",
"443 0 LINE",
"511 0 LINE"
);
}
);
width = 579;
}
);
unicode = 0148;
},
{
glyphname = ncommaaccent;
layers = (
{
layerId = "D8D94703-76C4-4836-9DB2-440344724E35";
name = Regular;
paths = (
{
closed = 1;
nodes = (
"237 -165 LINE",
"283 -165 OFFCURVE",
"316 -154 OFFCURVE",
"316 -113 CURVE SMOOTH",
"316 -49 LINE",
"258 -49 LINE",
"258 -113 LINE SMOOTH",
"258 -126 OFFCURVE",
"252 -131 OFFCURVE",
"237 -131 CURVE"
);
},
{
closed = 1;
nodes = (
"511 305 LINE SMOOTH",
"511 442 OFFCURVE",
"473 530 OFFCURVE",
"356 530 CURVE SMOOTH",
"264 530 OFFCURVE",
"177 479 OFFCURVE",
"135 403 CURVE",
"135 521 LINE",
"73 521 LINE",
"73 0 LINE",
"141 0 LINE",
"141 319 LINE",
"167 405 OFFCURVE",
"251 468 OFFCURVE",
"332 468 CURVE SMOOTH",
"408 468 OFFCURVE",
"443 414 OFFCURVE",
"443 291 CURVE SMOOTH",
"443 0 LINE",
"511 0 LINE"
);
}
);
width = 579;
}
);
unicode = 0146;
},
{
glyphname = ndotaccent;
layers = (
{
layerId = "D8D94703-76C4-4836-9DB2-440344724E35";
name = Regular;
paths = (
{
closed = 1;
nodes = (
"325 633 LINE",
"325 730 LINE",
"263 730 LINE",
"263 633 LINE"
);
},
{
closed = 1;
nodes = (
"511 305 LINE SMOOTH",
"511 442 OFFCURVE",
"473 530 OFFCURVE",
"356 530 CURVE SMOOTH",
"264 530 OFFCURVE",
"177 479 OFFCURVE",
"135 403 CURVE",
"135 521 LINE",
"73 521 LINE",
"73 0 LINE",
"141 0 LINE",
"141 319 LINE",
"167 405 OFFCURVE",
"251 468 OFFCURVE",
"332 468 CURVE SMOOTH",
"408 468 OFFCURVE",
"443 414 OFFCURVE",
"443 291 CURVE SMOOTH",
"443 0 LINE",
"511 0 LINE"
);
}
);
width = 579;
}
);
unicode = 1E45;
},
{
glyphname = nine;
lastChange = "2014-10-26 20:35:31 +0100";
layers = (
{
layerId = "D8D94703-76C4-4836-9DB2-440344724E35";
name = Regular;
paths = (
{
closed = 1;
nodes = (
"44 338 OFFCURVE",
"152 231 OFFCURVE",
"289 231 CURVE SMOOTH",
"378 231 OFFCURVE",
"456 282 OFFCURVE",
"486 360 CURVE",
"485 164 OFFCURVE",
"407 51 OFFCURVE",
"290 51 CURVE SMOOTH",
"215 51 OFFCURVE",
"149 95 OFFCURVE",
"121 162 CURVE",
"78 123 LINE",
"116 40 OFFCURVE",
"196 -10 OFFCURVE",
"289 -10 CURVE SMOOTH",
"446 -10 OFFCURVE",
"551 129 OFFCURVE",
"551 419 CURVE SMOOTH",
"551 604 OFFCURVE",
"446 715 OFFCURVE",
"296 715 CURVE SMOOTH",
"155 715 OFFCURVE",
"44 607 OFFCURVE",
"44 471 CURVE SMOOTH"
);
},
{
closed = 1;
nodes = (
"396 656 OFFCURVE",
"481 571 OFFCURVE",
"481 471 CURVE SMOOTH",
"481 371 OFFCURVE",
"397 287 OFFCURVE",
"296 287 CURVE SMOOTH",
"195 287 OFFCURVE",
"110 371 OFFCURVE",
"110 472 CURVE SMOOTH",
"110 572 OFFCURVE",
"194 656 OFFCURVE",
"295 656 CURVE SMOOTH"
);
}
);
width = 606;
}
);
unicode = 0039;
},
